<?xml version="1.0" encoding="utf-8"?>
<!-- Generator: Adobe Illustrator 27.5.0, SVG Export Plug-In . SVG Version: 6.00 Build 0)  -->
<svg version="1.1" id="Layer_1" xmlns="http://www.w3.org/2000/svg" xmlns:xlink="http://www.w3.org/1999/xlink" x="0px" y="0px"
	 viewBox="0 0 288 288" style="enable-background:new 0 0 288 288;" xml:space="preserve">
<g>
	<rect x="0" y="0" style="fill:#FFBB00;" width="288" height="288"/>
	<g style="opacity:0.2;">
		<path style="fill:#060606;" d="M96.257,67.941C84.009,45.303,71.757,22.657,59.498,0h-9.267
			c15.26,22.716,30.51,45.414,45.751,68.101C96.074,68.048,96.166,67.994,96.257,67.941z M15.773,154.009
			c-0.006-0.164-0.012-0.328-0.019-0.492c-2.811,0.235-5.625,0.538-8.434,0.693c-2.44,0.135-4.88,0.26-7.321,0.392v1.234
			c4.598-0.526,9.196-1.051,13.794-1.577C14.454,154.184,15.113,154.093,15.773,154.009z M86.719,96.646
			C57.822,70.103,28.914,43.549,0,16.99v12.031c28.872,22.592,57.731,45.173,86.581,67.748
			C86.627,96.728,86.673,96.687,86.719,96.646z M100.697,52.908C93.768,35.275,86.84,17.641,79.909,0h-6.96
			c9.175,17.675,18.345,35.338,27.513,53L100.697,52.908z M39.498,80.592C26.334,71.727,13.168,62.861,0,53.994v4.932
			C13.112,66.22,26.221,73.511,39.325,80.8C39.383,80.73,39.44,80.661,39.498,80.592z M23.226,143.548
			c-1.457-0.238-2.931-0.289-4.404-0.339c-6.274-0.213-12.547-0.426-18.821-0.64v1.818c5.167-0.176,10.333-0.351,15.5-0.53
			C18.074,143.768,20.65,143.652,23.226,143.548z M42.879,115.471c0.025-0.055,0.051-0.11,0.076-0.164
			C28.637,110.668,14.318,106.028,0,101.389v3.625c10.241,2.502,20.481,5.004,30.722,7.504
			C34.772,113.506,38.826,114.487,42.879,115.471z M36.728,101.929C24.488,96.549,12.244,91.167,0,85.785v3.521
			c12.199,4.27,24.4,8.54,36.596,12.808C36.64,102.052,36.684,101.991,36.728,101.929z M111.947,0h-2.809
			c2.413,9.077,4.823,18.156,7.234,27.233c0.129-0.208,0.155-0.396,0.125-0.573c-1.021-5.973-2.057-11.944-3.072-17.918
			C112.93,5.829,112.439,2.914,111.947,0z M7.009,0c27.829,28.716,55.62,57.391,83.398,86.054c0.071-0.066,0.141-0.131,0.212-0.197
			C67.21,57.253,43.794,28.638,20.358,0H7.009z M231.197,93.08C250.13,83.272,269.063,73.464,288,63.654v-5.495
			c-18.996,11.6-37.987,23.196-56.976,34.792C231.082,92.994,231.139,93.037,231.197,93.08z M241.633,132.749
			c15.458-1.124,30.912-2.248,46.367-3.372v-3.292c-15.46,2.183-30.915,4.365-46.367,6.546
			C241.633,132.67,241.633,132.709,241.633,132.749z M268.532,85.493c6.488-2.701,12.979-5.404,19.468-8.106V75.57
			c-6.517,3.255-13.037,6.511-19.553,9.766C268.475,85.388,268.504,85.44,268.532,85.493z M282.454,0
			c-26.368,27.739-52.714,55.454-79.05,83.158c0.059,0.04,0.118,0.08,0.177,0.12C231.708,57.921,259.845,32.556,288,7.173V0H282.454
			z M75.642,208.638C50.435,231.773,25.217,254.918,0,278.062V288h1.981c24.657-26.419,49.289-52.811,73.908-79.189
			C75.807,208.753,75.724,208.696,75.642,208.638z M209.877,58.377C226.666,38.922,243.458,19.464,260.255,0h-7.564
			c-14.373,19.43-28.729,38.835-43.082,58.238C209.698,58.285,209.787,58.331,209.877,58.377z M257.996,62.125
			c9.999-6.431,20.002-12.865,30.004-19.298v-3.823c-10.057,7.648-20.113,15.295-30.165,22.94
			C257.888,62.003,257.942,62.064,257.996,62.125z M234.843,0h-4.3c-7.496,12.845-14.988,25.685-22.479,38.521
			c0.082,0.032,0.165,0.064,0.247,0.096C217.152,25.75,226.001,12.87,234.843,0z M198.24,0
			c-7.049,19.235-14.092,38.455-21.135,57.672c0.086,0.02,0.171,0.04,0.257,0.061C186.296,38.491,195.229,19.249,204.165,0H198.24z
			 M179.784,0c-2.317,10.181-4.634,20.363-6.951,30.544c0.09,0.011,0.181,0.022,0.271,0.034C176.441,20.387,179.78,10.191,183.117,0
			H179.784z M8.063,193.377c-0.766,0.094-1.476,0.318-2.182,0.554C3.92,194.587,1.96,195.244,0,195.9v0.808
			c0.096-0.04,0.192-0.08,0.288-0.119C2.879,195.516,5.471,194.447,8.063,193.377z M203.04,247.378
			c7.192,13.538,14.385,27.076,21.582,40.622h5.293c-8.885-13.581-17.762-27.149-26.638-40.717
			C203.198,247.314,203.119,247.346,203.04,247.378z M0,183.236v0.395c1.076-0.343,2.153-0.685,3.23-1.027
			C2.142,182.773,1.069,182.994,0,183.236z M178.953,228.627c7.53,19.789,15.061,39.578,22.594,59.373h7.345
			c-9.906-19.837-19.803-39.656-29.696-59.468C179.115,228.564,179.034,228.596,178.953,228.627z M244.366,202.155
			c14.541,9.026,29.084,18.053,43.634,27.085v-4.482c-14.501-7.6-28.994-15.196-43.483-22.79
			C244.467,202.03,244.416,202.092,244.366,202.155z M157.564,249.923c1.309,12.689,2.618,25.383,3.928,38.077h3.775
			c-2.508-12.705-5.016-25.41-7.523-38.11C157.684,249.901,157.624,249.912,157.564,249.923z M278.494,159.386
			c3.168,0.489,6.338,0.978,9.506,1.467v-0.954c-3.148-0.248-6.299-0.496-9.448-0.743
			C278.533,159.232,278.513,159.309,278.494,159.386z M277.072,103.856c3.642-0.949,7.286-1.9,10.928-2.849v-0.884
			c-3.668,1.193-7.337,2.385-11.005,3.578C277.021,103.752,277.046,103.804,277.072,103.856z M258.172,194.977
			c9.941,4.92,19.885,9.841,29.828,14.762v-3.361c-9.895-3.873-19.792-7.746-29.683-11.617
			C258.269,194.833,258.221,194.905,258.172,194.977z M272.854,173.298c5.048,1.349,10.098,2.698,15.146,4.047v-1.408
			c-5.018-0.946-10.039-1.893-15.057-2.839C272.913,173.165,272.883,173.231,272.854,173.298z M213.396,203.066
			c24.858,22.524,49.723,45.055,74.604,67.599v-11.173c-24.823-18.876-49.626-37.737-74.416-56.588
			C213.522,202.958,213.459,203.012,213.396,203.066z M48.272,198.513C32.186,207.294,16.088,216.081,0,224.863v4.727
			c16.13-10.308,32.259-20.616,48.385-30.921C48.347,198.617,48.309,198.565,48.272,198.513z M51.944,186.104
			c-17.313,7.59-34.628,15.18-51.943,22.771v4.318c17.349-8.977,34.695-17.952,52.037-26.925
			C52.006,186.214,51.975,186.159,51.944,186.104z M44.411,221.225C29.61,232.222,14.808,243.22,0,254.223v5.799
			c14.883-12.879,29.751-25.744,44.617-38.609C44.548,221.35,44.48,221.288,44.411,221.225z M38.804,161.898
			c-0.273-0.085-0.536-0.076-0.796-0.039c-9.272,1.32-18.543,2.643-27.815,3.965c-3.398,0.485-6.796,0.969-10.194,1.454v3.056
			c5.541-1.194,11.083-2.386,16.622-3.588C24.019,165.143,31.41,163.515,38.804,161.898z M83.29,224.002
			C66.685,245.323,50.072,266.654,33.448,288h7.368c14.24-21.306,28.473-42.6,42.702-63.889
			C83.441,224.075,83.366,224.038,83.29,224.002z M92.829,288h3.91c3.345-12.199,6.691-24.398,10.035-36.593
			c-0.062-0.023-0.123-0.046-0.185-0.07C102.004,263.556,97.417,275.778,92.829,288z M129.994,288h3.954
			c0.351-14.614,0.702-29.221,1.053-43.824c-0.058,0.001-0.116,0.003-0.174,0.004C133.217,258.784,131.605,273.391,129.994,288z
			 M145.225,37.105c0.693-6.771,1.229-13.534,1.766-20.297c0.445-5.603,0.89-11.205,1.335-16.808h-3.514
			C144.95,12.368,145.087,24.737,145.225,37.105z M68.651,288h4.037c5.644-12.757,11.285-25.509,16.925-38.257
			c-0.08-0.023-0.16-0.047-0.24-0.07C82.466,262.447,75.559,275.223,68.651,288z"/>
	</g>
	<g>
		<polygon style="fill:#060606;" points="220.067,117.712 66.996,145.159 66.996,106.433 220.067,78.985 		"/>
		<g>
			<path style="fill:#FFFFFF;" d="M94.135,121.005c0,2.256,0.22,3.823,0.661,4.7c0.44,0.877,1.165,1.225,2.173,1.044
				c1.007-0.181,2.431-0.678,4.27-1.492l0.982,5.216c-1.99,1.096-3.993,1.825-6.008,2.187c-3.022,0.542-5.22-0.077-6.593-1.858
				c-1.373-1.781-2.059-4.679-2.059-8.694c0-4.016,0.718-7.216,2.153-9.603c1.436-2.386,3.779-3.87,7.028-4.453
				c1.914-0.343,3.741-0.263,5.479,0.241l-1.02,6.11c-1.965-0.311-3.338-0.396-4.119-0.256c-1.109,0.199-1.877,0.828-2.305,1.886
				C94.348,117.092,94.135,118.749,94.135,121.005z"/>
			<path style="fill:#FFFFFF;" d="M105.224,109.398c1.449-2.171,3.822-3.553,7.123-4.145c3.299-0.592,5.661-0.072,7.085,1.559
				c1.422,1.632,2.134,4.569,2.134,8.814c0,4.245-0.73,7.519-2.191,9.82c-1.462,2.302-3.83,3.746-7.104,4.333
				c-3.274,0.587-5.63,0.002-7.066-1.754c-1.436-1.756-2.153-4.757-2.153-9.002S103.775,111.57,105.224,109.398z M114.519,112.149
				c-0.365-0.763-1.109-1.044-2.229-0.843c-1.121,0.201-1.846,0.746-2.173,1.633c-0.327,0.887-0.491,2.491-0.491,4.811v0.918
				c0,2.473,0.183,4.065,0.548,4.777c0.365,0.713,1.108,0.968,2.229,0.767c1.121-0.201,1.845-0.7,2.172-1.499
				c0.328-0.798,0.491-2.357,0.491-4.677v-1.224C115.067,114.467,114.884,112.912,114.519,112.149z"/>
			<path style="fill:#FFFFFF;" d="M146.844,123.198l-5.932,1.064v-12.39l-0.34,0.061l-2.229,12.79l-6.083,1.09l-2.116-12.01
				l-0.378,0.067v12.39l-5.856,1.05l0.794-23.89l8.501-1.524l2.116,12.469l0.302-0.054l2.04-13.214l8.388-1.504L146.844,123.198z"/>
			<path style="fill:#FFFFFF;" d="M156.743,121.423l-6.423,1.152V98.827l6.423-1.152V121.423z"/>
			<path style="fill:#FFFFFF;" d="M177.563,117.689l-6.197,1.111l-4.874-10.178l-0.303,0.054v11.052l-5.743,1.03V97.011l6.386-1.145
				l4.647,10.563l0.302-0.055V94.978l5.781-1.037V117.689z"/>
			<path style="fill:#FFFFFF;" d="M195.019,97.886c-2.418-0.306-4.188-0.358-5.309-0.157c-1.121,0.201-1.889,0.835-2.305,1.905
				c-0.416,1.069-0.623,2.68-0.623,4.834c0,2.155,0.194,3.688,0.585,4.599c0.39,0.912,1.19,1.259,2.399,1.042
				c0.353-0.063,1.033-0.287,2.041-0.672v-2.906l-1.701,0.305v-4.513l7.217-1.294v13.117l-4.458,0.799l-0.605-1.115l-0.151,0.027
				c-0.429,0.435-0.769,0.763-1.02,0.986c-0.706,0.662-1.7,1.107-2.985,1.338c-5.265,0.944-7.897-2.612-7.897-10.668
				c0-4.028,0.692-7.23,2.078-9.608c1.385-2.377,3.715-3.859,6.99-4.446c2.62-0.47,4.875-0.466,6.764,0.011L195.019,97.886z"/>
		</g>
		<g>
			<path style="fill:#060606;" d="M70.927,151.436c2.669-3.285,6.327-5.344,10.975-6.177c4.646-0.833,9.408-1.219,14.287-1.159
				l-1.54,12.748c-5.083-0.283-8.575-0.255-10.475,0.085c-2.414,0.433-3.619,1.637-3.619,3.611c0,0.78,0.578,1.43,1.732,1.95
				c1.155,0.52,2.554,1.036,4.198,1.546c1.643,0.512,3.285,1.178,4.929,2c1.642,0.823,3.042,2.17,4.197,4.041
				c1.155,1.872,1.733,4.159,1.733,6.86c0,4.938-1.309,8.992-3.928,12.163c-2.619,3.172-6.329,5.188-11.129,6.048
				c-4.801,0.861-9.486,0.947-14.056,0.26l0.847-11.766c5.494,0.627,9.319,0.746,11.476,0.359c2.156-0.387,3.234-1.541,3.234-3.464
				c0-0.986-0.578-1.792-1.732-2.417c-1.156-0.623-2.555-1.205-4.198-1.741c-1.644-0.536-3.3-1.202-4.968-1.994
				c-1.669-0.792-3.081-2.123-4.236-3.995c-1.155-1.871-1.733-4.236-1.733-7.094C66.922,158.676,68.256,154.721,70.927,151.436z"/>
			<path style="fill:#060606;" d="M104.852,146.99c2.952-4.427,7.791-7.243,14.518-8.449c6.726-1.206,11.539-0.146,14.44,3.179
				c2.9,3.326,4.352,9.314,4.352,17.966c0,8.652-1.49,15.324-4.467,20.015c-2.979,4.692-7.805,7.635-14.479,8.832
				c-6.675,1.197-11.476,0.005-14.402-3.575c-2.926-3.58-4.39-9.697-4.39-18.349C100.424,157.956,101.899,151.417,104.852,146.99z
				 M123.798,152.596c-0.745-1.554-2.26-2.128-4.544-1.718c-2.285,0.41-3.762,1.52-4.429,3.327
				c-0.668,1.809-1.001,5.078-1.001,9.806v1.871c0,5.041,0.372,8.287,1.117,9.738c0.744,1.453,2.259,1.972,4.544,1.563
				c2.284-0.41,3.761-1.427,4.428-3.054c0.668-1.626,1.002-4.804,1.002-9.534V162.1C124.915,157.32,124.542,154.152,123.798,152.596
				z"/>
			<path style="fill:#060606;" d="M146.287,139.56c2.952-4.427,7.79-7.243,14.518-8.45c6.726-1.206,11.539-0.145,14.441,3.179
				c2.9,3.326,4.351,9.314,4.351,17.966c0,8.652-1.49,15.324-4.467,20.015c-2.978,4.692-7.805,7.636-14.48,8.833
				c-6.675,1.197-11.476,0.005-14.402-3.575c-2.927-3.58-4.39-9.697-4.39-18.349C141.858,150.527,143.334,143.987,146.287,139.56z
				 M165.233,145.166c-0.745-1.555-2.26-2.128-4.544-1.718c-2.285,0.41-3.762,1.52-4.428,3.327
				c-0.667,1.809-1.001,5.078-1.001,9.806v1.871c0,5.041,0.372,8.287,1.117,9.737c0.744,1.453,2.258,1.973,4.544,1.563
				c2.284-0.41,3.761-1.427,4.428-3.054c0.667-1.627,1.001-4.804,1.001-9.534v-2.494C166.35,149.89,165.976,146.722,165.233,145.166
				z"/>
			<path style="fill:#060606;" d="M219.723,169.731l-12.631,2.265l-9.935-20.745l-0.616,0.11v22.527l-11.707,2.099v-48.405
				l13.016-2.334l9.473,21.529l0.616-0.11v-23.228l11.784-2.113V169.731z"/>
		</g>
		<polygon style="fill:#FFFFFF;" points="198.731,201.786 88.331,221.583 88.331,200.12 198.731,180.324 		"/>
		<g>
			<path style="fill:#060606;" d="M106.3,203.078c0.591-0.727,1.402-1.184,2.432-1.369c1.03-0.184,2.084-0.27,3.166-0.256
				l-0.341,2.824c-1.126-0.063-1.9-0.056-2.321,0.019c-0.535,0.096-0.802,0.363-0.802,0.8c0,0.172,0.128,0.317,0.384,0.432
				c0.256,0.116,0.566,0.23,0.93,0.343c0.364,0.114,0.728,0.261,1.092,0.443c0.364,0.183,0.674,0.481,0.93,0.896
				c0.256,0.415,0.384,0.921,0.384,1.52c0,1.094-0.29,1.992-0.87,2.694c-0.58,0.703-1.402,1.15-2.466,1.341
				c-1.064,0.19-2.102,0.21-3.114,0.058l0.188-2.607c1.217,0.138,2.065,0.165,2.543,0.079c0.478-0.085,0.717-0.341,0.717-0.767
				c0-0.219-0.128-0.398-0.384-0.536c-0.256-0.138-0.566-0.267-0.93-0.386c-0.364-0.119-0.731-0.266-1.101-0.441
				c-0.37-0.176-0.682-0.471-0.938-0.886c-0.256-0.415-0.384-0.938-0.384-1.572C105.413,204.683,105.708,203.806,106.3,203.078z"/>
			<path style="fill:#060606;" d="M119.338,202.589l-1.98,0.356v8.117l-2.918,0.523v-8.117l-2.1,0.376l0.171-2.639l6.996-1.254
				L119.338,202.589z"/>
			<path style="fill:#060606;" d="M127.785,209.191l-2.85,0.511l-0.324-1.634l-2.014,0.361l-0.324,1.75l-2.713,0.487l1.945-11.074
				l4.334-0.777L127.785,209.191z M124.286,206.105l-0.597-3.727l-0.12,0.022l-0.598,3.941L124.286,206.105z"/>
			<path style="fill:#060606;" d="M135.839,197.022l-2.526,7.862v3.316l-2.901,0.521v-3.316l-2.492-6.962l3.209-0.575l0.768,3.351
				l0.136-0.025l0.734-3.62L135.839,197.022z"/>
			<path style="fill:#060606;" d="M146.333,197.748l-1.979,0.355v8.117l-2.918,0.523v-8.117l-2.099,0.376l0.171-2.639l6.996-1.254
				L146.333,197.748z"/>
			<path style="fill:#060606;" d="M150.377,202.411c0.148,0.146,0.39,0.189,0.725,0.129c0.336-0.06,0.569-0.185,0.7-0.376
				c0.131-0.19,0.196-0.476,0.196-0.855v-7.185l2.936-0.527v7.357c0,1.232-0.333,2.19-0.999,2.874
				c-0.666,0.683-1.644,1.141-2.935,1.372c-1.291,0.232-2.252,0.125-2.884-0.321c-0.632-0.445-0.947-1.278-0.947-2.499v-7.392
				l2.986-0.536v7.202C150.156,202.014,150.23,202.265,150.377,202.411z"/>
			<path style="fill:#060606;" d="M164.166,202.668l-2.799,0.502l-2.202-4.597l-0.137,0.024v4.991l-2.594,0.465v-10.725l2.884-0.517
				l2.099,4.77l0.137-0.024v-5.146l2.611-0.468V202.668z"/>
			<path style="fill:#060606;" d="M171.401,201.37l-5.734,1.028v-10.725l5.905-1.059l-0.171,2.673l-2.815,0.505v1.606l2.44-0.438
				v2.28l-2.44,0.438v1.779l2.986-0.536L171.401,201.37z"/>
			<path style="fill:#060606;" d="M180.445,194.153c0,3.73-1.456,5.856-4.369,6.379l-3.516,0.63v-10.725l3.584-0.643
				c1.558-0.279,2.665-0.037,3.319,0.726C180.117,191.284,180.445,192.495,180.445,194.153z M177.194,197.197
				c0.176-0.463,0.265-1.205,0.265-2.224c0-1.019-0.094-1.725-0.281-2.117c-0.188-0.393-0.589-0.534-1.204-0.423l-0.512,0.092v5.63
				l0.563-0.101C176.628,197.946,177.018,197.66,177.194,197.197z"/>
		</g>
	</g>
	<polygon style="fill:#060606;" points="210.35,73.632 238.954,33.924 257.462,35.27 	"/>
	<polygon style="fill:#060606;" points="221.677,72.057 252.663,54.063 257.782,66.264 	"/>
	<polygon style="fill:#FFFFFF;" points="82.459,206.555 53.855,246.263 35.347,244.917 	"/>
	<polygon style="fill:#FFFFFF;" points="71.133,208.13 40.147,226.124 35.028,213.923 	"/>
	<path style="fill:#060606;" d="M47.985,103.112"/>
	<g>
		<path style="fill:#FFFFFF;" d="M54.208,101.39c-0.237,0-0.448-0.17-0.492-0.411c-0.049-0.272,0.132-0.532,0.403-0.581
			l98.935-17.835c0.276-0.049,0.531,0.132,0.581,0.404c0.049,0.272-0.132,0.532-0.403,0.581l-98.934,17.835
			C54.267,101.387,54.238,101.39,54.208,101.39z"/>
	</g>
	<g>
		<path style="fill:#060606;" d="M106.368,83.891c-0.237,0-0.448-0.169-0.492-0.411c-0.049-0.272,0.132-0.532,0.403-0.581
			l98.935-17.835c0.277-0.05,0.532,0.132,0.581,0.404c0.049,0.272-0.132,0.532-0.403,0.581l-98.935,17.835
			C106.427,83.889,106.397,83.891,106.368,83.891z"/>
	</g>
	<g>
		<path style="fill:#FFFFFF;" d="M134.298,222.198c-0.237,0-0.448-0.169-0.492-0.411c-0.049-0.272,0.132-0.532,0.403-0.581
			l98.934-17.835c0.273-0.048,0.532,0.132,0.581,0.404c0.049,0.272-0.132,0.532-0.403,0.581l-98.935,17.835
			C134.357,222.195,134.327,222.198,134.298,222.198z"/>
	</g>
</g>
</svg>
