<svg width="183" height="41" viewBox="0 0 183 41" fill="none" xmlns="http://www.w3.org/2000/svg">
<path d="M70.246 6.3573L70.246 28.9092" stroke="white"/>
<path d="M81 0.690796L171 0.690796" stroke="white"/>
<line y1="-0.5" x2="30.3737" y2="-0.5" transform="matrix(-0.369835 0.929097 -0.937395 -0.348269 81 0.690796)" stroke="white"/>
<path d="M1.40625 29.6908V7.87261H16.7472V12.6453H7.32955V16.3953H15.8097V21.1681H7.32955V29.6908H1.40625ZM25.6934 29.9891C23.9178 29.9891 22.3979 29.6375 21.1337 28.9344C19.8695 28.2242 18.9 27.237 18.2253 25.9728C17.5506 24.7014 17.2132 23.2277 17.2132 21.5516C17.2132 19.8755 17.5506 18.4053 18.2253 17.1411C18.9 15.8698 19.8695 14.8826 21.1337 14.1794C22.3979 13.4692 23.9178 13.1141 25.6934 13.1141C27.4689 13.1141 28.9888 13.4692 30.253 14.1794C31.5172 14.8826 32.4867 15.8698 33.1614 17.1411C33.8361 18.4053 34.1735 19.8755 34.1735 21.5516C34.1735 23.2277 33.8361 24.7014 33.1614 25.9728C32.4867 27.237 31.5172 28.2242 30.253 28.9344C28.9888 29.6375 27.4689 29.9891 25.6934 29.9891ZM25.736 25.6425C26.2331 25.6425 26.6628 25.4756 27.025 25.1418C27.3873 24.808 27.6678 24.3321 27.8667 23.7142C28.0655 23.0963 28.165 22.3613 28.165 21.509C28.165 20.6496 28.0655 19.9145 27.8667 19.3037C27.6678 18.6858 27.3873 18.21 27.025 17.8762C26.6628 17.5424 26.2331 17.3755 25.736 17.3755C25.2104 17.3755 24.7594 17.5424 24.383 17.8762C24.0066 18.21 23.7189 18.6858 23.5201 19.3037C23.3212 19.9145 23.2218 20.6496 23.2218 21.509C23.2218 22.3613 23.3212 23.0963 23.5201 23.7142C23.7189 24.3321 24.0066 24.808 24.383 25.1418C24.7594 25.4756 25.2104 25.6425 25.736 25.6425ZM46.3184 13.3272V17.5885H35.5371V13.3272H46.3184ZM37.6252 9.4067H43.5059V24.428C43.5059 24.6553 43.5449 24.847 43.623 25.0033C43.7012 25.1524 43.8219 25.2661 43.9853 25.3442C44.1486 25.4152 44.3581 25.4507 44.6138 25.4507C44.7914 25.4507 44.9973 25.4294 45.2317 25.3868C45.4732 25.3442 45.6507 25.3087 45.7644 25.2803L46.6167 29.4138C46.3539 29.4919 45.9775 29.5878 45.4874 29.7014C45.0044 29.8151 44.4292 29.8897 43.7615 29.9252C42.4121 29.9962 41.2793 29.8577 40.3631 29.5097C39.4469 29.1546 38.758 28.597 38.2963 27.8371C37.8347 27.0772 37.611 26.1255 37.6252 24.982V9.4067ZM56.4258 29.9891C54.6502 29.9891 53.1303 29.6375 51.8661 28.9344C50.6019 28.2242 49.6325 27.237 48.9577 25.9728C48.283 24.7014 47.9457 23.2277 47.9457 21.5516C47.9457 19.8755 48.283 18.4053 48.9577 17.1411C49.6325 15.8698 50.6019 14.8826 51.8661 14.1794C53.1303 13.4692 54.6502 13.1141 56.4258 13.1141C58.2013 13.1141 59.7212 13.4692 60.9854 14.1794C62.2496 14.8826 63.2191 15.8698 63.8938 17.1411C64.5685 18.4053 64.9059 19.8755 64.9059 21.5516C64.9059 23.2277 64.5685 24.7014 63.8938 25.9728C63.2191 27.237 62.2496 28.2242 60.9854 28.9344C59.7212 29.6375 58.2013 29.9891 56.4258 29.9891ZM56.4684 25.6425C56.9656 25.6425 57.3952 25.4756 57.7575 25.1418C58.1197 24.808 58.4002 24.3321 58.5991 23.7142C58.7979 23.0963 58.8974 22.3613 58.8974 21.509C58.8974 20.6496 58.7979 19.9145 58.5991 19.3037C58.4002 18.6858 58.1197 18.21 57.7575 17.8762C57.3952 17.5424 56.9656 17.3755 56.4684 17.3755C55.9428 17.3755 55.4918 17.5424 55.1154 17.8762C54.739 18.21 54.4513 18.6858 54.2525 19.3037C54.0536 19.9145 53.9542 20.6496 53.9542 21.509C53.9542 22.3613 54.0536 23.0963 54.2525 23.7142C54.4513 24.3321 54.739 24.808 55.1154 25.1418C55.4918 25.4756 55.9428 25.6425 56.4684 25.6425Z" fill="white"/>
<path d="M90.3324 29.9891C88.5852 29.9891 87.0795 29.6553 85.8153 28.9877C84.5582 28.313 83.5888 27.347 82.907 26.0899C82.2322 24.8257 81.8949 23.313 81.8949 21.5516C81.8949 19.8613 82.2358 18.384 82.9176 17.1198C83.5994 15.8556 84.5618 14.8719 85.8047 14.1688C87.0476 13.4657 88.5142 13.1141 90.2045 13.1141C91.4403 13.1141 92.5589 13.3059 93.5604 13.6894C94.5618 14.0729 95.4176 14.6304 96.1278 15.362C96.8381 16.0864 97.3849 16.9671 97.7685 18.004C98.152 19.0409 98.3438 20.2093 98.3438 21.509V22.8726H83.7273V19.634H92.9318C92.9247 19.1652 92.804 18.7533 92.5696 18.3982C92.3423 18.036 92.0334 17.7554 91.6428 17.5566C91.2592 17.3506 90.8224 17.2476 90.3324 17.2476C89.8565 17.2476 89.4197 17.3506 89.022 17.5566C88.6243 17.7554 88.3047 18.0324 88.0632 18.3875C87.8288 18.7426 87.7045 19.1581 87.6903 19.634V23.1283C87.6903 23.6539 87.8004 24.1226 88.0206 24.5345C88.2408 24.9465 88.5568 25.2696 88.9688 25.504C89.3807 25.7384 89.8778 25.8556 90.4602 25.8556C90.8651 25.8556 91.2344 25.7988 91.5682 25.6851C91.9091 25.5715 92.2003 25.4081 92.4418 25.1951C92.6832 24.9749 92.8608 24.7121 92.9744 24.4067H98.3438C98.1591 25.5431 97.7223 26.5303 97.0334 27.3684C96.3445 28.1993 95.4318 28.8456 94.2955 29.3073C93.1662 29.7618 91.8452 29.9891 90.3324 29.9891ZM100.743 29.6908V13.3272H106.454V16.438H106.624C106.922 15.2874 107.395 14.4458 108.041 13.9131C108.694 13.3804 109.458 13.1141 110.331 13.1141C110.587 13.1141 110.839 13.1354 111.088 13.178C111.344 13.2135 111.589 13.2668 111.823 13.3378V18.3556C111.532 18.2561 111.173 18.1816 110.747 18.1318C110.321 18.0821 109.955 18.0573 109.65 18.0573C109.074 18.0573 108.556 18.1887 108.094 18.4514C107.64 18.7071 107.281 19.0693 107.018 19.5381C106.756 19.9997 106.624 20.5431 106.624 21.1681V29.6908H100.743ZM113.751 29.6908V13.3272H119.632V29.6908H113.751ZM116.692 11.6226C115.896 11.6226 115.214 11.3598 114.646 10.8343C114.078 10.3087 113.794 9.67659 113.794 8.93795C113.794 8.19932 114.078 7.56722 114.646 7.04165C115.214 6.51608 115.896 6.2533 116.692 6.2533C117.494 6.2533 118.176 6.51608 118.737 7.04165C119.305 7.56722 119.589 8.19932 119.589 8.93795C119.589 9.67659 119.305 10.3087 118.737 10.8343C118.176 11.3598 117.494 11.6226 116.692 11.6226ZM132.429 13.3272V17.5885H121.478V13.3272H132.429ZM123.566 29.6908V12.8584C123.566 11.509 123.807 10.3904 124.29 9.50258C124.773 8.6148 125.455 7.95074 126.336 7.5104C127.216 7.07006 128.253 6.84989 129.446 6.84989C130.192 6.84989 130.917 6.9067 131.62 7.02034C132.33 7.13398 132.855 7.23341 133.196 7.31864L132.344 11.5374C132.131 11.4735 131.882 11.4237 131.598 11.3882C131.314 11.3456 131.066 11.3243 130.853 11.3243C130.299 11.3243 129.926 11.4415 129.734 11.6759C129.542 11.9103 129.446 12.2192 129.446 12.6027V29.6908H123.566ZM134.699 29.6908V13.3272H140.579V29.6908H134.699ZM137.639 11.6226C136.843 11.6226 136.162 11.3598 135.593 10.8343C135.025 10.3087 134.741 9.67659 134.741 8.93795C134.741 8.19932 135.025 7.56722 135.593 7.04165C136.162 6.51608 136.843 6.2533 137.639 6.2533C138.441 6.2533 139.123 6.51608 139.684 7.04165C140.252 7.56722 140.537 8.19932 140.537 8.93795C140.537 9.67659 140.252 10.3087 139.684 10.8343C139.123 11.3598 138.441 11.6226 137.639 11.6226ZM151.416 29.9891C149.669 29.9891 148.164 29.6553 146.899 28.9877C145.642 28.313 144.673 27.347 143.991 26.0899C143.316 24.8257 142.979 23.313 142.979 21.5516C142.979 19.8613 143.32 18.384 144.002 17.1198C144.683 15.8556 145.646 14.8719 146.889 14.1688C148.132 13.4657 149.598 13.1141 151.289 13.1141C152.524 13.1141 153.643 13.3059 154.644 13.6894C155.646 14.0729 156.502 14.6304 157.212 15.362C157.922 16.0864 158.469 16.9671 158.852 18.004C159.236 19.0409 159.428 20.2093 159.428 21.509V22.8726H144.811V19.634H154.016C154.009 19.1652 153.888 18.7533 153.654 18.3982C153.426 18.036 153.117 17.7554 152.727 17.5566C152.343 17.3506 151.906 17.2476 151.416 17.2476C150.941 17.2476 150.504 17.3506 150.106 17.5566C149.708 17.7554 149.389 18.0324 149.147 18.3875C148.913 18.7426 148.789 19.1581 148.774 19.634V23.1283C148.774 23.6539 148.884 24.1226 149.105 24.5345C149.325 24.9465 149.641 25.2696 150.053 25.504C150.465 25.7384 150.962 25.8556 151.544 25.8556C151.949 25.8556 152.318 25.7988 152.652 25.6851C152.993 25.5715 153.284 25.4081 153.526 25.1951C153.767 24.9749 153.945 24.7121 154.058 24.4067H159.428C159.243 25.5431 158.806 26.5303 158.117 27.3684C157.428 28.1993 156.516 28.8456 155.379 29.3073C154.25 29.7618 152.929 29.9891 151.416 29.9891ZM161.827 29.6908V13.3272H167.538V16.438H167.708C168.006 15.2874 168.479 14.4458 169.125 13.9131C169.778 13.3804 170.542 13.1141 171.415 13.1141C171.671 13.1141 171.923 13.1354 172.172 13.178C172.428 13.2135 172.673 13.2668 172.907 13.3378V18.3556C172.616 18.2561 172.257 18.1816 171.831 18.1318C171.405 18.0821 171.039 18.0573 170.734 18.0573C170.158 18.0573 169.64 18.1887 169.178 18.4514C168.724 18.7071 168.365 19.0693 168.102 19.5381C167.839 19.9997 167.708 20.5431 167.708 21.1681V29.6908H161.827Z" fill="white"/>
</svg>
