<svg width="204" height="43" viewBox="0 0 204 43" fill="none" xmlns="http://www.w3.org/2000/svg">
<g clip-path="url(#clip0_361_2059)">
<path fill-rule="evenodd" clip-rule="evenodd" d="M239.834 42.693C237.489 42.615 205.507 68.941 203.25 74.831C202.718 76.219 207.185 81.698 208.973 81.711C211.686 81.732 240.812 54.4851 244.901 48.6301C245.835 47.2931 242.18 42.77 239.834 42.693Z" fill="#42535D"/>
<path fill-rule="evenodd" clip-rule="evenodd" d="M95.1811 24.6819C95.8971 23.9599 97.3441 22.4989 98.4211 23.3509C101.645 25.9019 105.695 29.2779 108.876 31.9559C114.681 36.8429 120.706 41.6919 126.105 47.0439C126.683 47.6169 131.639 51.5109 131.703 52.5919C131.783 53.9489 128.537 57.8039 127.765 58.5829C127.318 59.0339 123.594 62.2789 123.057 62.4339C121.688 62.8289 115.846 55.7829 114.97 54.9149L96.4971 36.6039C95.3721 35.4889 90.8821 30.7559 90.8061 29.4709C90.6681 27.0929 92.8231 27.0599 95.1811 24.6819Z" fill="#D88D3A"/>
<path fill-rule="evenodd" clip-rule="evenodd" d="M85.5738 33.6339C84.2458 32.9819 78.0018 39.2969 78.1118 41.1619C78.1808 42.3289 84.4158 47.9079 85.4218 48.9049C92.4978 55.9189 95.9428 59.3339 107.222 70.0169C109.599 72.3729 111.743 74.8129 113.358 74.3469C115.214 73.8109 120.003 68.6579 119.44 67.2019C118.877 65.7459 115.213 62.0899 112.693 59.5919C110.172 57.0939 86.9028 34.2849 85.5738 33.6339Z" fill="#939878"/>
<path fill-rule="evenodd" clip-rule="evenodd" d="M106.15 8.5151C108.52 8.4301 140.918 34.9531 143.216 40.9001C143.757 42.3011 139.257 47.8511 137.45 47.8701C134.707 47.8981 105.194 20.4371 101.045 14.5311C100.097 13.1821 103.779 8.6001 106.15 8.5151Z" fill="#42535D"/>
<path fill-rule="evenodd" clip-rule="evenodd" d="M86.888 -20.648C87.752 -19.797 89.5 -18.074 88.711 -17.014C86.349 -13.838 83.196 -9.86901 80.692 -6.75501C76.122 -1.07101 71.619 4.854 66.5 10.048C65.952 10.603 62.349 15.487 61.192 15.433C59.74 15.364 55.195 11.437 54.264 10.518C53.723 9.985 49.78 5.613 49.548 5.018C48.958 3.502 55.85 -1.97599 56.681 -2.818L74.197 -20.591C75.264 -21.673 79.826 -25.961 81.202 -25.896C83.748 -25.774 84.042 -23.453 86.888 -20.648Z" fill="#D88D3A"/>
<path fill-rule="evenodd" clip-rule="evenodd" d="M76.0882 -31.9941C76.6312 -33.3481 69.0752 -40.7791 67.0792 -40.8731C65.8302 -40.9321 60.5662 -34.8651 59.6122 -33.8981C52.9022 -27.0901 49.6352 -23.7751 39.4762 -12.8671C37.2222 -10.5801 34.8492 -8.55312 35.5462 -6.76411C36.3462 -4.70811 42.4742 1.0259 43.9762 0.586899C45.4772 0.1479 48.9772 -3.3741 51.3672 -5.7991C53.7572 -8.2241 75.5452 -30.6401 76.0882 -31.9941Z" fill="#939878"/>
<path fill-rule="evenodd" clip-rule="evenodd" d="M105.626 -7.01591C106.002 -4.45791 81.308 27.3481 75.174 29.1411C73.729 29.5631 67.208 24.0931 66.971 22.1491C66.611 19.1971 92.663 -9.4019 98.531 -13.1889C99.871 -14.0539 105.25 -9.57391 105.626 -7.01591Z" fill="#42535D"/>
<path fill-rule="evenodd" clip-rule="evenodd" d="M-0.724182 -24.5211C-1.51718 -25.3171 -3.12019 -26.9251 -4.30719 -25.9811C-7.85919 -23.1541 -12.3222 -19.4141 -15.8262 -16.4481C-22.2222 -11.0331 -28.8612 -5.66011 -34.8072 0.264887C-35.4442 0.899887 -40.9052 5.21488 -40.9722 6.40888C-41.0562 7.90688 -37.4612 12.1549 -36.6062 13.0129C-36.1102 13.5099 -31.9892 17.0819 -31.3962 17.2509C-29.8822 17.6839 -23.4522 9.88588 -22.4882 8.92388L-2.14218 -11.3521C-0.903183 -12.5861 4.04082 -17.8271 4.12082 -19.2461C4.26682 -21.8721 1.88582 -21.9021 -0.724182 -24.5211Z" fill="#D88D3A"/>
<path fill-rule="evenodd" clip-rule="evenodd" d="M9.91109 -14.6651C11.3761 -15.3881 18.2891 -8.43308 18.1741 -6.37308C18.1011 -5.08408 11.2321 1.09492 10.1251 2.19893C2.33109 9.96593 -1.4629 13.7469 -13.8869 25.5779C-16.5039 28.1869 -18.8649 30.8879 -20.6499 30.3779C-22.7009 29.7919 -28.0039 24.1159 -27.3869 22.5059C-26.7699 20.8969 -22.7339 16.8489 -19.9589 14.0819C-17.1829 11.3159 8.44509 -13.9411 9.91109 -14.6651Z" fill="#42535D"/>
<path fill-rule="evenodd" clip-rule="evenodd" d="M9.80616 21.1171C10.5972 20.3201 12.1952 18.7071 13.3852 19.6481C16.9452 22.4651 21.4172 26.1931 24.9302 29.1501C31.3402 34.5471 37.9942 39.9021 43.9562 45.8121C44.5942 46.4441 50.0672 50.7451 50.1372 51.9391C50.2262 53.4371 46.6422 57.6941 45.7892 58.5541C45.2952 59.0531 41.1832 62.6351 40.5902 62.8071C39.0782 63.2431 32.6272 55.4631 31.6602 54.5041L11.2602 34.2831C10.0182 33.0521 5.05917 27.8251 4.97517 26.4061C4.82317 23.7801 7.20316 23.7441 9.80616 21.1171Z" fill="#42535D"/>
<path fill-rule="evenodd" clip-rule="evenodd" d="M-0.801863 31.0031C-2.26886 30.2831 -9.16386 37.2571 -9.04286 39.3161C-8.96686 40.6051 -2.08085 46.7661 -0.970854 47.8671C6.84415 55.6121 10.6481 59.3841 23.1041 71.1811C25.7281 73.7821 28.0961 76.4771 29.8801 75.9621C31.9291 75.3711 37.2171 69.6801 36.5961 68.0721C35.9741 66.4651 31.9281 62.4281 29.1451 59.6691C26.3611 56.9101 0.665137 31.7221 -0.801863 31.0031Z" fill="#939878"/>
<path fill-rule="evenodd" clip-rule="evenodd" d="M21.9199 3.26487C24.5369 3.17087 60.3139 32.4589 62.8519 39.0269C63.4489 40.5739 58.4799 46.7029 56.4849 46.7239C53.4549 46.7549 20.8639 16.4299 16.2819 9.90788C15.2349 8.41788 19.3019 3.35887 21.9199 3.26487Z" fill="#D88D3A"/>
<path fill-rule="evenodd" clip-rule="evenodd" d="M241.267 -31.9941C241.81 -33.3481 234.254 -40.7791 232.258 -40.8731C231.009 -40.9321 225.744 -34.8651 224.791 -33.8981C218.081 -27.0901 214.814 -23.7751 204.655 -12.8671C202.401 -10.5801 200.028 -8.55312 200.724 -6.76411C201.525 -4.70811 207.653 1.0259 209.154 0.586899C210.656 0.1479 214.156 -3.3741 216.546 -5.7991C218.935 -8.2241 240.724 -30.6401 241.267 -31.9941Z" fill="#42535D"/>
<path fill-rule="evenodd" clip-rule="evenodd" d="M164.454 -24.5211C163.662 -25.3171 162.059 -26.9251 160.872 -25.9811C157.319 -23.1541 152.857 -19.4141 149.353 -16.4481C142.957 -11.0331 136.317 -5.66011 130.371 0.264887C129.735 0.899887 124.274 5.21488 124.207 6.40888C124.122 7.90688 127.718 12.1549 128.572 13.0129C129.068 13.5099 133.19 17.0819 133.783 17.2509C135.296 17.6839 141.727 9.88588 142.691 8.92388L163.036 -11.3521C164.275 -12.5861 169.22 -17.8271 169.299 -19.2461C169.445 -21.8721 167.065 -21.9021 164.454 -24.5211Z" fill="#D88D3A"/>
<path fill-rule="evenodd" clip-rule="evenodd" d="M175.089 -14.6651C176.555 -15.3881 183.468 -8.43308 183.352 -6.37308C183.28 -5.08408 176.411 1.09492 175.303 2.19893C167.51 9.96593 163.716 13.7469 151.292 25.5779C148.674 28.1869 146.314 30.8879 144.529 30.3779C142.478 29.7919 137.174 24.1159 137.792 22.5059C138.409 20.8969 142.444 16.8489 145.22 14.0819C147.996 11.3159 173.624 -13.9411 175.089 -14.6651Z" fill="#42535D"/>
<path fill-rule="evenodd" clip-rule="evenodd" d="M152.293 -42.3411C149.675 -42.4281 113.978 -13.0431 111.457 -6.4691C110.864 -4.91911 115.85 1.19589 117.845 1.21089C120.875 1.23389 153.384 -29.1781 157.948 -35.7131C158.991 -37.2061 154.911 -42.2541 152.293 -42.3411Z" fill="#42535D"/>
<path fill-rule="evenodd" clip-rule="evenodd" d="M174.985 21.1171C175.775 20.3201 177.374 18.7071 178.563 19.6481C182.124 22.4651 186.596 26.1931 190.108 29.1501C196.519 34.5471 203.173 39.9021 209.135 45.8121C209.773 46.4441 215.246 50.7451 215.316 51.9391C215.404 53.4371 211.82 57.6941 210.968 58.5541C210.474 59.0531 206.361 62.6351 205.769 62.8071C204.257 63.2431 197.806 55.4631 196.839 54.5041L176.438 34.2831C175.196 33.0521 170.238 27.8251 170.154 26.4061C170.001 23.7801 172.382 23.7441 174.985 21.1171Z" fill="#D88D3A"/>
<path fill-rule="evenodd" clip-rule="evenodd" d="M164.377 31.0031C162.909 30.2831 156.015 37.2571 156.136 39.3161C156.212 40.6051 163.097 46.7661 164.208 47.8671C172.022 55.6121 175.827 59.3841 188.282 71.1811C190.907 73.7821 193.275 76.4771 195.058 75.9621C197.108 75.3711 202.396 69.6801 201.775 68.0721C201.153 66.4651 197.107 62.4281 194.323 59.6691C191.54 56.9101 165.844 31.7221 164.377 31.0031Z" fill="#939878"/>
<path fill-rule="evenodd" clip-rule="evenodd" d="M187.098 3.26487C189.716 3.17087 225.492 32.4589 228.03 39.0269C228.628 40.5739 223.658 46.7029 221.663 46.7239C218.634 46.7549 186.042 16.4299 181.46 9.90788C180.414 8.41788 184.48 3.35887 187.098 3.26487Z" fill="#42535D"/>
</g>
<defs>
<clipPath id="clip0_361_2059">
<path d="M0 12C0 5.37258 5.37258 0 12 0H192C198.627 0 204 5.37258 204 12V43H0V12Z" fill="white"/>
</clipPath>
</defs>
</svg>
