<svg width="338" height="339" viewBox="0 0 338 339" fill="none" xmlns="http://www.w3.org/2000/svg">
<path d="M234.928 212.546C218.032 222.3 196.427 216.512 186.672 199.617L169.008 169.026L199.602 151.364C216.498 141.609 238.104 147.398 247.859 164.293C257.614 181.188 251.825 202.792 234.928 212.546Z" fill="url(#paint0_angular_173_40468)"/>
<path d="M103.088 125.505C119.984 115.751 141.59 121.54 151.345 138.435L169.008 169.026L138.414 186.687C121.518 196.442 99.9125 190.653 90.1573 173.758C80.4022 156.863 86.1913 135.26 103.088 125.505Z" fill="url(#paint1_angular_173_40468)"/>
<path d="M173.741 247.869C190.638 238.115 196.427 216.512 186.672 199.617L169.008 169.026L138.415 186.687C121.518 196.442 115.729 218.045 125.484 234.94C135.239 251.835 156.845 257.624 173.741 247.869Z" fill="url(#paint2_angular_173_40468)"/>
<path d="M164.275 90.1818C147.379 99.9361 141.59 121.54 151.345 138.435L169.008 169.026L199.602 151.364C216.498 141.61 222.287 120.006 212.532 103.111C202.777 86.2161 181.172 80.4274 164.275 90.1818Z" fill="url(#paint3_angular_173_40468)"/>
<path d="M240.47 154.385C235.801 171.807 217.891 182.147 200.467 177.478L168.918 169.025L177.372 137.479C182.04 120.056 199.95 109.717 217.374 114.385C234.799 119.053 245.139 136.962 240.47 154.385Z" fill="url(#paint4_angular_173_40468)"/>
<path d="M97.3656 183.666C102.034 166.243 119.944 155.904 137.368 160.572L168.918 169.025L160.464 200.572C155.795 217.995 137.885 228.334 120.461 223.666C103.037 218.997 92.6968 201.089 97.3656 183.666Z" fill="url(#paint5_angular_173_40468)"/>
<path d="M223.563 217.478C228.232 200.055 217.891 182.147 200.467 177.478L168.918 169.025L160.464 200.572C155.796 217.995 166.136 235.903 183.56 240.571C200.984 245.24 218.894 234.9 223.563 217.478Z" fill="url(#paint6_angular_173_40468)"/>
<path d="M114.273 120.573C109.604 137.996 119.944 155.904 137.368 160.572L168.918 169.025L177.371 137.479C182.04 120.056 171.7 102.148 154.276 97.4793C136.852 92.8109 118.942 103.15 114.273 120.573Z" fill="url(#paint7_angular_173_40468)"/>
<g style="mix-blend-mode:hard-light">
<path d="M162.852 271.434C140.904 258.763 133.384 230.701 146.056 208.755L169 169.018L208.74 191.96C230.688 204.631 238.208 232.693 225.536 254.639C212.865 276.585 184.8 284.105 162.852 271.434Z" fill="url(#paint8_angular_173_40468)"/>
<path d="M175.148 66.6016C197.096 79.2722 204.616 107.335 191.945 129.281L169 169.018L129.26 146.076C107.312 133.405 99.792 105.343 112.464 83.3964C125.135 61.4503 153.2 53.9309 175.148 66.6016Z" fill="url(#paint9_angular_173_40468)"/>
<path d="M83.371 225.55C105.319 238.22 133.384 230.701 146.056 208.755L169 169.018L129.259 146.076C107.311 133.405 79.2465 140.924 66.5748 162.87C53.9031 184.817 61.423 212.879 83.371 225.55Z" fill="url(#paint10_angular_173_40468)"/>
<path d="M254.629 112.486C232.681 99.8153 204.616 107.335 191.945 129.281L169 169.018L208.741 191.96C230.689 204.631 258.754 197.111 271.425 175.165C284.097 153.219 276.577 125.157 254.629 112.486Z" fill="url(#paint11_angular_173_40468)"/>
</g>
<g style="mix-blend-mode:exclusion">
<path d="M115.414 195.809C115.414 181.012 127.41 169.018 142.207 169.018L169 169.018V195.809C169 210.605 157.005 222.599 142.207 222.599C127.41 222.599 115.414 210.605 115.414 195.809Z" fill="url(#paint12_angular_173_40468)"/>
<path d="M222.587 142.227C222.587 157.023 210.591 169.018 195.793 169.018L169 169.018L169 142.227C169 127.431 180.996 115.436 195.793 115.436C210.591 115.436 222.587 127.431 222.587 142.227Z" fill="url(#paint13_angular_173_40468)"/>
<path d="M115.414 142.227C115.414 157.023 127.41 169.018 142.207 169.018H169V142.227C169 127.431 157.005 115.436 142.207 115.436C127.41 115.436 115.414 127.431 115.414 142.227Z" fill="url(#paint14_angular_173_40468)"/>
<path d="M222.587 195.809C222.587 181.012 210.591 169.018 195.793 169.018L169 169.018L169 195.809C169 210.605 180.996 222.6 195.793 222.6C210.591 222.6 222.587 210.605 222.587 195.809Z" fill="url(#paint15_angular_173_40468)"/>
</g>
<path d="M95.8139 233.91C89.561 210.576 103.406 186.592 126.738 180.341L169 169.018L180.32 211.26C186.574 234.599 172.722 258.588 149.386 264.841C126.054 271.092 102.067 257.244 95.8139 233.91Z" fill="url(#paint16_angular_173_40468)"/>
<path d="M242.186 104.125C248.439 127.46 234.594 151.443 211.262 157.695L169 169.018L157.68 126.775C151.426 103.437 165.278 79.4473 188.614 73.1949C211.946 66.9437 235.933 80.7912 242.186 104.125Z" fill="url(#paint17_angular_173_40468)"/>
<path d="M73.1701 149.409C79.423 172.743 103.406 186.592 126.738 180.341L169 169.018L157.68 126.775C151.426 103.437 127.434 89.5865 104.098 95.8389C80.7663 102.09 66.9171 126.075 73.1701 149.409Z" fill="url(#paint18_angular_173_40468)"/>
<path d="M264.83 188.626C258.577 165.292 234.594 151.443 211.262 157.695L169 169.018L180.32 211.26C186.574 234.599 210.566 248.449 233.902 242.197C257.234 235.945 271.083 211.96 264.83 188.626Z" fill="url(#paint19_angular_173_40468)"/>
<path d="M121.027 178.843C124.157 167.16 136.167 160.226 147.85 163.357L169.008 169.025L163.339 190.178C160.208 201.862 148.198 208.796 136.513 205.666C124.83 202.535 117.896 190.526 121.027 178.843Z" fill="url(#paint20_angular_173_40468)"/>
<path d="M216.989 159.208C213.858 170.891 201.849 177.824 190.165 174.694L169.008 169.025L174.676 147.873C177.807 136.189 189.818 129.255 201.502 132.385C213.185 135.516 220.119 147.525 216.989 159.208Z" fill="url(#paint21_angular_173_40468)"/>
<path d="M132.364 136.535C129.233 148.218 136.167 160.226 147.85 163.357L169.008 169.025L174.676 147.873C177.807 136.189 170.873 124.179 159.188 121.048C147.505 117.918 135.495 124.851 132.364 136.535Z" fill="url(#paint22_angular_173_40468)"/>
<path d="M205.651 201.516C208.782 189.833 201.849 177.824 190.165 174.694L169.008 169.025L163.339 190.178C160.208 201.862 167.143 213.872 178.827 217.003C190.51 220.133 202.52 213.2 205.651 201.516Z" fill="url(#paint23_angular_173_40468)"/>
<g style="mix-blend-mode:screen">
<path d="M189.76 192.427C182.298 194.426 174.627 189.998 172.628 182.536L169.007 169.026L182.519 165.405C189.982 163.406 197.652 167.834 199.652 175.296C201.651 182.758 197.223 190.428 189.76 192.427Z" fill="url(#paint24_angular_173_40468)"/>
<path d="M148.254 145.624C155.717 143.625 163.387 148.053 165.387 155.515L169.007 169.026L155.496 172.646C148.033 174.645 140.363 170.217 138.363 162.755C136.363 155.293 140.792 147.624 148.254 145.624Z" fill="url(#paint25_angular_173_40468)"/>
<path d="M162.736 199.667C170.199 197.668 174.627 189.998 172.628 182.536L169.007 169.026L155.495 172.646C148.033 174.645 143.604 182.315 145.604 189.777C147.603 197.239 155.274 201.667 162.736 199.667Z" fill="url(#paint26_angular_173_40468)"/>
<path d="M175.278 138.384C167.816 140.383 163.387 148.053 165.387 155.515L169.007 169.026L182.519 165.405C189.982 163.406 194.41 155.736 192.411 148.274C190.411 140.813 182.741 136.384 175.278 138.384Z" fill="url(#paint27_angular_173_40468)"/>
</g>
<g style="mix-blend-mode:multiply" opacity="0.6">
<path opacity="0.8" d="M151.644 172.576C152.776 168.351 157.119 165.843 161.345 166.975L168.996 169.025L166.946 176.675C165.813 180.901 161.47 183.408 157.245 182.276C153.019 181.144 150.512 176.801 151.644 172.576Z" fill="url(#paint28_angular_173_40468)"/>
<path opacity="0.8" d="M186.347 165.475C185.215 169.7 180.872 172.207 176.646 171.075L168.995 169.025L171.045 161.375C172.177 157.15 176.521 154.643 180.746 155.775C184.972 156.907 187.479 161.25 186.347 165.475Z" fill="url(#paint29_angular_173_40468)"/>
<path opacity="0.8" d="M155.744 157.275C154.612 161.5 157.119 165.843 161.345 166.975L168.996 169.025L171.046 161.375C172.178 157.15 169.67 152.807 165.445 151.675C161.219 150.543 156.876 153.05 155.744 157.275Z" fill="url(#paint30_angular_173_40468)"/>
<path opacity="0.8" d="M182.247 180.775C183.379 176.55 180.872 172.207 176.646 171.075L168.995 169.025L166.945 176.676C165.813 180.901 168.321 185.244 172.546 186.376C176.771 187.508 181.115 185 182.247 180.775Z" fill="url(#paint31_angular_173_40468)"/>
</g>
<ellipse cx="169.008" cy="169.026" rx="2.11959" ry="2.11941" fill="url(#paint32_linear_173_40468)"/>
<defs>
<radialGradient id="paint0_angular_173_40468" cx="0" cy="0" r="1" gradientUnits="userSpaceOnUse" gradientTransform="translate(217.265 181.955) rotate(-165.001) scale(49.959 49.9553)">
<stop stop-color="#01584B"/>
<stop offset="1" stop-color="#E2FFFB" stop-opacity="0"/>
</radialGradient>
<radialGradient id="paint1_angular_173_40468" cx="0" cy="0" r="1" gradientUnits="userSpaceOnUse" gradientTransform="translate(120.751 156.096) rotate(14.9988) scale(49.959 49.9553)">
<stop stop-color="#01584B"/>
<stop offset="1" stop-color="#E2FFFB" stop-opacity="0"/>
</radialGradient>
<radialGradient id="paint2_angular_173_40468" cx="0" cy="0" r="1" gradientUnits="userSpaceOnUse" gradientTransform="translate(156.078 217.278) rotate(-74.9988) scale(49.9553 49.959)">
<stop stop-color="#01584B"/>
<stop offset="1" stop-color="#E2FFFB" stop-opacity="0"/>
</radialGradient>
<radialGradient id="paint3_angular_173_40468" cx="0" cy="0" r="1" gradientUnits="userSpaceOnUse" gradientTransform="translate(181.938 120.773) rotate(105.001) scale(49.9553 49.959)">
<stop stop-color="#01584B"/>
<stop offset="1" stop-color="#E2FFFB" stop-opacity="0"/>
</radialGradient>
<radialGradient id="paint4_angular_173_40468" cx="0" cy="0" r="1" gradientUnits="userSpaceOnUse" gradientTransform="translate(208.921 145.932) rotate(150.002) scale(46.1903 46.1884)">
<stop stop-color="#01584B"/>
<stop offset="1" stop-color="#E2FFFB" stop-opacity="0"/>
</radialGradient>
<radialGradient id="paint5_angular_173_40468" cx="0" cy="0" r="1" gradientUnits="userSpaceOnUse" gradientTransform="translate(128.915 192.119) rotate(-29.9979) scale(46.1903 46.1884)">
<stop stop-color="#01584B"/>
<stop offset="1" stop-color="#E2FFFB" stop-opacity="0"/>
</radialGradient>
<radialGradient id="paint6_angular_173_40468" cx="0" cy="0" r="1" gradientUnits="userSpaceOnUse" gradientTransform="translate(192.014 209.025) rotate(-120.002) scale(46.1884 46.1903)">
<stop stop-color="#01584B"/>
<stop offset="1" stop-color="#E2FFFB" stop-opacity="0"/>
</radialGradient>
<radialGradient id="paint7_angular_173_40468" cx="0" cy="0" r="1" gradientUnits="userSpaceOnUse" gradientTransform="translate(145.822 129.026) rotate(59.9979) scale(46.1884 46.1903)">
<stop stop-color="#01584B"/>
<stop offset="1" stop-color="#E2FFFB" stop-opacity="0"/>
</radialGradient>
<radialGradient id="paint8_angular_173_40468" cx="0" cy="0" r="1" gradientUnits="userSpaceOnUse" gradientTransform="translate(185.796 231.697) rotate(-105.001) scale(64.8906 64.8954)">
<stop stop-color="#01584B"/>
<stop offset="1" stop-color="#E2FFFB" stop-opacity="0"/>
</radialGradient>
<radialGradient id="paint9_angular_173_40468" cx="0" cy="0" r="1" gradientUnits="userSpaceOnUse" gradientTransform="translate(152.204 106.339) rotate(74.9988) scale(64.8906 64.8954)">
<stop stop-color="#01584B"/>
<stop offset="1" stop-color="#E2FFFB" stop-opacity="0"/>
</radialGradient>
<radialGradient id="paint10_angular_173_40468" cx="0" cy="0" r="1" gradientUnits="userSpaceOnUse" gradientTransform="translate(106.315 185.813) rotate(-14.9988) scale(64.8954 64.8906)">
<stop stop-color="#01584B"/>
<stop offset="1" stop-color="#E2FFFB" stop-opacity="0"/>
</radialGradient>
<radialGradient id="paint11_angular_173_40468" cx="0" cy="0" r="1" gradientUnits="userSpaceOnUse" gradientTransform="translate(231.685 152.223) rotate(165.001) scale(64.8954 64.8906)">
<stop stop-color="#01584B"/>
<stop offset="1" stop-color="#E2FFFB" stop-opacity="0"/>
</radialGradient>
<radialGradient id="paint12_angular_173_40468" cx="0" cy="0" r="1" gradientUnits="userSpaceOnUse" gradientTransform="translate(142.207 195.809) rotate(-44.9975) scale(37.8896 37.8896)">
<stop stop-color="#01584B"/>
<stop offset="1" stop-color="#E2FFFB" stop-opacity="0"/>
</radialGradient>
<radialGradient id="paint13_angular_173_40468" cx="0" cy="0" r="1" gradientUnits="userSpaceOnUse" gradientTransform="translate(195.793 142.227) rotate(135.002) scale(37.8896 37.8896)">
<stop stop-color="#01584B"/>
<stop offset="1" stop-color="#E2FFFB" stop-opacity="0"/>
</radialGradient>
<radialGradient id="paint14_angular_173_40468" cx="0" cy="0" r="1" gradientUnits="userSpaceOnUse" gradientTransform="translate(142.207 142.227) rotate(44.9975) scale(37.8896 37.8896)">
<stop stop-color="#01584B"/>
<stop offset="1" stop-color="#E2FFFB" stop-opacity="0"/>
</radialGradient>
<radialGradient id="paint15_angular_173_40468" cx="0" cy="0" r="1" gradientUnits="userSpaceOnUse" gradientTransform="translate(195.793 195.809) rotate(-135.002) scale(37.8896)">
<stop stop-color="#01584B"/>
<stop offset="1" stop-color="#E2FFFB" stop-opacity="0"/>
</radialGradient>
<radialGradient id="paint16_angular_173_40468" cx="0" cy="0" r="1" gradientUnits="userSpaceOnUse" gradientTransform="translate(138.068 222.589) rotate(-59.9979) scale(61.8602 61.8628)">
<stop stop-color="#01584B"/>
<stop offset="1" stop-color="#E2FFFB" stop-opacity="0"/>
</radialGradient>
<radialGradient id="paint17_angular_173_40468" cx="0" cy="0" r="1" gradientUnits="userSpaceOnUse" gradientTransform="translate(199.932 115.446) rotate(120.002) scale(61.8602 61.8628)">
<stop stop-color="#01584B"/>
<stop offset="1" stop-color="#E2FFFB" stop-opacity="0"/>
</radialGradient>
<radialGradient id="paint18_angular_173_40468" cx="0" cy="0" r="1" gradientUnits="userSpaceOnUse" gradientTransform="translate(115.424 138.088) rotate(29.9979) scale(61.8629 61.8602)">
<stop stop-color="#01584B"/>
<stop offset="1" stop-color="#E2FFFB" stop-opacity="0"/>
</radialGradient>
<radialGradient id="paint19_angular_173_40468" cx="0" cy="0" r="1" gradientUnits="userSpaceOnUse" gradientTransform="translate(222.576 199.947) rotate(-150.002) scale(61.8628 61.8602)">
<stop stop-color="#01584B"/>
<stop offset="1" stop-color="#E2FFFB" stop-opacity="0"/>
</radialGradient>
<radialGradient id="paint20_angular_173_40468" cx="0" cy="0" r="1" gradientUnits="userSpaceOnUse" gradientTransform="translate(142.183 184.511) rotate(-29.9979) scale(30.9741 30.9728)">
<stop stop-color="#01584B"/>
<stop offset="1" stop-color="#E2FFFB" stop-opacity="0"/>
</radialGradient>
<radialGradient id="paint21_angular_173_40468" cx="0" cy="0" r="1" gradientUnits="userSpaceOnUse" gradientTransform="translate(195.833 153.539) rotate(150.002) scale(30.9741 30.9728)">
<stop stop-color="#01584B"/>
<stop offset="1" stop-color="#E2FFFB" stop-opacity="0"/>
</radialGradient>
<radialGradient id="paint22_angular_173_40468" cx="0" cy="0" r="1" gradientUnits="userSpaceOnUse" gradientTransform="translate(153.52 142.203) rotate(59.9979) scale(30.9728 30.9741)">
<stop stop-color="#01584B"/>
<stop offset="1" stop-color="#E2FFFB" stop-opacity="0"/>
</radialGradient>
<radialGradient id="paint23_angular_173_40468" cx="0" cy="0" r="1" gradientUnits="userSpaceOnUse" gradientTransform="translate(184.495 195.848) rotate(-120.002) scale(30.9728 30.9741)">
<stop stop-color="#01584B"/>
<stop offset="1" stop-color="#E2FFFB" stop-opacity="0"/>
</radialGradient>
<radialGradient id="paint24_angular_173_40468" cx="0" cy="0" r="1" gradientUnits="userSpaceOnUse" gradientTransform="translate(186.14 178.916) rotate(-150.002) scale(19.7824 19.7816)">
<stop stop-color="white"/>
<stop offset="1" stop-color="#171717" stop-opacity="0.74"/>
</radialGradient>
<radialGradient id="paint25_angular_173_40468" cx="0" cy="0" r="1" gradientUnits="userSpaceOnUse" gradientTransform="translate(151.875 159.135) rotate(29.9979) scale(19.7824 19.7816)">
<stop stop-color="white"/>
<stop offset="1" stop-color="#171717" stop-opacity="0.74"/>
</radialGradient>
<radialGradient id="paint26_angular_173_40468" cx="0" cy="0" r="1" gradientUnits="userSpaceOnUse" gradientTransform="translate(159.116 186.157) rotate(-59.9979) scale(19.7816 19.7824)">
<stop stop-color="white"/>
<stop offset="1" stop-color="#171717" stop-opacity="0.74"/>
</radialGradient>
<radialGradient id="paint27_angular_173_40468" cx="0" cy="0" r="1" gradientUnits="userSpaceOnUse" gradientTransform="translate(178.899 151.895) rotate(120.002) scale(19.7816 19.7824)">
<stop stop-color="white"/>
<stop offset="1" stop-color="#171717" stop-opacity="0.74"/>
</radialGradient>
<radialGradient id="paint28_angular_173_40468" cx="0" cy="0" r="1" gradientUnits="userSpaceOnUse" gradientTransform="translate(159.295 174.626) rotate(-29.9979) scale(11.2014 11.2009)">
<stop stop-color="white"/>
<stop offset="1" stop-color="#171717" stop-opacity="0.74"/>
</radialGradient>
<radialGradient id="paint29_angular_173_40468" cx="0" cy="0" r="1" gradientUnits="userSpaceOnUse" gradientTransform="translate(178.696 163.425) rotate(150.002) scale(11.2014 11.2009)">
<stop stop-color="white"/>
<stop offset="1" stop-color="#171717" stop-opacity="0.74"/>
</radialGradient>
<radialGradient id="paint30_angular_173_40468" cx="0" cy="0" r="1" gradientUnits="userSpaceOnUse" gradientTransform="translate(163.395 159.325) rotate(59.9979) scale(11.2009 11.2014)">
<stop stop-color="white"/>
<stop offset="1" stop-color="#171717" stop-opacity="0.74"/>
</radialGradient>
<radialGradient id="paint31_angular_173_40468" cx="0" cy="0" r="1" gradientUnits="userSpaceOnUse" gradientTransform="translate(174.596 178.725) rotate(-120.002) scale(11.2009 11.2014)">
<stop stop-color="white"/>
<stop offset="1" stop-color="#171717" stop-opacity="0.74"/>
</radialGradient>
<linearGradient id="paint32_linear_173_40468" x1="169.1" y1="171.007" x2="169.008" y2="168.084" gradientUnits="userSpaceOnUse">
<stop stop-color="#949494"/>
<stop offset="1" stop-color="#ECECEC"/>
</linearGradient>
</defs>
</svg>
