<svg width="452" height="222" viewBox="0 0 452 222" fill="none" xmlns="http://www.w3.org/2000/svg">
<path d="M30.7729 85.3236C30.7729 85.3236 9.82089 128.635 47.6915 157.449C85.5622 186.262 147.74 193.484 147.74 193.484" stroke="white"/>
<path d="M30.7729 85.3236C30.7729 85.3236 85.7912 58.3851 116.141 94.1531C146.49 129.921 147.74 193.484 147.74 193.484" stroke="white"/>
<line y1="-0.5" x2="99.6433" y2="-0.5" transform="matrix(-0.702393 -0.711789 0.764274 -0.644891 147.402 192.911)" stroke="white"/>
<path d="M296.773 79.3236C296.773 79.3236 275.821 122.635 313.692 151.449C351.562 180.262 413.74 187.484 413.74 187.484" stroke="white"/>
<path d="M296.773 79.3236C296.773 79.3236 351.791 52.3851 382.141 88.1531C412.49 123.921 413.74 187.484 413.74 187.484" stroke="white"/>
<line y1="-0.5" x2="99.6433" y2="-0.5" transform="matrix(-0.702393 -0.711789 0.764274 -0.644891 413.402 186.911)" stroke="white"/>
<path d="M245.021 179.717C245.021 179.717 198.352 191.419 177.847 148.478C157.341 105.538 162.92 43.1904 162.92 43.1904" stroke="white"/>
<path d="M245.021 179.717C245.021 179.717 282.59 131.33 253.744 94.3383C224.899 57.3464 162.92 43.1904 162.92 43.1904" stroke="white"/>
<line y1="-0.5" x2="99.6433" y2="-0.5" transform="matrix(0.553999 0.832517 0.786896 -0.617085 163.412 43.6388)" stroke="white"/>
<path d="M238.663 173.587C238.663 173.587 198.779 183.588 181.255 146.891C163.73 110.193 168.498 56.9107 168.498 56.9107" stroke="white"/>
<path d="M238.663 173.587C238.663 173.587 270.769 132.236 246.118 100.622C221.466 69.0085 168.498 56.9107 168.498 56.9107" stroke="white"/>
<line y1="-0.5" x2="85.1559" y2="-0.5" transform="matrix(0.553999 0.832517 0.786896 -0.617085 168.918 57.2939)" stroke="white"/>
</svg>
