<svg width="810" height="66" viewBox="0 0 810 66" fill="none" xmlns="http://www.w3.org/2000/svg">
<path d="M1 15C1 7.26801 7.26801 1 15 1H137V61H15C7.26801 61 1 54.732 1 47V15Z" fill="white"/>
<path d="M1 15C1 7.26801 7.26801 1 15 1H137V61H15C7.26801 61 1 54.732 1 47V15Z" stroke="#E8E8E8" stroke-width="2"/>
<path d="M21.02 38.22C20.0333 38.22 19.1933 37.9733 18.5 37.48C17.82 36.9867 17.3067 36.26 16.96 35.3C16.6133 34.34 16.44 33.1733 16.44 31.8C16.44 30.4533 16.6133 29.3067 16.96 28.36C17.3067 27.4 17.82 26.6667 18.5 26.16C19.1933 25.6533 20.0333 25.4 21.02 25.4C22.02 25.4 22.86 25.6533 23.54 26.16C24.22 26.6667 24.7333 27.4 25.08 28.36C25.44 29.3067 25.62 30.4533 25.62 31.8C25.62 33.1733 25.44 34.34 25.08 35.3C24.7333 36.26 24.22 36.9867 23.54 37.48C22.86 37.9733 22.02 38.22 21.02 38.22ZM21.02 36.6C21.5667 36.6 22.0333 36.42 22.42 36.06C22.8067 35.7 23.1067 35.1667 23.32 34.46C23.5333 33.74 23.64 32.8467 23.64 31.78C23.64 30.78 23.5333 29.9267 23.32 29.22C23.1067 28.5133 22.8067 27.9733 22.42 27.6C22.0333 27.2133 21.5667 27.02 21.02 27.02C20.4733 27.02 20 27.2133 19.6 27.6C19.2133 27.9733 18.92 28.5133 18.72 29.22C18.52 29.9267 18.42 30.78 18.42 31.78C18.42 32.8467 18.52 33.74 18.72 34.46C18.92 35.1667 19.2133 35.7 19.6 36.06C20 36.42 20.4733 36.6 21.02 36.6ZM27.98 28.74H30.04L30 31.38L29.76 31.16C29.8267 30.76 29.9533 30.4 30.14 30.08C30.3267 29.7467 30.5533 29.4667 30.82 29.24C31.1 29.0133 31.4067 28.84 31.74 28.72C32.0733 28.5867 32.42 28.52 32.78 28.52C33.2867 28.52 33.7467 28.6067 34.16 28.78C34.5733 28.9533 34.9467 29.2133 35.28 29.56L34.44 31.2L34.36 31.38L34.2 31.3C34.16 31.1933 34.12 31.0867 34.08 30.98C34.04 30.8733 33.94 30.7467 33.78 30.6C33.58 30.4667 33.38 30.3667 33.18 30.3C32.9933 30.2333 32.7733 30.2 32.52 30.2C32.2 30.2 31.8867 30.26 31.58 30.38C31.2867 30.4867 31.02 30.66 30.78 30.9C30.54 31.14 30.3467 31.4467 30.2 31.82C30.0667 32.18 30 32.62 30 33.14V38.02H27.98V28.74ZM37.8 38V36.42H40.1V30.32H37.9V28.74H42.1V36.42H44.2V38H37.8ZM40.98 27.08C40.62 27.08 40.3133 26.96 40.06 26.72C39.82 26.4667 39.7 26.1733 39.7 25.84C39.7 25.48 39.82 25.18 40.06 24.94C40.3 24.7 40.6067 24.58 40.98 24.58C41.3267 24.58 41.6267 24.7067 41.88 24.96C42.1467 25.2133 42.28 25.5067 42.28 25.84C42.28 26.1733 42.1467 26.4667 41.88 26.72C41.6267 26.96 41.3267 27.08 40.98 27.08ZM50.82 41.52C50.18 41.52 49.6 41.4667 49.08 41.36C48.56 41.2533 48.1133 41.0933 47.74 40.88C47.38 40.68 47.1067 40.4267 46.92 40.12C46.7333 39.8267 46.64 39.4933 46.64 39.12C46.64 38.7733 46.72 38.46 46.88 38.18C47.04 37.9 47.2533 37.66 47.52 37.46C47.7867 37.2467 48.08 37.0867 48.4 36.98L49.28 37.38C49.0667 37.5133 48.88 37.6467 48.72 37.78C48.56 37.9133 48.4333 38.06 48.34 38.22C48.26 38.3933 48.22 38.5933 48.22 38.82C48.22 39.02 48.2867 39.1933 48.42 39.34C48.5533 39.4867 48.74 39.6067 48.98 39.7C49.22 39.7933 49.5067 39.8667 49.84 39.92C50.1733 39.9733 50.5467 40 50.96 40C51.5067 40 51.96 39.9467 52.32 39.84C52.68 39.7467 52.9467 39.6067 53.12 39.42C53.3067 39.2333 53.4 39.02 53.4 38.78C53.4 38.54 53.3467 38.3467 53.24 38.2C53.1333 38.0667 52.9333 37.9667 52.64 37.9C52.3467 37.82 51.92 37.78 51.36 37.78C50.9067 37.78 50.4733 37.7667 50.06 37.74C49.66 37.7 49.2867 37.6333 48.94 37.54C48.6067 37.4467 48.3133 37.3267 48.06 37.18C47.8067 37.0333 47.6067 36.8533 47.46 36.64C47.3267 36.4133 47.26 36.1467 47.26 35.84C47.26 35.44 47.38 35.08 47.62 34.76C47.86 34.4267 48.16 34.1267 48.52 33.86L49.42 34.42C49.3 34.5533 49.1933 34.6667 49.1 34.76C49.0067 34.8533 48.9333 34.9467 48.88 35.04C48.8267 35.12 48.8 35.22 48.8 35.34C48.8 35.5133 48.9 35.66 49.1 35.78C49.3 35.9 49.62 35.9867 50.06 36.04C50.5133 36.0933 51.1133 36.12 51.86 36.12C52.4867 36.12 53.0067 36.1867 53.42 36.32C53.8467 36.44 54.18 36.6133 54.42 36.84C54.66 37.0667 54.8267 37.3267 54.92 37.62C55.0267 37.9 55.08 38.2133 55.08 38.56C55.08 38.9333 55 39.2933 54.84 39.64C54.68 40 54.4267 40.32 54.08 40.6C53.7467 40.88 53.3067 41.1 52.76 41.26C52.2267 41.4333 51.58 41.52 50.82 41.52ZM50.56 34.88C49.9067 34.88 49.3267 34.74 48.82 34.46C48.3133 34.1667 47.9133 33.78 47.62 33.3C47.34 32.82 47.2 32.28 47.2 31.68C47.2 31.08 47.34 30.54 47.62 30.06C47.9133 29.5667 48.3133 29.18 48.82 28.9C49.3267 28.6067 49.9067 28.46 50.56 28.46C51.2267 28.46 51.8133 28.6067 52.32 28.9C52.8267 29.18 53.22 29.5667 53.5 30.06C53.7933 30.54 53.94 31.08 53.94 31.68C53.94 32.28 53.7933 32.82 53.5 33.3C53.22 33.78 52.8267 34.1667 52.32 34.46C51.8133 34.74 51.2267 34.88 50.56 34.88ZM50.56 33.38C50.8933 33.38 51.1867 33.3067 51.44 33.16C51.6933 33.0133 51.8933 32.8133 52.04 32.56C52.1867 32.2933 52.26 32 52.26 31.68C52.26 31.3467 52.1867 31.06 52.04 30.82C51.8933 30.5667 51.6867 30.3667 51.42 30.22C51.1667 30.0733 50.88 30 50.56 30C50.2533 30 49.9733 30.0733 49.72 30.22C49.4667 30.3667 49.26 30.5667 49.1 30.82C48.9533 31.0733 48.88 31.36 48.88 31.68C48.88 31.9867 48.9533 32.2733 49.1 32.54C49.2467 32.7933 49.4467 33 49.7 33.16C49.9533 33.3067 50.24 33.38 50.56 33.38ZM53.38 30.38L52.62 29.44C53.0067 29.12 53.4267 28.88 53.88 28.72C54.3467 28.5467 54.86 28.48 55.42 28.52L55.62 29.94C55.2067 29.8867 54.8067 29.8933 54.42 29.96C54.0333 30.0133 53.6867 30.1533 53.38 30.38ZM57.8 38V36.42H60.1V30.32H57.9V28.74H62.1V36.42H64.2V38H57.8ZM60.98 27.08C60.62 27.08 60.3133 26.96 60.06 26.72C59.82 26.4667 59.7 26.1733 59.7 25.84C59.7 25.48 59.82 25.18 60.06 24.94C60.3 24.7 60.6067 24.58 60.98 24.58C61.3267 24.58 61.6267 24.7067 61.88 24.96C62.1467 25.2133 62.28 25.5067 62.28 25.84C62.28 26.1733 62.1467 26.4667 61.88 26.72C61.6267 26.96 61.3267 27.08 60.98 27.08ZM67.2 38V28.74H69.2V30.16C69.4267 29.8267 69.68 29.54 69.96 29.3C70.24 29.06 70.5533 28.8733 70.9 28.74C71.2467 28.5933 71.62 28.52 72.02 28.52C72.54 28.52 73.02 28.6533 73.46 28.92C73.9 29.1867 74.2533 29.6067 74.52 30.18C74.7867 30.74 74.92 31.4867 74.92 32.42V38H72.94V32.44C72.94 31.8933 72.88 31.4467 72.76 31.1C72.64 30.7533 72.4667 30.5 72.24 30.34C72.0267 30.18 71.7667 30.1 71.46 30.1C71.1933 30.1 70.9267 30.16 70.66 30.28C70.3933 30.4 70.1467 30.5667 69.92 30.78C69.7067 30.98 69.5333 31.2333 69.4 31.54C69.2667 31.8333 69.2 32.1667 69.2 32.54V38H67.2ZM80.04 38.22C79.0133 38.22 78.2133 37.9867 77.64 37.52C77.08 37.04 76.8 36.42 76.8 35.66C76.8 35.1533 76.9133 34.7 77.14 34.3C77.38 33.8867 77.7133 33.5333 78.14 33.24C78.58 32.9467 79.1067 32.72 79.72 32.56C80.3333 32.3867 81.0267 32.3 81.8 32.3C81.96 32.3 82.1267 32.3067 82.3 32.32C82.4867 32.32 82.68 32.3267 82.88 32.34C83.0933 32.3533 83.3067 32.3667 83.52 32.38L83.58 33.8C83.3933 33.7733 83.1933 33.7533 82.98 33.74C82.78 33.7267 82.58 33.72 82.38 33.72C82.18 33.72 81.9933 33.72 81.82 33.72C81.3 33.72 80.8467 33.76 80.46 33.84C80.0867 33.9067 79.7733 34.0133 79.52 34.16C79.28 34.3067 79.1 34.4867 78.98 34.7C78.86 34.9133 78.8 35.16 78.8 35.44C78.8 35.6667 78.84 35.8667 78.92 36.04C79 36.2 79.1067 36.3267 79.24 36.42C79.3867 36.5133 79.5533 36.5867 79.74 36.64C79.94 36.68 80.1533 36.7 80.38 36.7C80.82 36.7 81.2067 36.6267 81.54 36.48C81.8733 36.3333 82.1533 36.12 82.38 35.84C82.62 35.5467 82.8 35.1867 82.92 34.76C83.04 34.32 83.1 33.8067 83.1 33.22C83.1 32.4067 83.0067 31.7733 82.82 31.32C82.6467 30.8667 82.3867 30.5533 82.04 30.38C81.6933 30.2067 81.26 30.12 80.74 30.12C80.3133 30.12 79.9 30.1933 79.5 30.34C79.1133 30.4733 78.7333 30.7267 78.36 31.1L77.3 29.9C77.8067 29.42 78.36 29.0733 78.96 28.86C79.5733 28.6467 80.2 28.54 80.84 28.54C81.4267 28.54 81.9667 28.6133 82.46 28.76C82.9667 28.8933 83.4067 29.12 83.78 29.44C84.1667 29.76 84.46 30.1933 84.66 30.74C84.8733 31.2867 84.98 31.98 84.98 32.82V38H82.9V36.86C82.7267 37.1267 82.5333 37.3533 82.32 37.54C82.1067 37.7133 81.8733 37.8533 81.62 37.96C81.38 38.0533 81.1267 38.12 80.86 38.16C80.5933 38.2 80.32 38.22 80.04 38.22ZM87.36 38V36.42H90V26.2H87.48V24.62H92.02V36.42H94.64V38H87.36ZM97.8 38V36.42H100.1V30.32H97.9V28.74H102.1V36.42H104.2V38H97.8ZM100.98 27.08C100.62 27.08 100.313 26.96 100.06 26.72C99.82 26.4667 99.7 26.1733 99.7 25.84C99.7 25.48 99.82 25.18 100.06 24.94C100.3 24.7 100.607 24.58 100.98 24.58C101.327 24.58 101.627 24.7067 101.88 24.96C102.147 25.2133 102.28 25.5067 102.28 25.84C102.28 26.1733 102.147 26.4667 101.88 26.72C101.627 26.96 101.327 27.08 100.98 27.08ZM111.98 38.18C111.433 38.18 110.96 38.0933 110.56 37.92C110.173 37.7333 109.86 37.44 109.62 37.04C109.393 36.64 109.233 36.12 109.14 35.48C109.047 34.84 109.013 34.06 109.04 33.14L109.3 26.5L111.34 26.24L111.54 26.22L111.56 26.4C111.493 26.4933 111.433 26.5867 111.38 26.68C111.34 26.7733 111.307 26.9333 111.28 27.16L111.08 29.74L111.16 29.96L111.02 33.14C110.98 34.0467 111.007 34.7533 111.1 35.26C111.193 35.7533 111.353 36.1 111.58 36.3C111.807 36.4867 112.08 36.58 112.4 36.58C112.827 36.58 113.207 36.4933 113.54 36.32C113.887 36.1467 114.227 35.9333 114.56 35.68L115 37.16C114.547 37.4933 114.073 37.7467 113.58 37.92C113.087 38.0933 112.553 38.18 111.98 38.18ZM107.24 28.74H114.22L114.2 30.34H107.24V28.74ZM118.52 41.5C118.08 41.5 117.687 41.4267 117.34 41.28C116.993 41.1467 116.66 40.94 116.34 40.66L117.08 39.3L117.18 39.14L117.32 39.22C117.36 39.3133 117.407 39.4 117.46 39.48C117.527 39.5733 117.653 39.6867 117.84 39.82C117.947 39.86 118.06 39.8867 118.18 39.9C118.3 39.9267 118.42 39.94 118.54 39.94C118.847 39.94 119.107 39.86 119.32 39.7C119.533 39.5533 119.72 39.32 119.88 39C120.053 38.68 120.227 38.2667 120.4 37.76L122.32 32.16C122.52 31.5733 122.693 31.0067 122.84 30.46C123 29.9 123.1 29.3267 123.14 28.74H125.02C124.967 29.3533 124.827 29.9867 124.6 30.64C124.387 31.2933 124.167 31.9267 123.94 32.54L121.64 38.88C121.293 39.8533 120.86 40.5333 120.34 40.92C119.82 41.3067 119.213 41.5 118.52 41.5ZM116.72 28.74H118.74L121.54 36.02L120.54 38.22L116.72 28.74Z" fill="black"/>
<path d="M169.5 33L138 62L138 5.36027e-08L169.5 33Z" fill="#01584B"/>
<path d="M170 17C170 9.26802 176.268 3 184 3H301.055V63H184C176.268 63 170 56.732 170 49V17Z" fill="white"/>
<path d="M170 17C170 9.26802 176.268 3 184 3H301.055V63H184C176.268 63 170 56.732 170 49V17Z" stroke="#E8E8E8" stroke-width="2"/>
<path d="M222.547 40L220.787 27.54H222.507L223.527 35.56L225.267 28.5H226.187L227.947 35.56L228.747 27.54H230.367L228.647 40H227.527L225.627 32.16L223.707 40H222.547ZM231.747 26.62H233.707H233.907V26.8C233.827 26.88 233.774 26.9667 233.747 27.06C233.734 27.1533 233.727 27.3133 233.727 27.54V32.1C233.954 31.7667 234.221 31.4867 234.527 31.26C234.847 31.02 235.174 30.84 235.507 30.72C235.854 30.5867 236.201 30.52 236.547 30.52C237.134 30.52 237.641 30.6533 238.067 30.92C238.507 31.1867 238.847 31.6067 239.087 32.18C239.327 32.74 239.447 33.4867 239.447 34.42V40H237.487V34.44C237.487 33.8667 237.427 33.4133 237.307 33.08C237.187 32.7333 237.021 32.4867 236.807 32.34C236.594 32.18 236.341 32.1 236.047 32.1C235.807 32.1 235.574 32.14 235.347 32.22C235.134 32.3 234.927 32.4133 234.727 32.56C234.527 32.6933 234.354 32.8667 234.207 33.08C234.061 33.2933 233.941 33.5333 233.847 33.8C233.767 34.0667 233.727 34.36 233.727 34.68V40H231.747V26.62ZM245.527 40.2C244.687 40.2 243.941 40 243.287 39.6C242.634 39.1867 242.114 38.62 241.727 37.9C241.341 37.1667 241.147 36.3267 241.147 35.38C241.147 34.4467 241.341 33.62 241.727 32.9C242.114 32.1667 242.634 31.5933 243.287 31.18C243.941 30.7533 244.687 30.54 245.527 30.54C246.354 30.54 247.094 30.7533 247.747 31.18C248.414 31.5933 248.941 32.1667 249.327 32.9C249.714 33.62 249.907 34.4467 249.907 35.38C249.907 36.3133 249.714 37.1467 249.327 37.88C248.941 38.6 248.414 39.1667 247.747 39.58C247.094 39.9933 246.354 40.2 245.527 40.2ZM245.527 38.58C245.981 38.58 246.381 38.4467 246.727 38.18C247.087 37.9 247.367 37.52 247.567 37.04C247.767 36.56 247.867 36 247.867 35.36C247.867 34.7067 247.767 34.14 247.567 33.66C247.367 33.18 247.087 32.8067 246.727 32.54C246.381 32.2733 245.981 32.14 245.527 32.14C245.074 32.14 244.667 32.2733 244.307 32.54C243.961 32.8067 243.687 33.18 243.487 33.66C243.287 34.14 243.187 34.7067 243.187 35.36C243.187 36 243.287 36.56 243.487 37.04C243.687 37.52 243.961 37.9 244.307 38.18C244.667 38.4467 245.074 38.58 245.527 38.58Z" fill="black"/>
<path d="M338.5 35L302.055 64L302.055 2L338.5 35Z" fill="#01584B"/>
<path d="M339 17C339 9.26802 345.268 3 353 3H470.055V63H353C345.268 63 339 56.732 339 49V17Z" fill="white"/>
<path d="M339 17C339 9.26802 345.268 3 353 3H470.055V63H353C345.268 63 339 56.732 339 49V17Z" stroke="#E8E8E8" stroke-width="2"/>
<path d="M381.547 40L379.787 27.54H381.507L382.527 35.56L384.267 28.5H385.187L386.947 35.56L387.747 27.54H389.367L387.647 40H386.527L384.627 32.16L382.707 40H381.547ZM390.747 26.62H392.707H392.907V26.8C392.827 26.88 392.774 26.9667 392.747 27.06C392.734 27.1533 392.727 27.3133 392.727 27.54V32.1C392.954 31.7667 393.221 31.4867 393.527 31.26C393.847 31.02 394.174 30.84 394.507 30.72C394.854 30.5867 395.201 30.52 395.547 30.52C396.134 30.52 396.641 30.6533 397.067 30.92C397.507 31.1867 397.847 31.6067 398.087 32.18C398.327 32.74 398.447 33.4867 398.447 34.42V40H396.487V34.44C396.487 33.8667 396.427 33.4133 396.307 33.08C396.187 32.7333 396.021 32.4867 395.807 32.34C395.594 32.18 395.341 32.1 395.047 32.1C394.807 32.1 394.574 32.14 394.347 32.22C394.134 32.3 393.927 32.4133 393.727 32.56C393.527 32.6933 393.354 32.8667 393.207 33.08C393.061 33.2933 392.941 33.5333 392.847 33.8C392.767 34.0667 392.727 34.36 392.727 34.68V40H390.747V26.62ZM404.947 40.22C404.281 40.22 403.667 40.1133 403.107 39.9C402.547 39.6867 402.061 39.38 401.647 38.98C401.247 38.5667 400.934 38.06 400.707 37.46C400.481 36.86 400.367 36.18 400.367 35.42C400.367 34.6467 400.481 33.96 400.707 33.36C400.934 32.7467 401.241 32.2333 401.627 31.82C402.027 31.4067 402.487 31.0867 403.007 30.86C403.541 30.6333 404.107 30.52 404.707 30.52C405.227 30.52 405.721 30.6133 406.187 30.8C406.667 30.9867 407.081 31.2667 407.427 31.64C407.787 32 408.067 32.46 408.267 33.02C408.481 33.58 408.587 34.2333 408.587 34.98C408.587 35.1133 408.587 35.2667 408.587 35.44C408.587 35.6 408.581 35.74 408.567 35.86H402.287C402.314 36.34 402.407 36.76 402.567 37.12C402.727 37.4667 402.927 37.7533 403.167 37.98C403.421 38.2067 403.707 38.3733 404.027 38.48C404.347 38.5867 404.681 38.64 405.027 38.64C405.334 38.64 405.614 38.6133 405.867 38.56C406.134 38.4933 406.387 38.3933 406.627 38.26C406.867 38.1267 407.087 37.9467 407.287 37.72L408.327 38.74C408.047 39.0733 407.734 39.3533 407.387 39.58C407.041 39.7933 406.661 39.9533 406.247 40.06C405.847 40.1667 405.414 40.22 404.947 40.22ZM402.327 34.36H406.647C406.647 33.9867 406.601 33.66 406.507 33.38C406.414 33.1 406.274 32.86 406.087 32.66C405.914 32.46 405.701 32.3133 405.447 32.22C405.194 32.1133 404.914 32.06 404.607 32.06C404.314 32.06 404.041 32.1067 403.787 32.2C403.547 32.2933 403.327 32.4333 403.127 32.62C402.927 32.8067 402.754 33.0467 402.607 33.34C402.474 33.62 402.381 33.96 402.327 34.36ZM411.507 30.74H413.567L413.527 33.38L413.287 33.16C413.354 32.76 413.481 32.4 413.667 32.08C413.854 31.7467 414.081 31.4667 414.347 31.24C414.627 31.0133 414.934 30.84 415.267 30.72C415.601 30.5867 415.947 30.52 416.307 30.52C416.814 30.52 417.274 30.6067 417.687 30.78C418.101 30.9533 418.474 31.2133 418.807 31.56L417.967 33.2L417.887 33.38L417.727 33.3C417.687 33.1933 417.647 33.0867 417.607 32.98C417.567 32.8733 417.467 32.7467 417.307 32.6C417.107 32.4667 416.907 32.3667 416.707 32.3C416.521 32.2333 416.301 32.2 416.047 32.2C415.727 32.2 415.414 32.26 415.107 32.38C414.814 32.4867 414.547 32.66 414.307 32.9C414.067 33.14 413.874 33.4467 413.727 33.82C413.594 34.18 413.527 34.62 413.527 35.14V40.02H411.507V30.74ZM424.947 40.22C424.281 40.22 423.667 40.1133 423.107 39.9C422.547 39.6867 422.061 39.38 421.647 38.98C421.247 38.5667 420.934 38.06 420.707 37.46C420.481 36.86 420.367 36.18 420.367 35.42C420.367 34.6467 420.481 33.96 420.707 33.36C420.934 32.7467 421.241 32.2333 421.627 31.82C422.027 31.4067 422.487 31.0867 423.007 30.86C423.541 30.6333 424.107 30.52 424.707 30.52C425.227 30.52 425.721 30.6133 426.187 30.8C426.667 30.9867 427.081 31.2667 427.427 31.64C427.787 32 428.067 32.46 428.267 33.02C428.481 33.58 428.587 34.2333 428.587 34.98C428.587 35.1133 428.587 35.2667 428.587 35.44C428.587 35.6 428.581 35.74 428.567 35.86H422.287C422.314 36.34 422.407 36.76 422.567 37.12C422.727 37.4667 422.927 37.7533 423.167 37.98C423.421 38.2067 423.707 38.3733 424.027 38.48C424.347 38.5867 424.681 38.64 425.027 38.64C425.334 38.64 425.614 38.6133 425.867 38.56C426.134 38.4933 426.387 38.3933 426.627 38.26C426.867 38.1267 427.087 37.9467 427.287 37.72L428.327 38.74C428.047 39.0733 427.734 39.3533 427.387 39.58C427.041 39.7933 426.661 39.9533 426.247 40.06C425.847 40.1667 425.414 40.22 424.947 40.22ZM422.327 34.36H426.647C426.647 33.9867 426.601 33.66 426.507 33.38C426.414 33.1 426.274 32.86 426.087 32.66C425.914 32.46 425.701 32.3133 425.447 32.22C425.194 32.1133 424.914 32.06 424.607 32.06C424.314 32.06 424.041 32.1067 423.787 32.2C423.547 32.2933 423.327 32.4333 423.127 32.62C422.927 32.8067 422.754 33.0467 422.607 33.34C422.474 33.62 422.381 33.96 422.327 34.36Z" fill="black"/>
<path d="M507.5 35L471.055 64L471.055 2L507.5 35Z" fill="#01584B"/>
<path d="M508 19C508 11.268 514.268 5 522 5H639.055V65H522C514.268 65 508 58.732 508 51V19Z" fill="white"/>
<path d="M508 19C508 11.268 514.268 5 522 5H639.055V65H522C514.268 65 508 58.732 508 51V19Z" stroke="#E8E8E8" stroke-width="2"/>
<path d="M555.547 42L553.787 29.54H555.507L556.527 37.56L558.267 30.5H559.187L560.947 37.56L561.747 29.54H563.367L561.647 42H560.527L558.627 34.16L556.707 42H555.547ZM564.747 28.62H566.707H566.907V28.8C566.827 28.88 566.774 28.9667 566.747 29.06C566.734 29.1533 566.727 29.3133 566.727 29.54V34.1C566.954 33.7667 567.221 33.4867 567.527 33.26C567.847 33.02 568.174 32.84 568.507 32.72C568.854 32.5867 569.201 32.52 569.547 32.52C570.134 32.52 570.641 32.6533 571.067 32.92C571.507 33.1867 571.847 33.6067 572.087 34.18C572.327 34.74 572.447 35.4867 572.447 36.42V42H570.487V36.44C570.487 35.8667 570.427 35.4133 570.307 35.08C570.187 34.7333 570.021 34.4867 569.807 34.34C569.594 34.18 569.341 34.1 569.047 34.1C568.807 34.1 568.574 34.14 568.347 34.22C568.134 34.3 567.927 34.4133 567.727 34.56C567.527 34.6933 567.354 34.8667 567.207 35.08C567.061 35.2933 566.941 35.5333 566.847 35.8C566.767 36.0667 566.727 36.36 566.727 36.68V42H564.747V28.62ZM578.947 42.22C578.281 42.22 577.667 42.1133 577.107 41.9C576.547 41.6867 576.061 41.38 575.647 40.98C575.247 40.5667 574.934 40.06 574.707 39.46C574.481 38.86 574.367 38.18 574.367 37.42C574.367 36.6467 574.481 35.96 574.707 35.36C574.934 34.7467 575.241 34.2333 575.627 33.82C576.027 33.4067 576.487 33.0867 577.007 32.86C577.541 32.6333 578.107 32.52 578.707 32.52C579.227 32.52 579.721 32.6133 580.187 32.8C580.667 32.9867 581.081 33.2667 581.427 33.64C581.787 34 582.067 34.46 582.267 35.02C582.481 35.58 582.587 36.2333 582.587 36.98C582.587 37.1133 582.587 37.2667 582.587 37.44C582.587 37.6 582.581 37.74 582.567 37.86H576.287C576.314 38.34 576.407 38.76 576.567 39.12C576.727 39.4667 576.927 39.7533 577.167 39.98C577.421 40.2067 577.707 40.3733 578.027 40.48C578.347 40.5867 578.681 40.64 579.027 40.64C579.334 40.64 579.614 40.6133 579.867 40.56C580.134 40.4933 580.387 40.3933 580.627 40.26C580.867 40.1267 581.087 39.9467 581.287 39.72L582.327 40.74C582.047 41.0733 581.734 41.3533 581.387 41.58C581.041 41.7933 580.661 41.9533 580.247 42.06C579.847 42.1667 579.414 42.22 578.947 42.22ZM576.327 36.36H580.647C580.647 35.9867 580.601 35.66 580.507 35.38C580.414 35.1 580.274 34.86 580.087 34.66C579.914 34.46 579.701 34.3133 579.447 34.22C579.194 34.1133 578.914 34.06 578.607 34.06C578.314 34.06 578.041 34.1067 577.787 34.2C577.547 34.2933 577.327 34.4333 577.127 34.62C576.927 34.8067 576.754 35.0467 576.607 35.34C576.474 35.62 576.381 35.96 576.327 36.36ZM584.727 42V32.74H586.727V34.16C586.954 33.8267 587.207 33.54 587.487 33.3C587.767 33.06 588.081 32.8733 588.427 32.74C588.774 32.5933 589.147 32.52 589.547 32.52C590.067 32.52 590.547 32.6533 590.987 32.92C591.427 33.1867 591.781 33.6067 592.047 34.18C592.314 34.74 592.447 35.4867 592.447 36.42V42H590.467V36.44C590.467 35.8933 590.407 35.4467 590.287 35.1C590.167 34.7533 589.994 34.5 589.767 34.34C589.554 34.18 589.294 34.1 588.987 34.1C588.721 34.1 588.454 34.16 588.187 34.28C587.921 34.4 587.674 34.5667 587.447 34.78C587.234 34.98 587.061 35.2333 586.927 35.54C586.794 35.8333 586.727 36.1667 586.727 36.54V42H584.727Z" fill="black"/>
<path d="M676.5 37L640.055 66L640.055 4L676.5 37Z" fill="#01584B"/>
<path d="M677 19C677 11.268 683.268 5 691 5H794.05C801.782 5 808.05 11.268 808.05 19V51C808.05 58.732 801.782 65 794.05 65H691C683.268 65 677 58.732 677 51V19Z" fill="white"/>
<path d="M677 19C677 11.268 683.268 5 691 5H794.05C801.782 5 808.05 11.268 808.05 19V51C808.05 58.732 801.782 65 794.05 65H691C683.268 65 677 58.732 677 51V19Z" stroke="#E8E8E8" stroke-width="2"/>
<path d="M729.865 42L727.865 29.54H729.165L730.505 37.96L732.505 30.46H732.945L734.965 38L736.105 29.54H737.285L735.305 42H734.765L732.625 33.86L730.445 42H729.865ZM738.985 28.7H740.365H740.565V28.84C740.485 28.92 740.432 29.0067 740.405 29.1C740.392 29.1933 740.385 29.3533 740.385 29.58V34.48C740.625 34.1067 740.905 33.7867 741.225 33.52C741.558 33.24 741.905 33.0267 742.265 32.88C742.638 32.72 743.012 32.64 743.385 32.64C743.932 32.64 744.412 32.7667 744.825 33.02C745.252 33.2733 745.578 33.68 745.805 34.24C746.045 34.8 746.165 35.54 746.165 36.46V42H744.765V36.5C744.765 35.86 744.692 35.3533 744.545 34.98C744.398 34.5933 744.198 34.32 743.945 34.16C743.692 33.9867 743.405 33.9 743.085 33.9C742.845 33.9 742.598 33.94 742.345 34.02C742.092 34.1 741.845 34.22 741.605 34.38C741.378 34.54 741.172 34.74 740.985 34.98C740.798 35.2067 740.652 35.4667 740.545 35.76C740.438 36.0533 740.385 36.38 740.385 36.74V42H738.985V28.7ZM750.065 45.48C749.638 45.48 749.245 45.4133 748.885 45.28C748.538 45.1467 748.232 44.9533 747.965 44.7L748.585 43.72L748.705 43.54L748.825 43.62C748.852 43.7267 748.898 43.8133 748.965 43.88C749.032 43.96 749.158 44.06 749.345 44.18C749.465 44.22 749.592 44.2467 749.725 44.26C749.858 44.2867 749.998 44.3 750.145 44.3C750.505 44.3 750.805 44.2133 751.045 44.04C751.298 43.8667 751.518 43.6 751.705 43.24C751.892 42.88 752.072 42.4267 752.245 41.88L753.985 36.5C754.185 35.8867 754.378 35.28 754.565 34.68C754.752 34.08 754.878 33.4733 754.945 32.86H756.385C756.292 33.4733 756.145 34.0933 755.945 34.72C755.745 35.3467 755.532 35.9733 755.305 36.6L753.025 43.04C752.705 43.9333 752.292 44.56 751.785 44.92C751.292 45.2933 750.718 45.48 750.065 45.48ZM748.445 32.86H749.945L752.905 40.48L752.265 42.26L748.445 32.86Z" fill="black"/>
</svg>
