<svg width="40" height="40" viewBox="0 0 40 40" fill="none" xmlns="http://www.w3.org/2000/svg">
<path d="M8.33331 21.266C8.33331 19.0031 8.33331 17.8716 8.79075 16.877C9.24818 15.8825 10.1073 15.1461 11.8254 13.6734L13.4921 12.2449C16.5976 9.58299 18.1504 8.25204 20 8.25204C21.8496 8.25204 23.4024 9.58299 26.5079 12.2449L28.1746 13.6734C29.8927 15.1461 30.7518 15.8825 31.2092 16.877C31.6666 17.8716 31.6666 19.0031 31.6666 21.266V28.3333C31.6666 31.476 31.6666 33.0474 30.6903 34.0237C29.714 35 28.1427 35 25 35H15C11.8573 35 10.2859 35 9.30962 34.0237C8.33331 33.0474 8.33331 31.476 8.33331 28.3333V21.266Z" stroke="#FBFCFF"/>
<path d="M24.1666 35V26C24.1666 25.4477 23.7189 25 23.1666 25H16.8333C16.281 25 15.8333 25.4477 15.8333 26V35" stroke="#FBFCFF" stroke-linecap="round" stroke-linejoin="round"/>
</svg>
