<svg width="179" height="50" viewBox="0 0 179 50" fill="none" xmlns="http://www.w3.org/2000/svg">
<path d="M67.246 3.5L67.246 32" stroke="#01C309"/>
<path d="M80 3L170 3" stroke="#01C309"/>
<line y1="-0.5" x2="32.0077" y2="-0.5" transform="matrix(-0.423209 0.906032 -0.894806 -0.446455 80.3081 3)" stroke="#01C309"/>
<path d="M1.40625 29V7.18182H16.7472V11.9545H7.32955V15.7045H15.8097V20.4773H7.32955V29H1.40625ZM25.6934 29.2983C23.9178 29.2983 22.3979 28.9467 21.1337 28.2436C19.8695 27.5334 18.9 26.5462 18.2253 25.282C17.5506 24.0107 17.2132 22.5369 17.2132 20.8608C17.2132 19.1847 17.5506 17.7145 18.2253 16.4503C18.9 15.179 19.8695 14.1918 21.1337 13.4886C22.3979 12.7784 23.9178 12.4233 25.6934 12.4233C27.4689 12.4233 28.9888 12.7784 30.253 13.4886C31.5172 14.1918 32.4867 15.179 33.1614 16.4503C33.8361 17.7145 34.1735 19.1847 34.1735 20.8608C34.1735 22.5369 33.8361 24.0107 33.1614 25.282C32.4867 26.5462 31.5172 27.5334 30.253 28.2436C28.9888 28.9467 27.4689 29.2983 25.6934 29.2983ZM25.736 24.9517C26.2331 24.9517 26.6628 24.7848 27.025 24.451C27.3873 24.1172 27.6678 23.6413 27.8667 23.0234C28.0655 22.4055 28.165 21.6705 28.165 20.8182C28.165 19.9588 28.0655 19.2237 27.8667 18.6129C27.6678 17.995 27.3873 17.5192 27.025 17.1854C26.6628 16.8516 26.2331 16.6847 25.736 16.6847C25.2104 16.6847 24.7594 16.8516 24.383 17.1854C24.0066 17.5192 23.7189 17.995 23.5201 18.6129C23.3212 19.2237 23.2218 19.9588 23.2218 20.8182C23.2218 21.6705 23.3212 22.4055 23.5201 23.0234C23.7189 23.6413 24.0066 24.1172 24.383 24.451C24.7594 24.7848 25.2104 24.9517 25.736 24.9517ZM46.3184 12.6364V16.8977H35.5371V12.6364H46.3184ZM37.6252 8.71591H43.5059V23.7372C43.5059 23.9645 43.5449 24.1562 43.623 24.3125C43.7012 24.4616 43.8219 24.5753 43.9853 24.6534C44.1486 24.7244 44.3581 24.7599 44.6138 24.7599C44.7914 24.7599 44.9973 24.7386 45.2317 24.696C45.4732 24.6534 45.6507 24.6179 45.7644 24.5895L46.6167 28.723C46.3539 28.8011 45.9775 28.897 45.4874 29.0107C45.0044 29.1243 44.4292 29.1989 43.7615 29.2344C42.4121 29.3054 41.2793 29.1669 40.3631 28.8189C39.4469 28.4638 38.758 27.9062 38.2963 27.1463C37.8347 26.3864 37.611 25.4347 37.6252 24.2912V8.71591ZM56.4258 29.2983C54.6502 29.2983 53.1303 28.9467 51.8661 28.2436C50.6019 27.5334 49.6325 26.5462 48.9577 25.282C48.283 24.0107 47.9457 22.5369 47.9457 20.8608C47.9457 19.1847 48.283 17.7145 48.9577 16.4503C49.6325 15.179 50.6019 14.1918 51.8661 13.4886C53.1303 12.7784 54.6502 12.4233 56.4258 12.4233C58.2013 12.4233 59.7212 12.7784 60.9854 13.4886C62.2496 14.1918 63.2191 15.179 63.8938 16.4503C64.5685 17.7145 64.9059 19.1847 64.9059 20.8608C64.9059 22.5369 64.5685 24.0107 63.8938 25.282C63.2191 26.5462 62.2496 27.5334 60.9854 28.2436C59.7212 28.9467 58.2013 29.2983 56.4258 29.2983ZM56.4684 24.9517C56.9656 24.9517 57.3952 24.7848 57.7575 24.451C58.1197 24.1172 58.4002 23.6413 58.5991 23.0234C58.7979 22.4055 58.8974 21.6705 58.8974 20.8182C58.8974 19.9588 58.7979 19.2237 58.5991 18.6129C58.4002 17.995 58.1197 17.5192 57.7575 17.1854C57.3952 16.8516 56.9656 16.6847 56.4684 16.6847C55.9428 16.6847 55.4918 16.8516 55.1154 17.1854C54.739 17.5192 54.4513 17.995 54.2525 18.6129C54.0536 19.2237 53.9542 19.9588 53.9542 20.8182C53.9542 21.6705 54.0536 22.4055 54.2525 23.0234C54.4513 23.6413 54.739 24.1172 55.1154 24.451C55.4918 24.7848 55.9428 24.9517 56.4684 24.9517Z" fill="#06102D"/>
<path d="M86.3324 29.2983C84.5852 29.2983 83.0795 28.9645 81.8153 28.2969C80.5582 27.6222 79.5888 26.6562 78.907 25.3991C78.2322 24.1349 77.8949 22.6222 77.8949 20.8608C77.8949 19.1705 78.2358 17.6932 78.9176 16.429C79.5994 15.1648 80.5618 14.1811 81.8047 13.478C83.0476 12.7749 84.5142 12.4233 86.2045 12.4233C87.4403 12.4233 88.5589 12.6151 89.5604 12.9986C90.5618 13.3821 91.4176 13.9396 92.1278 14.6712C92.8381 15.3956 93.3849 16.2763 93.7685 17.3132C94.152 18.3501 94.3438 19.5185 94.3438 20.8182V22.1818H79.7273V18.9432H88.9318C88.9247 18.4744 88.804 18.0625 88.5696 17.7074C88.3423 17.3452 88.0334 17.0646 87.6428 16.8658C87.2592 16.6598 86.8224 16.5568 86.3324 16.5568C85.8565 16.5568 85.4197 16.6598 85.022 16.8658C84.6243 17.0646 84.3047 17.3416 84.0632 17.6967C83.8288 18.0518 83.7045 18.4673 83.6903 18.9432V22.4375C83.6903 22.9631 83.8004 23.4318 84.0206 23.8438C84.2408 24.2557 84.5568 24.5788 84.9688 24.8132C85.3807 25.0476 85.8778 25.1648 86.4602 25.1648C86.8651 25.1648 87.2344 25.108 87.5682 24.9943C87.9091 24.8807 88.2003 24.7173 88.4418 24.5043C88.6832 24.2841 88.8608 24.0213 88.9744 23.7159H94.3438C94.1591 24.8523 93.7223 25.8395 93.0334 26.6776C92.3445 27.5085 91.4318 28.1548 90.2955 28.6165C89.1662 29.071 87.8452 29.2983 86.3324 29.2983ZM96.7434 29V12.6364H102.454V15.7472H102.624C102.922 14.5966 103.395 13.755 104.041 13.2223C104.694 12.6896 105.458 12.4233 106.331 12.4233C106.587 12.4233 106.839 12.4446 107.088 12.4872C107.344 12.5227 107.589 12.576 107.823 12.647V17.6648C107.532 17.5653 107.173 17.4908 106.747 17.4411C106.321 17.3913 105.955 17.3665 105.65 17.3665C105.074 17.3665 104.556 17.4979 104.094 17.7607C103.64 18.0163 103.281 18.3786 103.018 18.8473C102.756 19.3089 102.624 19.8523 102.624 20.4773V29H96.7434ZM109.751 29V12.6364H115.632V29H109.751ZM112.692 10.9318C111.896 10.9318 111.214 10.669 110.646 10.1435C110.078 9.6179 109.794 8.9858 109.794 8.24716C109.794 7.50852 110.078 6.87642 110.646 6.35085C111.214 5.82528 111.896 5.5625 112.692 5.5625C113.494 5.5625 114.176 5.82528 114.737 6.35085C115.305 6.87642 115.589 7.50852 115.589 8.24716C115.589 8.9858 115.305 9.6179 114.737 10.1435C114.176 10.669 113.494 10.9318 112.692 10.9318ZM128.429 12.6364V16.8977H117.478V12.6364H128.429ZM119.566 29V12.1676C119.566 10.8182 119.807 9.69957 120.29 8.81179C120.773 7.92401 121.455 7.25994 122.336 6.8196C123.216 6.37926 124.253 6.15909 125.446 6.15909C126.192 6.15909 126.917 6.21591 127.62 6.32955C128.33 6.44318 128.855 6.54261 129.196 6.62784L128.344 10.8466C128.131 10.7827 127.882 10.733 127.598 10.6974C127.314 10.6548 127.066 10.6335 126.853 10.6335C126.299 10.6335 125.926 10.7507 125.734 10.9851C125.542 11.2195 125.446 11.5284 125.446 11.9119V29H119.566ZM130.699 29V12.6364H136.579V29H130.699ZM133.639 10.9318C132.843 10.9318 132.162 10.669 131.593 10.1435C131.025 9.6179 130.741 8.9858 130.741 8.24716C130.741 7.50852 131.025 6.87642 131.593 6.35085C132.162 5.82528 132.843 5.5625 133.639 5.5625C134.441 5.5625 135.123 5.82528 135.684 6.35085C136.252 6.87642 136.537 7.50852 136.537 8.24716C136.537 8.9858 136.252 9.6179 135.684 10.1435C135.123 10.669 134.441 10.9318 133.639 10.9318ZM147.416 29.2983C145.669 29.2983 144.164 28.9645 142.899 28.2969C141.642 27.6222 140.673 26.6562 139.991 25.3991C139.316 24.1349 138.979 22.6222 138.979 20.8608C138.979 19.1705 139.32 17.6932 140.002 16.429C140.683 15.1648 141.646 14.1811 142.889 13.478C144.132 12.7749 145.598 12.4233 147.289 12.4233C148.524 12.4233 149.643 12.6151 150.644 12.9986C151.646 13.3821 152.502 13.9396 153.212 14.6712C153.922 15.3956 154.469 16.2763 154.852 17.3132C155.236 18.3501 155.428 19.5185 155.428 20.8182V22.1818H140.811V18.9432H150.016C150.009 18.4744 149.888 18.0625 149.654 17.7074C149.426 17.3452 149.117 17.0646 148.727 16.8658C148.343 16.6598 147.906 16.5568 147.416 16.5568C146.941 16.5568 146.504 16.6598 146.106 16.8658C145.708 17.0646 145.389 17.3416 145.147 17.6967C144.913 18.0518 144.789 18.4673 144.774 18.9432V22.4375C144.774 22.9631 144.884 23.4318 145.105 23.8438C145.325 24.2557 145.641 24.5788 146.053 24.8132C146.465 25.0476 146.962 25.1648 147.544 25.1648C147.949 25.1648 148.318 25.108 148.652 24.9943C148.993 24.8807 149.284 24.7173 149.526 24.5043C149.767 24.2841 149.945 24.0213 150.058 23.7159H155.428C155.243 24.8523 154.806 25.8395 154.117 26.6776C153.428 27.5085 152.516 28.1548 151.379 28.6165C150.25 29.071 148.929 29.2983 147.416 29.2983ZM157.827 29V12.6364H163.538V15.7472H163.708C164.006 14.5966 164.479 13.755 165.125 13.2223C165.778 12.6896 166.542 12.4233 167.415 12.4233C167.671 12.4233 167.923 12.4446 168.172 12.4872C168.428 12.5227 168.673 12.576 168.907 12.647V17.6648C168.616 17.5653 168.257 17.4908 167.831 17.4411C167.405 17.3913 167.039 17.3665 166.734 17.3665C166.158 17.3665 165.64 17.4979 165.178 17.7607C164.724 18.0163 164.365 18.3786 164.102 18.8473C163.839 19.3089 163.708 19.8523 163.708 20.4773V29H157.827Z" fill="#06102D"/>
</svg>
