<svg width="54" height="54" viewBox="0 0 54 54" fill="none" xmlns="http://www.w3.org/2000/svg">
<ellipse cx="26.953" cy="26.6363" rx="26.953" ry="26.6363" fill="#F0F4FD"/>
<line y1="-0.5" x2="29.7396" y2="-0.5" transform="matrix(0.711274 0.702915 -0.711274 0.702915 8.87061 18.2071)" stroke="#A13B3B"/>
<line y1="-0.5" x2="53.5398" y2="-0.5" transform="matrix(0.631658 -0.775247 0.78249 0.622663 11.6001 48.25)" stroke="#A13B3B"/>
<rect x="-0.000708711" y="0.210873" width="13.2666" height="13.2677" rx="4.85" transform="matrix(0.708907 0.705302 -0.713632 0.700521 24.162 23.6654)" stroke="#013C33" stroke-width="0.3"/>
<path d="M25.9296 33.0425C25.9296 34.1598 25.0131 35.0655 23.8825 35.0655C22.752 35.0655 21.8354 34.1598 21.8354 33.0425C21.8354 31.9252 22.752 31.0195 23.8825 31.0195C25.0131 31.0195 25.9296 31.9252 25.9296 33.0425Z" fill="#01584B"/>
</svg>
