<svg width="338" height="174" viewBox="0 0 338 174" fill="none" xmlns="http://www.w3.org/2000/svg">
<path d="M234.928 47.5459C218.032 57.3002 196.427 51.5116 186.672 34.6166L169.008 4.02556L199.602 -13.6362C216.498 -23.3905 238.104 -17.6019 247.859 -0.706895C257.614 16.1881 251.825 37.7916 234.928 47.5459Z" fill="url(#paint0_angular_168_13215)"/>
<path d="M103.088 -39.4947C119.984 -49.2491 141.59 -43.4604 151.345 -26.5654L169.008 4.02563L138.414 21.6874C121.518 31.4417 99.9125 25.653 90.1574 8.75806C80.4022 -8.13692 86.1914 -29.7404 103.088 -39.4947Z" fill="url(#paint1_angular_168_13215)"/>
<path d="M173.741 82.8694C190.638 73.1151 196.427 51.5116 186.672 34.6166L169.008 4.02555L138.415 21.6873C121.518 31.4416 115.729 53.0451 125.484 69.9401C135.239 86.8351 156.845 92.6237 173.741 82.8694Z" fill="url(#paint2_angular_168_13215)"/>
<path d="M164.275 -74.8182C147.379 -65.0639 141.59 -43.4604 151.345 -26.5654L169.008 4.02564L199.602 -13.6361C216.498 -23.3904 222.287 -44.994 212.532 -61.8889C202.777 -78.7839 181.172 -84.5726 164.275 -74.8182Z" fill="url(#paint3_angular_168_13215)"/>
<path d="M240.47 -10.6155C235.801 6.80718 217.891 17.1466 200.467 12.4782L168.918 4.02531L177.372 -27.5212C182.04 -44.9439 199.95 -55.2833 217.374 -50.6149C234.799 -45.9465 245.139 -28.0382 240.47 -10.6155Z" fill="url(#paint4_angular_168_13215)"/>
<path d="M97.3656 18.6661C102.034 1.24344 119.944 -9.09595 137.368 -4.42755L168.918 4.02532L160.464 35.5719C155.795 52.9946 137.885 63.334 120.461 58.6656C103.037 53.9972 92.6968 36.0888 97.3656 18.6661Z" fill="url(#paint5_angular_168_13215)"/>
<path d="M223.563 52.4776C228.232 35.0549 217.891 17.1466 200.467 12.4782L168.918 4.02531L160.464 35.5719C155.796 52.9945 166.136 70.9029 183.56 75.5713C200.984 80.2397 218.894 69.9003 223.563 52.4776Z" fill="url(#paint6_angular_168_13215)"/>
<path d="M114.273 -44.427C109.604 -27.0043 119.944 -9.09595 137.369 -4.42755L168.918 4.02532L177.371 -27.5213C182.04 -44.944 171.7 -62.8523 154.276 -67.5207C136.852 -72.1891 118.942 -61.8497 114.273 -44.427Z" fill="url(#paint7_angular_168_13215)"/>
<g style="mix-blend-mode:hard-light">
<path d="M162.852 106.434C140.904 93.7633 133.384 65.7009 146.056 43.7547L169 4.01773L208.74 26.9599C230.688 39.6305 238.208 67.6929 225.536 89.6391C212.865 111.585 184.8 119.105 162.852 106.434Z" fill="url(#paint8_angular_168_13215)"/>
<path d="M175.148 -98.3985C197.096 -85.7279 204.616 -57.6654 191.945 -35.7193L169 4.01773L129.26 -18.9244C107.312 -31.5951 99.792 -59.6575 112.464 -81.6036C125.135 -103.55 153.2 -111.069 175.148 -98.3985Z" fill="url(#paint9_angular_168_13215)"/>
<path d="M83.371 60.5496C105.319 73.2202 133.384 65.7009 146.056 43.7547L169 4.01775L129.259 -18.9244C107.311 -31.595 79.2465 -24.0757 66.5748 -2.12958C53.9031 19.8166 61.423 47.879 83.371 60.5496Z" fill="url(#paint10_angular_168_13215)"/>
<path d="M254.629 -52.5141C232.681 -65.1847 204.616 -57.6654 191.945 -35.7193L169 4.01771L208.741 26.9599C230.689 39.6305 258.754 32.1112 271.425 10.1651C284.097 -11.7811 276.577 -39.8435 254.629 -52.5141Z" fill="url(#paint11_angular_168_13215)"/>
</g>
<g style="mix-blend-mode:exclusion">
<path d="M115.414 30.8086C115.414 16.0124 127.41 4.01773 142.207 4.01773L169 4.01773V30.8086C169 45.6048 157.005 57.5995 142.207 57.5995C127.41 57.5995 115.414 45.6048 115.414 30.8086Z" fill="url(#paint12_angular_168_13215)"/>
<path d="M222.587 -22.7731C222.587 -7.97689 210.591 4.01779 195.793 4.01779L169 4.01779L169 -22.773C169 -37.5692 180.996 -49.5639 195.793 -49.5639C210.591 -49.5639 222.587 -37.5693 222.587 -22.7731Z" fill="url(#paint13_angular_168_13215)"/>
<path d="M115.414 -22.7731C115.414 -7.97695 127.41 4.01773 142.207 4.01773H169V-22.7731C169 -37.5693 157.005 -49.564 142.207 -49.564C127.41 -49.564 115.414 -37.5693 115.414 -22.7731Z" fill="url(#paint14_angular_168_13215)"/>
<path d="M222.587 30.8087C222.587 16.0125 210.591 4.01779 195.793 4.01779L169 4.01779L169 30.8087C169 45.6049 180.996 57.5995 195.793 57.5995C210.591 57.5995 222.587 45.6049 222.587 30.8087Z" fill="url(#paint15_angular_168_13215)"/>
</g>
<path d="M95.8139 68.91C89.561 45.5758 103.406 21.592 126.738 15.3408L169 4.01771L180.32 46.2601C186.574 69.5988 172.722 93.5882 149.386 99.8406C126.054 106.092 102.067 92.2443 95.8139 68.91Z" fill="url(#paint16_angular_168_13215)"/>
<path d="M242.186 -60.8746C248.439 -37.5403 234.594 -13.5566 211.262 -7.30538L169 4.01775L157.68 -38.2246C151.426 -61.5633 165.278 -85.5527 188.614 -91.8051C211.946 -98.0563 235.933 -84.2088 242.186 -60.8746Z" fill="url(#paint17_angular_168_13215)"/>
<path d="M73.1701 -15.5908C79.423 7.74348 103.406 21.592 126.738 15.3408L169 4.01771L157.68 -38.2246C151.426 -61.5633 127.434 -75.4135 104.098 -69.1611C80.7663 -62.9099 66.9171 -38.925 73.1701 -15.5908Z" fill="url(#paint18_angular_168_13215)"/>
<path d="M264.83 23.6262C258.577 0.291982 234.594 -13.5566 211.262 -7.30538L169 4.01773L180.32 46.2601C186.574 69.5988 210.566 83.4489 233.902 77.1965C257.234 70.9453 271.083 46.9605 264.83 23.6262Z" fill="url(#paint19_angular_168_13215)"/>
<path d="M121.027 13.8432C124.157 2.15999 136.167 -4.77354 147.85 -1.64326L169.008 4.02545L163.339 25.1782C160.208 36.8623 148.197 43.7961 136.513 40.6656C124.83 37.5353 117.896 25.5264 121.027 13.8432Z" fill="url(#paint20_angular_168_13215)"/>
<path d="M216.989 -5.79228C213.858 5.89093 201.849 12.8245 190.165 9.69419L169.008 4.02548L174.676 -17.1273C177.807 -28.8114 189.818 -35.7452 201.502 -32.6147C213.186 -29.4844 220.12 -17.4755 216.989 -5.79228Z" fill="url(#paint21_angular_168_13215)"/>
<path d="M132.364 -28.4655C129.233 -16.7822 136.167 -4.77354 147.85 -1.64326L169.008 4.02545L174.676 -17.1273C177.807 -28.8114 170.873 -40.8212 159.188 -43.9517C147.505 -47.082 135.495 -40.1487 132.364 -28.4655Z" fill="url(#paint22_angular_168_13215)"/>
<path d="M205.651 36.5164C208.782 24.8332 201.849 12.8245 190.165 9.69419L169.008 4.02548L163.339 25.1782C160.208 36.8623 167.143 48.8721 178.827 52.0026C190.51 55.1329 202.52 48.1996 205.651 36.5164Z" fill="url(#paint23_angular_168_13215)"/>
<g style="mix-blend-mode:screen">
<path d="M189.76 27.427C182.298 29.4264 174.627 24.9982 172.628 17.5364L169.007 4.02562L182.519 0.405418C189.982 -1.59397 197.652 2.8342 199.652 10.296C201.651 17.7578 197.223 25.4276 189.76 27.427Z" fill="url(#paint24_angular_168_13215)"/>
<path d="M148.255 -19.3758C155.717 -21.3752 163.387 -16.947 165.387 -9.48521L169.007 4.02559L155.496 7.64579C148.033 9.64518 140.363 5.21701 138.363 -2.2448C136.364 -9.70661 140.792 -17.3764 148.255 -19.3758Z" fill="url(#paint25_angular_168_13215)"/>
<path d="M162.736 34.6674C170.199 32.668 174.627 24.9982 172.628 17.5364L169.007 4.02563L155.495 7.64584C148.033 9.64522 143.604 17.315 145.604 24.7768C147.603 32.2386 155.274 36.6668 162.736 34.6674Z" fill="url(#paint26_angular_168_13215)"/>
<path d="M175.278 -26.6162C167.816 -24.6168 163.387 -16.947 165.387 -9.48521L169.007 4.02558L182.519 0.405371C189.982 -1.59401 194.41 -9.26382 192.411 -16.7256C190.411 -24.1874 182.741 -28.6156 175.278 -26.6162Z" fill="url(#paint27_angular_168_13215)"/>
</g>
<g style="mix-blend-mode:multiply" opacity="0.6">
<path opacity="0.8" d="M151.644 7.57576C152.776 3.35066 157.119 0.843295 161.345 1.97541L168.996 4.02528L166.946 11.6755C165.813 15.9006 161.47 18.408 157.245 17.2759C153.019 16.1437 150.512 11.8009 151.644 7.57576Z" fill="url(#paint28_angular_168_13215)"/>
<path opacity="0.8" d="M186.347 0.4749C185.215 4.7 180.872 7.20736 176.646 6.07525L168.995 4.02538L171.045 -3.62484C172.178 -7.84994 176.521 -10.3573 180.746 -9.22519C184.972 -8.09308 187.479 -3.7502 186.347 0.4749Z" fill="url(#paint29_angular_168_13215)"/>
<path opacity="0.8" d="M155.744 -7.72469C154.612 -3.49959 157.119 0.843295 161.345 1.97541L168.996 4.02528L171.046 -3.62494C172.178 -7.85004 169.67 -12.1929 165.445 -13.325C161.219 -14.4571 156.876 -11.9498 155.744 -7.72469Z" fill="url(#paint30_angular_168_13215)"/>
<path opacity="0.8" d="M182.247 15.7753C183.379 11.5502 180.872 7.20736 176.646 6.07525L168.995 4.02538L166.945 11.6756C165.813 15.9007 168.321 20.2436 172.546 21.3757C176.772 22.5078 181.115 20.0004 182.247 15.7753Z" fill="url(#paint31_angular_168_13215)"/>
</g>
<ellipse cx="169.008" cy="4.0256" rx="2.11959" ry="2.11941" fill="url(#paint32_linear_168_13215)"/>
<defs>
<radialGradient id="paint0_angular_168_13215" cx="0" cy="0" r="1" gradientUnits="userSpaceOnUse" gradientTransform="translate(217.265 16.9549) rotate(-165.001) scale(49.959 49.9553)">
<stop stop-color="#01584B"/>
<stop offset="1" stop-color="#E2FFFB" stop-opacity="0"/>
</radialGradient>
<radialGradient id="paint1_angular_168_13215" cx="0" cy="0" r="1" gradientUnits="userSpaceOnUse" gradientTransform="translate(120.751 -8.90368) rotate(14.9988) scale(49.959 49.9553)">
<stop stop-color="#01584B"/>
<stop offset="1" stop-color="#E2FFFB" stop-opacity="0"/>
</radialGradient>
<radialGradient id="paint2_angular_168_13215" cx="0" cy="0" r="1" gradientUnits="userSpaceOnUse" gradientTransform="translate(156.078 52.2784) rotate(-74.9988) scale(49.9553 49.959)">
<stop stop-color="#01584B"/>
<stop offset="1" stop-color="#E2FFFB" stop-opacity="0"/>
</radialGradient>
<radialGradient id="paint3_angular_168_13215" cx="0" cy="0" r="1" gradientUnits="userSpaceOnUse" gradientTransform="translate(181.938 -44.2272) rotate(105.001) scale(49.9553 49.959)">
<stop stop-color="#01584B"/>
<stop offset="1" stop-color="#E2FFFB" stop-opacity="0"/>
</radialGradient>
<radialGradient id="paint4_angular_168_13215" cx="0" cy="0" r="1" gradientUnits="userSpaceOnUse" gradientTransform="translate(208.921 -19.0684) rotate(150.002) scale(46.1903 46.1884)">
<stop stop-color="#01584B"/>
<stop offset="1" stop-color="#E2FFFB" stop-opacity="0"/>
</radialGradient>
<radialGradient id="paint5_angular_168_13215" cx="0" cy="0" r="1" gradientUnits="userSpaceOnUse" gradientTransform="translate(128.915 27.119) rotate(-29.9979) scale(46.1903 46.1884)">
<stop stop-color="#01584B"/>
<stop offset="1" stop-color="#E2FFFB" stop-opacity="0"/>
</radialGradient>
<radialGradient id="paint6_angular_168_13215" cx="0" cy="0" r="1" gradientUnits="userSpaceOnUse" gradientTransform="translate(192.014 44.0248) rotate(-120.002) scale(46.1884 46.1903)">
<stop stop-color="#01584B"/>
<stop offset="1" stop-color="#E2FFFB" stop-opacity="0"/>
</radialGradient>
<radialGradient id="paint7_angular_168_13215" cx="0" cy="0" r="1" gradientUnits="userSpaceOnUse" gradientTransform="translate(145.822 -35.9741) rotate(59.9979) scale(46.1884 46.1903)">
<stop stop-color="#01584B"/>
<stop offset="1" stop-color="#E2FFFB" stop-opacity="0"/>
</radialGradient>
<radialGradient id="paint8_angular_168_13215" cx="0" cy="0" r="1" gradientUnits="userSpaceOnUse" gradientTransform="translate(185.796 66.6969) rotate(-105.001) scale(64.8906 64.8954)">
<stop stop-color="#01584B"/>
<stop offset="1" stop-color="#E2FFFB" stop-opacity="0"/>
</radialGradient>
<radialGradient id="paint9_angular_168_13215" cx="0" cy="0" r="1" gradientUnits="userSpaceOnUse" gradientTransform="translate(152.204 -58.6615) rotate(74.9988) scale(64.8906 64.8954)">
<stop stop-color="#01584B"/>
<stop offset="1" stop-color="#E2FFFB" stop-opacity="0"/>
</radialGradient>
<radialGradient id="paint10_angular_168_13215" cx="0" cy="0" r="1" gradientUnits="userSpaceOnUse" gradientTransform="translate(106.315 20.8126) rotate(-14.9988) scale(64.8954 64.8906)">
<stop stop-color="#01584B"/>
<stop offset="1" stop-color="#E2FFFB" stop-opacity="0"/>
</radialGradient>
<radialGradient id="paint11_angular_168_13215" cx="0" cy="0" r="1" gradientUnits="userSpaceOnUse" gradientTransform="translate(231.685 -12.7771) rotate(165.001) scale(64.8954 64.8906)">
<stop stop-color="#01584B"/>
<stop offset="1" stop-color="#E2FFFB" stop-opacity="0"/>
</radialGradient>
<radialGradient id="paint12_angular_168_13215" cx="0" cy="0" r="1" gradientUnits="userSpaceOnUse" gradientTransform="translate(142.207 30.8086) rotate(-44.9975) scale(37.8896 37.8896)">
<stop stop-color="#01584B"/>
<stop offset="1" stop-color="#E2FFFB" stop-opacity="0"/>
</radialGradient>
<radialGradient id="paint13_angular_168_13215" cx="0" cy="0" r="1" gradientUnits="userSpaceOnUse" gradientTransform="translate(195.793 -22.7731) rotate(135.002) scale(37.8896 37.8896)">
<stop stop-color="#01584B"/>
<stop offset="1" stop-color="#E2FFFB" stop-opacity="0"/>
</radialGradient>
<radialGradient id="paint14_angular_168_13215" cx="0" cy="0" r="1" gradientUnits="userSpaceOnUse" gradientTransform="translate(142.207 -22.7731) rotate(44.9975) scale(37.8896 37.8896)">
<stop stop-color="#01584B"/>
<stop offset="1" stop-color="#E2FFFB" stop-opacity="0"/>
</radialGradient>
<radialGradient id="paint15_angular_168_13215" cx="0" cy="0" r="1" gradientUnits="userSpaceOnUse" gradientTransform="translate(195.793 30.8087) rotate(-135.002) scale(37.8896)">
<stop stop-color="#01584B"/>
<stop offset="1" stop-color="#E2FFFB" stop-opacity="0"/>
</radialGradient>
<radialGradient id="paint16_angular_168_13215" cx="0" cy="0" r="1" gradientUnits="userSpaceOnUse" gradientTransform="translate(138.068 57.5891) rotate(-59.9979) scale(61.8602 61.8628)">
<stop stop-color="#01584B"/>
<stop offset="1" stop-color="#E2FFFB" stop-opacity="0"/>
</radialGradient>
<radialGradient id="paint17_angular_168_13215" cx="0" cy="0" r="1" gradientUnits="userSpaceOnUse" gradientTransform="translate(199.932 -49.5536) rotate(120.002) scale(61.8602 61.8628)">
<stop stop-color="#01584B"/>
<stop offset="1" stop-color="#E2FFFB" stop-opacity="0"/>
</radialGradient>
<radialGradient id="paint18_angular_168_13215" cx="0" cy="0" r="1" gradientUnits="userSpaceOnUse" gradientTransform="translate(115.424 -26.9117) rotate(29.9979) scale(61.8629 61.8602)">
<stop stop-color="#01584B"/>
<stop offset="1" stop-color="#E2FFFB" stop-opacity="0"/>
</radialGradient>
<radialGradient id="paint19_angular_168_13215" cx="0" cy="0" r="1" gradientUnits="userSpaceOnUse" gradientTransform="translate(222.576 34.9472) rotate(-150.002) scale(61.8628 61.8602)">
<stop stop-color="#01584B"/>
<stop offset="1" stop-color="#E2FFFB" stop-opacity="0"/>
</radialGradient>
<radialGradient id="paint20_angular_168_13215" cx="0" cy="0" r="1" gradientUnits="userSpaceOnUse" gradientTransform="translate(142.183 19.5115) rotate(-29.9979) scale(30.9741 30.9728)">
<stop stop-color="#01584B"/>
<stop offset="1" stop-color="#E2FFFB" stop-opacity="0"/>
</radialGradient>
<radialGradient id="paint21_angular_168_13215" cx="0" cy="0" r="1" gradientUnits="userSpaceOnUse" gradientTransform="translate(195.833 -11.4606) rotate(150.002) scale(30.9741 30.9728)">
<stop stop-color="#01584B"/>
<stop offset="1" stop-color="#E2FFFB" stop-opacity="0"/>
</radialGradient>
<radialGradient id="paint22_angular_168_13215" cx="0" cy="0" r="1" gradientUnits="userSpaceOnUse" gradientTransform="translate(153.52 -22.7972) rotate(59.9979) scale(30.9728 30.9741)">
<stop stop-color="#01584B"/>
<stop offset="1" stop-color="#E2FFFB" stop-opacity="0"/>
</radialGradient>
<radialGradient id="paint23_angular_168_13215" cx="0" cy="0" r="1" gradientUnits="userSpaceOnUse" gradientTransform="translate(184.495 30.8481) rotate(-120.002) scale(30.9728 30.9741)">
<stop stop-color="#01584B"/>
<stop offset="1" stop-color="#E2FFFB" stop-opacity="0"/>
</radialGradient>
<radialGradient id="paint24_angular_168_13215" cx="0" cy="0" r="1" gradientUnits="userSpaceOnUse" gradientTransform="translate(186.14 13.9162) rotate(-150.002) scale(19.7824 19.7816)">
<stop stop-color="white"/>
<stop offset="1" stop-color="#171717" stop-opacity="0.74"/>
</radialGradient>
<radialGradient id="paint25_angular_168_13215" cx="0" cy="0" r="1" gradientUnits="userSpaceOnUse" gradientTransform="translate(151.875 -5.865) rotate(29.9979) scale(19.7824 19.7816)">
<stop stop-color="white"/>
<stop offset="1" stop-color="#171717" stop-opacity="0.74"/>
</radialGradient>
<radialGradient id="paint26_angular_168_13215" cx="0" cy="0" r="1" gradientUnits="userSpaceOnUse" gradientTransform="translate(159.116 21.1566) rotate(-59.9979) scale(19.7816 19.7824)">
<stop stop-color="white"/>
<stop offset="1" stop-color="#171717" stop-opacity="0.74"/>
</radialGradient>
<radialGradient id="paint27_angular_168_13215" cx="0" cy="0" r="1" gradientUnits="userSpaceOnUse" gradientTransform="translate(178.899 -13.1054) rotate(120.002) scale(19.7816 19.7824)">
<stop stop-color="white"/>
<stop offset="1" stop-color="#171717" stop-opacity="0.74"/>
</radialGradient>
<radialGradient id="paint28_angular_168_13215" cx="0" cy="0" r="1" gradientUnits="userSpaceOnUse" gradientTransform="translate(159.295 9.62563) rotate(-29.9979) scale(11.2014 11.2009)">
<stop stop-color="white"/>
<stop offset="1" stop-color="#171717" stop-opacity="0.74"/>
</radialGradient>
<radialGradient id="paint29_angular_168_13215" cx="0" cy="0" r="1" gradientUnits="userSpaceOnUse" gradientTransform="translate(178.696 -1.57497) rotate(150.002) scale(11.2014 11.2009)">
<stop stop-color="white"/>
<stop offset="1" stop-color="#171717" stop-opacity="0.74"/>
</radialGradient>
<radialGradient id="paint30_angular_168_13215" cx="0" cy="0" r="1" gradientUnits="userSpaceOnUse" gradientTransform="translate(163.395 -5.67481) rotate(59.9979) scale(11.2009 11.2014)">
<stop stop-color="white"/>
<stop offset="1" stop-color="#171717" stop-opacity="0.74"/>
</radialGradient>
<radialGradient id="paint31_angular_168_13215" cx="0" cy="0" r="1" gradientUnits="userSpaceOnUse" gradientTransform="translate(174.596 13.7255) rotate(-120.002) scale(11.2009 11.2014)">
<stop stop-color="white"/>
<stop offset="1" stop-color="#171717" stop-opacity="0.74"/>
</radialGradient>
<linearGradient id="paint32_linear_168_13215" x1="169.1" y1="6.00679" x2="169.008" y2="3.08364" gradientUnits="userSpaceOnUse">
<stop stop-color="#949494"/>
<stop offset="1" stop-color="#ECECEC"/>
</linearGradient>
</defs>
</svg>
