<?xml version="1.0" encoding="utf-8"?>
<!-- Generator: Adobe Illustrator 27.5.0, SVG Export Plug-In . SVG Version: 6.00 Build 0)  -->
<svg version="1.1" id="Ñëîé_1" xmlns="http://www.w3.org/2000/svg" xmlns:xlink="http://www.w3.org/1999/xlink" x="0px" y="0px"
	 viewBox="0 0 2500 2500" style="enable-background:new 0 0 2500 2500;" xml:space="preserve">
<rect style="fill:#FFFFFF;" width="2500" height="2500"/>
<g>
	<g>
		<path style="fill:#313E67;" d="M996.241,115.71h-40.123V99.871h97.142v15.839h-40.129v108.758h-16.89V115.71z"/>
		<path style="fill:#313E67;" d="M1123.297,224.468h-15.836v-12.846h-0.358c-1.991,4.46-5.452,8.068-10.377,10.823
			c-4.932,2.755-10.624,4.135-17.072,4.135c-4.112,0-7.983-0.615-11.613-1.848c-3.643-1.233-6.838-3.136-9.596-5.719
			c-2.759-2.58-4.958-5.895-6.597-9.945c-1.646-4.047-2.466-8.825-2.466-14.343v-53.675h15.842v49.277
			c0,3.871,0.527,7.189,1.581,9.941c1.061,2.759,2.466,4.99,4.222,6.688c1.763,1.701,3.786,2.934,6.077,3.696
			c2.284,0.764,4.658,1.145,7.124,1.145c3.286,0,6.337-0.527,9.154-1.584c2.811-1.057,5.276-2.726,7.391-5.016
			c2.108-2.287,3.754-5.192,4.925-8.712c1.171-3.52,1.763-7.68,1.763-12.495v-42.94h15.836V224.468z"/>
		<path style="fill:#313E67;" d="M1191.929,154.778h-22.706v37.836c0,2.349,0.058,4.665,0.182,6.952
			c0.111,2.287,0.553,4.343,1.314,6.161c0.761,1.818,1.939,3.286,3.52,4.398c1.588,1.116,3.904,1.672,6.955,1.672
			c1.874,0,3.813-0.176,5.803-0.527c1.997-0.355,3.813-0.995,5.459-1.936v14.43c-1.88,1.054-4.314,1.786-7.306,2.199
			c-2.986,0.41-5.309,0.615-6.948,0.615c-6.103,0-10.826-0.852-14.164-2.55c-3.344-1.701-5.81-3.9-7.397-6.6
			c-1.581-2.697-2.524-5.719-2.811-9.063c-0.299-3.344-0.442-6.714-0.442-10.12v-43.467h-18.302v-13.728h18.302v-23.406h15.836
			v23.406h22.706V154.778z"/>
		<path style="fill:#313E67;" d="M1208.292,182.761c0-6.099,1.145-11.792,3.435-17.072c2.284-5.28,5.426-9.912,9.414-13.904
			c3.988-3.985,8.679-7.127,14.079-9.414c5.394-2.287,11.203-3.432,17.423-3.432c6.213,0,12.023,1.145,17.417,3.432
			c5.4,2.287,10.091,5.429,14.079,9.414c3.988,3.992,7.131,8.624,9.421,13.904c2.284,5.28,3.429,10.972,3.429,17.072
			c0,6.099-1.145,11.822-3.429,17.157c-2.29,5.341-5.432,9.974-9.421,13.903c-3.988,3.933-8.679,7.04-14.079,9.326
			c-5.393,2.29-11.203,3.432-17.417,3.432c-6.22,0-12.03-1.142-17.423-3.432c-5.4-2.287-10.091-5.394-14.079-9.326
			c-3.988-3.93-7.131-8.562-9.414-13.903C1209.437,194.582,1208.292,188.86,1208.292,182.761z M1225.188,182.761
			c0,4.223,0.644,8.126,1.932,11.701c1.295,3.581,3.11,6.63,5.459,9.151c2.349,2.524,5.218,4.519,8.62,5.986
			c3.403,1.467,7.215,2.199,11.444,2.199c4.222,0,8.035-0.732,11.438-2.199c3.403-1.467,6.272-3.461,8.621-5.986
			c2.349-2.521,4.164-5.569,5.458-9.151c1.288-3.575,1.932-7.479,1.932-11.701c0-4.226-0.644-8.123-1.932-11.704
			c-1.295-3.578-3.11-6.626-5.458-9.151c-2.349-2.521-5.218-4.515-8.621-5.982c-3.403-1.467-7.215-2.202-11.438-2.202
			c-4.229,0-8.042,0.735-11.444,2.202c-3.403,1.467-6.272,3.461-8.62,5.982c-2.349,2.524-4.164,5.572-5.459,9.151
			C1225.833,174.638,1225.188,178.535,1225.188,182.761z"/>
		<path style="fill:#313E67;" d="M1316.872,141.051h15.842V153.9h0.351c1.054-2.228,2.466-4.252,4.222-6.073
			c1.763-1.818,3.721-3.37,5.895-4.662c2.173-1.291,4.548-2.316,7.131-3.081c2.576-0.761,5.159-1.145,7.742-1.145
			c2.576,0,4.925,0.351,7.039,1.057l-0.703,17.069c-1.295-0.351-2.583-0.641-3.871-0.878c-1.295-0.234-2.583-0.351-3.878-0.351
			c-7.742,0-13.669,2.17-17.774,6.509c-4.105,4.343-6.155,11.086-6.155,20.24v41.883h-15.842V141.051z"/>
		<path style="fill:#313E67;" d="M1379.525,111.136c0-3.169,1.139-5.898,3.429-8.185c2.29-2.287,5.016-3.432,8.185-3.432
			c3.169,0,5.895,1.145,8.185,3.432c2.284,2.287,3.429,5.016,3.429,8.185c0,3.165-1.145,5.894-3.429,8.181
			c-2.29,2.29-5.016,3.432-8.185,3.432c-3.168,0-5.894-1.142-8.185-3.432C1380.663,117.03,1379.525,114.301,1379.525,111.136z
			 M1383.22,141.051h15.836v83.417h-15.836V141.051z"/>
		<path style="fill:#313E67;" d="M1424.573,151.259c4.463-4.105,9.622-7.186,15.491-9.239c5.862-2.053,11.73-3.081,17.599-3.081
			c6.096,0,11.347,0.764,15.751,2.29c4.398,1.526,8.002,3.578,10.82,6.158c2.817,2.583,4.899,5.543,6.246,8.887
			c1.347,3.344,2.023,6.835,2.023,10.472v42.589c0,2.931,0.059,5.631,0.176,8.094c0.117,2.462,0.293,4.811,0.534,7.039h-14.079
			c-0.351-4.222-0.527-8.448-0.527-12.671h-0.358c-3.52,5.397-7.684,9.213-12.492,11.438c-4.814,2.228-10.384,3.344-16.721,3.344
			c-3.871,0-7.567-0.527-11.086-1.584c-3.52-1.054-6.597-2.638-9.239-4.749c-2.641-2.114-4.723-4.723-6.246-7.833
			c-1.529-3.107-2.29-6.714-2.29-10.823c0-5.393,1.204-9.912,3.611-13.549c2.401-3.637,5.686-6.6,9.85-8.887
			c4.164-2.29,9.037-3.93,14.613-4.928c5.569-0.995,11.522-1.496,17.859-1.496h11.613v-3.52c0-2.111-0.41-4.222-1.23-6.334
			c-0.82-2.115-2.056-4.018-3.695-5.722c-1.646-1.698-3.695-3.048-6.161-4.047c-2.466-0.995-5.393-1.496-8.796-1.496
			c-3.051,0-5.719,0.296-8.009,0.882c-2.29,0.589-4.372,1.321-6.246,2.199c-1.88,0.882-3.585,1.91-5.107,3.081
			c-1.522,1.174-2.993,2.287-4.398,3.344L1424.573,151.259z M1469.276,184.345c-3.754,0-7.599,0.205-11.529,0.615
			c-3.93,0.413-7.508,1.204-10.735,2.375c-3.227,1.174-5.869,2.817-7.918,4.928c-2.056,2.111-3.077,4.811-3.077,8.097
			c0,4.811,1.607,8.269,4.834,10.38c3.227,2.114,7.599,3.168,13.116,3.168c4.34,0,8.035-0.732,11.086-2.199
			c3.045-1.467,5.511-3.37,7.391-5.719c1.874-2.346,3.227-4.958,4.047-7.833c0.82-2.872,1.23-5.719,1.23-8.533v-5.28H1469.276z"/>
		<path style="fill:#313E67;" d="M1516.789,91.426h15.836v133.042h-15.836V91.426z"/>
	</g>
	<g>
		<g>
			<g>
				<path style="fill:#FAE9DC;" d="M2364.023,1115.974c-185.532-678.256-1049.696-811.717-1766.13-460.419
					S-132.8,2343.52,1071.864,2383.272S2486.301,1562.99,2364.023,1115.974z"/>
			</g>
			<g>
				<g>
					<path style="fill:#F0CDB6;" d="M672.787,2408.574c-134.116,0-258.573-42.992-374.726-171.906
						c-56.357-62.547-92.923-127.789-111.793-199.459c-16.846-63.988-19.095-131.725-6.874-207.082
						c22.672-139.804,90.529-280.32,162.369-429.086c24.986-51.742,50.824-105.247,74.271-158.153
						c42.831-96.64,74.081-203.385,104.303-306.615c79.349-271.034,154.298-527.037,422.394-586.038
						c317.717-69.929,433.352,68.516,579.75,243.787c77.088,92.295,164.463,196.903,295.255,288.968
						c261.186,183.853,422.301,344.038,507.041,504.114c103.564,195.632,94.206,394.468-28.612,607.866
						c-67.585,117.428-154.756,188.493-274.331,223.643c-106.416,31.282-225.309,30.237-351.171,29.142
						c-124.372-1.095-252.97-2.21-382.399,27.274c-74.015,16.861-145.39,36.858-214.414,56.197
						C931.132,2371.211,797.762,2408.574,672.787,2408.574z M943.472,353.606l0.741,3.37
						c-264.104,58.123-338.495,312.22-417.253,581.238c-30.285,103.446-61.602,210.414-104.618,307.472
						c-23.493,53.009-49.355,106.564-74.366,158.357c-141.912,293.873-275.953,571.448-44.79,828.005
						c221.526,245.86,475.14,174.805,768.801,92.532c69.105-19.36,140.563-39.38,214.743-56.28
						c130.215-29.663,259.23-28.539,383.993-27.446c254.103,2.218,473.582,4.138,619.46-249.327
						c121.538-211.174,130.857-407.828,28.493-601.194c-84.21-159.077-244.652-318.495-504.914-501.698
						c-131.535-92.59-219.218-197.568-296.579-290.188c-144.895-173.472-259.341-310.498-572.97-241.472L943.472,353.606z"/>
				</g>
			</g>
			<g>
				<path style="fill:#FFF6F0;" d="M1094.171,907.057c181.227-87.201,330.009-225.151,477.896-144.992
					c147.887,80.159,21.239,324.423,159.099,433.351c137.859,108.928,432.274,296.437,280.098,620.08
					s-599.416,134.386-723.421,62.553c-124.005-71.833-231.482,339.59-575.472,210.898s-94.902-430.886-95.22-550.601
					c-0.319-119.715-223.449-316.218-70.599-447.924S836.154,1031.206,1094.171,907.057z"/>
			</g>
		</g>
		<g>
			<path style="fill:#38B8FF;" d="M1620.57,1166.296c143.499-307.588,367.316-318.506,413.716-206.598
				c46.401,111.908-281.135,281.967-283.865,426.213C1747.692,1530.157,1620.57,1166.296,1620.57,1166.296z"/>
		</g>
		<g>
			<path style="fill:#ADE2FF;" d="M1736.225,1371.848c322.626-218.357,497.312-139.203,497.312-35.483
				c0,103.72-476.803,132.719-513.14,212.485S1736.225,1371.848,1736.225,1371.848z"/>
		</g>
		<g>
			<path style="fill:#38B8FF;" d="M833.034,1169.079C707.557,827.895,483.741,887.893,478.282,983.45
				c-5.459,95.557,252.647,153.696,281.903,319.783C789.441,1469.32,833.034,1169.079,833.034,1169.079z"/>
		</g>
		<g>
			<path style="fill:#38B8FF;" d="M732.29,1294.339c-170.478-208.349-486.013-73.401-458.718,46.696
				c27.295,120.097,346.978-108.347,458.718,14.063C844.03,1477.509,732.29,1294.339,732.29,1294.339z"/>
		</g>
		<g>
			<path style="fill:#ADE2FF;" d="M704.293,1551.204C322.702,1357.412,27.92,1655.13,227.171,1698.698
				s245.751-129.459,543.162-45.129C1067.744,1737.9,704.293,1551.204,704.293,1551.204z"/>
		</g>
		<g>
			<path style="fill:#ADE2FF;" d="M1666.565,2098.539c209.998-238.078,474.554-229.825,480.954-103.198
				c6.4,126.627-578.028,153.061-578.028,153.061L1666.565,2098.539z"/>
		</g>
		<g>
			<g>
				<g>
					<path style="fill:#E6F7FF;" d="M1661.863,1298c-0.661,0-1.33-0.172-1.937-0.534c-1.799-1.072-2.389-3.4-1.316-5.198
						c1.471-2.469,148.552-247.879,263.188-323.902c1.738-1.158,4.094-0.682,5.254,1.064c1.158,1.745,0.681,4.098-1.064,5.255
						c-113.202,75.072-259.405,319.01-260.868,321.466C1664.413,1297.34,1663.154,1298,1661.863,1298z"/>
				</g>
			</g>
			<g>
				<g>
					<g>
						<path style="fill:#E6F7FF;" d="M1649.735,1518.783c-1.029,0-2.056-0.418-2.806-1.241c-1.407-1.549-1.293-3.946,0.257-5.354
							c6.614-6.013,6.614-6.013,10.956-10.299c4.287-4.234,13.207-13.041,37.485-36.489
							c24.313-23.484,105.391-64.991,197.165-100.938c49.872-19.536,173.233-64.57,241.183-60.692c2.09,0.119,3.69,1.909,3.571,4
							c-0.121,2.089-1.841,3.69-4.001,3.57c-106.479-6.041-385.719,114.183-432.652,159.515
							c-24.246,23.418-33.148,32.206-37.425,36.429c-4.452,4.398-4.452,4.398-11.183,10.515
							C1651.559,1518.458,1650.646,1518.783,1649.735,1518.783z"/>
					</g>
				</g>
				<g>
					<g>
						<path style="fill:#E6F7FF;" d="M2094.94,1372.001c-0.541,0-1.088-0.116-1.612-0.362l-84.881-39.907
							c-1.893-0.891-2.707-3.149-1.817-5.043c0.891-1.896,3.142-2.714,5.045-1.818l84.881,39.907
							c1.893,0.891,2.708,3.149,1.817,5.043C2097.726,1371.195,2096.364,1372.001,2094.94,1372.001z"/>
					</g>
				</g>
				<g>
					<g>
						<path style="fill:#E6F7FF;" d="M2024.578,1397.365c-0.62,0-1.244-0.152-1.824-0.47l-79.642-43.801
							c-1.836-1.01-2.505-3.315-1.496-5.148c1.012-1.835,3.317-2.501,5.148-1.496l79.642,43.801
							c1.836,1.009,2.505,3.315,1.496,5.148C2027.211,1396.654,2025.916,1397.365,2024.578,1397.365z"/>
					</g>
				</g>
			</g>
			<g>
				<g>
					<g>
						<path style="fill:#E6F7FF;" d="M262.353,1610.3c-1.449,0-2.832-0.835-3.463-2.244c-0.855-1.91,0-4.154,1.911-5.009
							c108.156-48.419,211.209-57.139,278.622-55.874c79.234,1.451,151.766,17.376,194.021,42.599
							c1.797,1.074,2.384,3.401,1.312,5.199c-1.072,1.798-3.4,2.382-5.199,1.312c-40.555-24.208-113.464-40.122-190.273-41.53
							c-66.621-1.214-168.505,7.367-275.385,55.215C263.397,1610.193,262.87,1610.3,262.353,1610.3z"/>
					</g>
				</g>
				<g>
					<g>
						<path style="fill:#E6F7FF;" d="M346.053,1641.39c-0.449,0-0.906-0.08-1.351-0.25c-1.956-0.746-2.936-2.938-2.189-4.894
							l26.092-68.344c0.748-1.955,2.934-2.936,4.894-2.189c1.956,0.747,2.936,2.938,2.189,4.894l-26.092,68.344
							C349.018,1640.461,347.579,1641.39,346.053,1641.39z"/>
					</g>
				</g>
				<g>
					<g>
						<path style="fill:#E6F7FF;" d="M404.304,1623.782c-0.347,0-0.7-0.048-1.049-0.149c-2.013-0.579-3.174-2.679-2.595-4.691
							l17.022-59.165c0.577-2.013,2.683-3.181,4.69-2.595c2.013,0.579,3.174,2.679,2.595,4.691l-17.022,59.165
							C407.468,1622.699,405.951,1623.782,404.304,1623.782z"/>
					</g>
				</g>
				<g>
					<g>
						<path style="fill:#E6F7FF;" d="M467.368,1610.3c-0.248,0-0.5-0.025-0.752-0.075c-2.053-0.413-3.381-2.412-2.969-4.465
							l10.832-53.796c0.413-2.053,2.409-3.382,4.465-2.969c2.053,0.413,3.381,2.413,2.969,4.465l-10.832,53.796
							C470.718,1609.056,469.136,1610.3,467.368,1610.3z"/>
					</g>
				</g>
				<g>
					<g>
						<path style="fill:#E6F7FF;" d="M741.526,1326.63c-1.106,0-2.201-0.481-2.951-1.408
							c-23.228-28.729-80.069-51.149-148.337-58.51c-80.086-8.632-166.296,3.925-242.741,35.371
							c-1.942,0.795-4.152-0.128-4.949-2.063c-0.796-1.936,0.127-4.152,2.063-4.948c173.767-71.477,352.888-32.712,399.86,25.385
							c1.317,1.628,1.064,4.014-0.565,5.331C743.206,1326.354,742.363,1326.63,741.526,1326.63z"/>
					</g>
				</g>
				<g>
					<g>
						<path style="fill:#E6F7FF;" d="M395.792,1326.631c-0.434,0-0.875-0.075-1.306-0.233c-1.966-0.721-2.974-2.899-2.253-4.865
							l17.022-46.413c0.721-1.967,2.901-2.975,4.865-2.253c1.966,0.721,2.974,2.899,2.253,4.865l-17.022,46.413
							C398.788,1325.679,397.337,1326.631,395.792,1326.631z"/>
					</g>
				</g>
				<g>
					<g>
						<path style="fill:#E6F7FF;" d="M435.823,1318.139c-0.439,0-0.886-0.077-1.322-0.239c-1.962-0.729-2.962-2.912-2.231-4.874
							l17.32-46.56c0.729-1.963,2.914-2.964,4.874-2.231c1.962,0.729,2.962,2.912,2.231,4.874l-17.32,46.56
							C438.809,1317.195,437.361,1318.139,435.823,1318.139z"/>
					</g>
				</g>
				<g>
					<g>
						<path style="fill:#E6F7FF;" d="M833.033,1271.58c-1.649,0-3.165-1.083-3.643-2.747c-0.183-0.634-18.752-64.337-62.559-133.344
							c-40.272-63.44-110.761-144.512-217.87-170.468c-2.034-0.494-3.284-2.543-2.791-4.578c0.494-2.034,2.541-3.275,4.578-2.791
							c109.64,26.571,181.566,109.262,222.597,173.952c44.341,69.908,63.148,134.495,63.333,135.139
							c0.578,2.013-0.586,4.112-2.599,4.689C833.73,1271.531,833.378,1271.58,833.033,1271.58z"/>
					</g>
				</g>
			</g>
			<g>
				<g>
					<path style="fill:#E6F7FF;" d="M1632.889,2104.732c-2.205,0-4.341-1.183-5.457-3.263c-1.62-3.011-0.488-6.765,2.523-8.384
						c10.745-5.776,265.261-141.224,444.134-119.906c3.394,0.403,5.82,3.484,5.413,6.878c-0.403,3.4-3.491,5.842-6.88,5.415
						c-174.887-20.832-434.211,117.125-436.806,118.519C1634.884,2104.495,1633.88,2104.732,1632.889,2104.732z"/>
				</g>
			</g>
		</g>
		<g>
			<path style="fill:none;stroke:#FFD194;stroke-width:12.382;stroke-linecap:round;stroke-miterlimit:10;" d="M1632.886,2098.539"
				/>
		</g>
		<g>
			<path style="fill:#65658C;" d="M791.521,2210.198c-34.195,0-62.016-27.821-62.016-61.995V876.994
				c0-34.174,27.821-61.995,62.016-61.995h891.141c34.174,0,61.995,27.821,61.995,61.995v1271.208
				c0,34.174-27.821,61.995-61.995,61.995H791.521z"/>
		</g>
		<g>
			<path style="fill:#FFFFFF;" d="M1682.517,2144.093H791.651c-12.774,0-23.129-10.355-23.129-23.129V875.724
				c0-12.774,10.355-23.129,23.129-23.129h890.866c12.774,0,23.129,10.355,23.129,23.129v1245.24
				C1705.647,2133.738,1695.291,2144.093,1682.517,2144.093z"/>
		</g>
		<g>
			<rect x="814.78" y="897.226" style="fill:#FAE9DC;" width="844.608" height="1197.381"/>
		</g>
		<g>
			<g>
				<g>
					<rect x="852.939" y="959.788" style="fill:#F0CDB6;" width="359.338" height="283.636"/>
				</g>
				<g>
					<path style="fill:#FFFFFF;" d="M1090.775,1087.936l-92.461-53.382c-3.156-1.822-7.102,0.456-7.102,4.1v106.764
						c0,3.645,3.945,5.922,7.102,4.1l92.461-53.382C1093.931,1094.314,1093.931,1089.759,1090.775,1087.936z"/>
				</g>
				<g>
					<rect x="874.749" y="1210.453" style="fill:#FFFFFF;" width="315.7" height="14.546"/>
				</g>
				<g>
					<rect x="1096.444" y="1210.453" style="fill:#FAE9DC;" width="94.005" height="14.546"/>
				</g>
			</g>
			<g>
				<g>
					<rect x="1261.892" y="959.788" style="fill:#F0CDB6;" width="359.338" height="283.636"/>
				</g>
				<g>
					<path style="fill:#FFFFFF;" d="M1499.728,1087.936l-92.461-53.382c-3.156-1.822-7.102,0.456-7.102,4.1v106.764
						c0,3.645,3.945,5.922,7.102,4.1l92.461-53.382C1502.884,1094.314,1502.884,1089.759,1499.728,1087.936z"/>
				</g>
				<g>
					<rect x="1283.702" y="1210.453" style="fill:#FFFFFF;" width="315.7" height="14.546"/>
				</g>
				<g>
					<rect x="1505.397" y="1210.453" style="fill:#FAE9DC;" width="94.005" height="14.546"/>
				</g>
			</g>
		</g>
		<g>
			<ellipse style="fill:#F0CDB6;" cx="620.798" cy="2266.671" rx="202.726" ry="40.313"/>
		</g>
		<g>
			<ellipse style="fill:#F0CDB6;" cx="1709.331" cy="2266.671" rx="202.726" ry="40.313"/>
		</g>
		<g>
			<g>
				<g>
					<g>
						<path style="fill:#5091B9;" d="M1120.901,2276.649h-105.77c-1.926,0-3.501-1.576-3.501-3.501c0-1.925,1.576-3.501,3.501-3.501
							h101.884c-0.035,0.07-0.035,0.175-0.035,0.245c0,1.156,0.315,2.276,0.945,3.361
							C1118.59,2274.478,1119.605,2275.634,1120.901,2276.649z"/>
					</g>
					<g>
						<path style="fill:#5091B9;" d="M1275.757,2273.147c0,1.926-1.576,3.501-3.501,3.501h-105.771
							c1.295-1.015,2.311-2.171,2.976-3.396c0.63-1.086,0.945-2.206,0.945-3.361c0-0.07,0-0.175-0.035-0.245h101.884
							C1274.182,2269.646,1275.757,2271.222,1275.757,2273.147z"/>
					</g>
				</g>
				<g>
					<g>
						<path style="fill:#5091B9;" d="M1147.194,2207.851v49.156c-1.12-0.105-2.311-0.14-3.501-0.14c-1.19,0-2.381,0.035-3.501,0.14
							v-49.156c0-1.926,1.576-3.501,3.501-3.501C1145.619,2204.35,1147.194,2205.925,1147.194,2207.851z"/>
					</g>
					<g>
						<path style="fill:#5091B9;" d="M1147.194,2282.811v72.929c0,1.926-1.575,3.501-3.501,3.501c-1.926,0-3.501-1.575-3.501-3.501
							v-72.929c0.84,0.035,1.681,0.07,2.556,0.105h1.891C1145.514,2282.881,1146.354,2282.846,1147.194,2282.811z"/>
					</g>
				</g>
				<g>
					<g>
						<g>
							<g>
								<path style="fill:#5091B9;" d="M1142.748,2282.916l-64.246,64.247c-0.7,0.7-1.575,1.015-2.486,1.015
									c-0.91,0-1.786-0.315-2.486-1.015c-1.365-1.365-1.365-3.571,0-4.937l23.143-23.143l37.113-37.112
									c2.031,0.42,4.166,0.7,6.407,0.84C1141.033,2282.846,1141.873,2282.881,1142.748,2282.916z"/>
							</g>
							<g>
								<path style="fill:#5091B9;" d="M1208.64,2217.024l-44.5,44.5c-1.961-1.156-4.341-2.136-7.002-2.871l46.565-46.566
									c1.365-1.4,3.571-1.4,4.937,0C1210.005,2213.453,1210.005,2215.658,1208.64,2217.024z"/>
							</g>
						</g>
						<g>
							<g>
								<path style="fill:#5091B9;" d="M1132.349,2281.691l-69.953,22.372l-36.202,11.589c-0.35,0.14-0.735,0.175-1.085,0.175
									c-1.47,0-2.836-0.945-3.326-2.416c-0.595-1.856,0.42-3.816,2.276-4.411l31.791-10.189l66.382-21.217
									C1124.857,2279.345,1128.323,2280.745,1132.349,2281.691z"/>
							</g>
							<g>
								<path style="fill:#5091B9;" d="M1261.402,2240.377l-33.716,10.783l-57.314,18.346c-0.105-2.241-1.435-4.376-3.641-6.162
									l53.603-17.156l38.933-12.464c1.856-0.595,3.816,0.42,4.411,2.276C1264.274,2237.821,1263.258,2239.816,1261.402,2240.377z"
									/>
							</g>
						</g>
					</g>
					<g>
						<g>
							<g>
								<path style="fill:#5091B9;" d="M1130.249,2258.653c-2.661,0.735-5.042,1.716-7.002,2.871l-44.5-44.5
									c-1.365-1.365-1.365-3.571,0-4.937c1.365-1.4,3.571-1.4,4.937,0L1130.249,2258.653z"/>
							</g>
							<g>
								<path style="fill:#5091B9;" d="M1213.857,2347.162c-0.7,0.7-1.576,1.015-2.486,1.015c-0.91,0-1.786-0.315-2.486-1.015
									l-26.189-26.189l-35.502-35.502l-2.556-2.556c0.875-0.035,1.716-0.07,2.556-0.105c2.241-0.14,4.376-0.42,6.407-0.84
									l37.113,37.112l23.143,23.143C1215.222,2343.591,1215.222,2345.797,1213.857,2347.162z"/>
							</g>
						</g>
						<g>
							<g>
								<path style="fill:#5091B9;" d="M1067.053,2246.188l53.603,17.156c-2.206,1.786-3.536,3.921-3.641,6.162l-57.314-18.346
									l-33.716-10.783c-1.855-0.56-2.871-2.556-2.276-4.376c0.595-1.856,2.556-2.871,4.411-2.276L1067.053,2246.188z"/>
							</g>
							<g>
								<path style="fill:#5091B9;" d="M1265.604,2313.411c-0.49,1.471-1.855,2.416-3.326,2.416c-0.35,0-0.735-0.035-1.085-0.175
									l-36.202-11.589l-69.953-22.372c4.026-0.946,7.492-2.346,10.118-4.097l66.382,21.217l31.791,10.189
									C1265.184,2309.595,1266.199,2311.555,1265.604,2313.411z"/>
							</g>
						</g>
					</g>
				</g>
			</g>
			<g>
				<path style="fill:#5091B9;" d="M1242.216,2274.443c0,0,0,0,0-0.035c-0.14-0.875-0.35-1.751-0.63-2.626
					c-1.996-6.687-6.827-12.955-13.9-18.486c-2.241-1.716-4.692-3.396-7.353-4.972c-8.018-4.796-17.891-8.823-29.06-11.799
					c-2.591-0.7-5.217-1.331-7.948-1.926c-11.134-2.381-23.318-3.781-36.132-3.991c-1.155-0.035-2.311-0.035-3.501-0.035
					c-1.19,0-2.346,0-3.501,0.035c-12.814,0.21-24.998,1.61-36.132,3.991c-2.731,0.595-5.357,1.225-7.948,1.926
					c-11.169,2.976-21.042,7.002-29.06,11.799c-2.661,1.576-5.112,3.256-7.353,4.972c-7.072,5.531-11.904,11.799-13.9,18.486
					c-0.28,0.875-0.49,1.751-0.63,2.626c0,0.035,0,0.035,0,0.035c-0.28,1.435-0.42,2.871-0.42,4.341
					c0,8.017,3.991,15.545,11.099,22.162c1.961,1.856,4.131,3.606,6.547,5.252c8.823,6.267,20.587,11.414,34.276,15.02
					c2.591,0.665,5.287,1.295,8.018,1.891c10.959,2.275,22.933,3.641,35.502,3.851c1.156,0.035,2.311,0.035,3.501,0.035
					c1.19,0,2.346,0,3.501-0.035c12.569-0.21,24.543-1.576,35.502-3.851c2.731-0.595,5.427-1.226,8.018-1.891
					c13.689-3.606,25.453-8.753,34.276-15.02c2.416-1.646,4.587-3.396,6.547-5.252c7.107-6.617,11.099-14.145,11.099-22.162
					C1242.636,2277.314,1242.496,2275.878,1242.216,2274.443z M1122.231,2270.907c-0.455-0.28-0.91-0.595-1.33-0.945
					c-1.296-1.015-2.311-2.171-2.976-3.396c0.525-0.98,1.296-1.891,2.241-2.731c0.315-0.315,0.665-0.595,1.015-0.875
					c1.751-1.365,4.026-2.521,6.687-3.501c0.245-0.07,0.49-0.175,0.77-0.245c2.171-0.736,4.587-1.331,7.177-1.68
					c1.401-0.245,2.871-0.385,4.376-0.491c1.12-0.07,2.311-0.105,3.501-0.105c1.19,0,2.381,0.035,3.501,0.105
					c1.506,0.105,2.976,0.245,4.376,0.491c2.591,0.35,5.007,0.945,7.178,1.68c0.28,0.07,0.525,0.175,0.77,0.245
					c2.661,0.98,4.937,2.136,6.688,3.501c0.35,0.28,0.7,0.56,1.015,0.875c0.945,0.84,1.715,1.751,2.241,2.731
					c-0.665,1.225-1.681,2.381-2.976,3.396c-0.42,0.35-0.875,0.665-1.33,0.945c-0.035,0.035-0.07,0.035-0.105,0.07
					c0.42,0.245,0.805,0.526,1.156,0.806c0.35,0.28,0.7,0.56,1.015,0.875c0.945,0.84,1.715,1.751,2.241,2.731
					c-0.665,1.226-1.681,2.381-2.976,3.396c-0.42,0.35-0.875,0.665-1.33,0.945c-2.626,1.751-6.092,3.152-10.118,4.097
					c-0.455,0.104-0.945,0.21-1.436,0.279c-2.031,0.421-4.166,0.701-6.407,0.841c-0.84,0.035-1.68,0.07-2.556,0.105h-1.891
					c-0.875-0.035-1.715-0.07-2.556-0.105c-2.241-0.14-4.376-0.42-6.407-0.841c-0.49-0.07-0.98-0.175-1.436-0.279
					c-4.026-0.946-7.492-2.346-10.118-4.097c-0.455-0.28-0.91-0.595-1.33-0.945c-1.296-1.016-2.311-2.171-2.976-3.396
					c0.525-0.98,1.296-1.89,2.241-2.731c0.315-0.315,0.665-0.595,1.015-0.875c0.35-0.28,0.735-0.56,1.156-0.806
					C1122.301,2270.942,1122.266,2270.942,1122.231,2270.907z"/>
			</g>
			<g>
				<path style="fill:#5091B9;" d="M1023.538,2230.534v6.578c0,0,7.453-1.168,5.798-3.558
					C1027.682,2231.164,1023.538,2230.534,1023.538,2230.534z"/>
			</g>
			<g>
				<path style="fill:#5091B9;" d="M1011.629,2266.46v6.687c0,0,6.482-1.768,4.985-4.289
					C1015.117,2266.338,1011.629,2266.46,1011.629,2266.46z"/>
			</g>
			<g>
				<path style="fill:#5091B9;" d="M1021.613,2305.805l0.019,6.856c0,0,8.729-2.405,6.405-4.886
					C1025.713,2305.292,1021.613,2305.805,1021.613,2305.805z"/>
			</g>
			<g>
				<path style="fill:#5091B9;" d="M1072.506,2338.103l0.035,7.056c0,0,6.149-2.566,4.141-4.929
					C1074.672,2337.867,1072.506,2338.103,1072.506,2338.103z"/>
			</g>
			<g>
				<path style="fill:#5091B9;" d="M1209.664,2206.94v7.615c0,0-2.827,3.904-4.648-0.595
					C1203.196,2209.461,1209.664,2206.94,1209.664,2206.94z"/>
			</g>
			<g>
				<path style="fill:#5091B9;" d="M1077.723,2207.334l0.025,7.606c0,0,3.778,1.965,4.527-0.437
					C1083.022,2212.1,1077.723,2207.334,1077.723,2207.334z"/>
			</g>
			<g>
				<path style="fill:#5091B9;" d="M1263.849,2230.219v6.932c0,0-5.741,0.458-6.413-2.193
					C1256.764,2232.306,1263.849,2230.219,1263.849,2230.219z"/>
			</g>
			<g>
				<path style="fill:#79C5EE;" d="M1241.586,2262.959c-1.996-6.687-6.827-12.955-13.9-18.486c-2.241-1.716-4.692-3.396-7.353-4.972
					c-8.018-4.796-17.891-8.823-29.06-11.799c-2.591-0.7-5.217-1.331-7.948-1.926c-5.672-1.225-11.624-2.171-17.786-2.836
					c-5.917-0.665-12.079-1.05-18.346-1.155c-1.155-0.035-2.311-0.035-3.501-0.035c-1.19,0-2.346,0-3.501,0.035
					c-12.814,0.21-24.998,1.611-36.132,3.991c-2.731,0.595-5.357,1.225-7.948,1.926c-11.169,2.976-21.042,7.002-29.06,11.799
					c-2.661,1.576-5.112,3.256-7.353,4.972c-7.072,5.532-11.904,11.799-13.9,18.486c-0.7,2.311-1.05,4.621-1.05,7.002
					c0,1.506,0.14,3.011,0.42,4.447c0,0.035,0,0.035,0,0.035c0.63,3.361,1.961,6.617,3.956,9.733
					c1.75,2.766,3.991,5.427,6.722,7.948c1.961,1.856,4.131,3.606,6.547,5.252c8.823,6.267,20.587,11.414,34.276,15.02
					c2.591,0.665,5.287,1.295,8.018,1.891c10.959,2.275,22.933,3.641,35.502,3.851c1.156,0.035,2.311,0.035,3.501,0.035
					c1.19,0,2.346,0,3.501-0.035c12.569-0.21,24.543-1.576,35.502-3.851c2.731-0.595,5.427-1.226,8.018-1.891
					c13.689-3.606,25.453-8.753,34.276-15.02c2.416-1.645,4.587-3.396,6.547-5.252c5.777-5.357,9.488-11.344,10.678-17.68
					c0,0,0,0,0-0.035c0.28-1.436,0.42-2.941,0.42-4.447C1242.636,2267.58,1242.286,2265.27,1241.586,2262.959z M1166.486,2269.961
					c-0.42,0.35-0.875,0.665-1.33,0.945c-1.646,1.085-3.641,2.066-5.882,2.871c-0.875,0.315-1.82,0.595-2.766,0.84
					c-0.49,0.14-0.98,0.28-1.47,0.385c-0.455,0.104-0.945,0.21-1.436,0.28c-2.031,0.42-4.166,0.7-6.407,0.84
					c-0.84,0.035-1.68,0.07-2.556,0.105h-1.891c-0.875-0.035-1.715-0.07-2.556-0.105c-2.241-0.14-4.376-0.42-6.407-0.84
					c-0.49-0.07-0.98-0.175-1.436-0.28c-0.49-0.105-0.98-0.246-1.47-0.385c-0.945-0.245-1.891-0.525-2.766-0.84
					c-2.241-0.805-4.236-1.786-5.882-2.871c-0.455-0.28-0.91-0.595-1.33-0.945c-0.28-0.21-0.56-0.455-0.805-0.7
					c-0.91-0.84-1.646-1.751-2.171-2.696c-0.63-1.085-0.945-2.206-0.945-3.361c0-7.177,11.939-13.024,26.714-13.024
					c2.521,0,4.937,0.175,7.247,0.525c-2.311,2.101-4.901,4.202-7.772,6.232h0.525c0.595,0,1.19,0,1.786,0.035
					c0.455,0,0.945,0.035,1.401,0.07c0.21,0,0.385,0,0.525,0.035c0.665,0.035,1.365,0.07,2.031,0.175
					c4.551,0.49,8.683,1.54,12.009,2.976c0.595,0.28,1.19,0.56,1.751,0.841c2.941,1.54,5.147,3.431,6.267,5.497
					C1168.797,2267.791,1167.781,2268.946,1166.486,2269.961z"/>
			</g>
			<g>
				<path style="fill:#5091B9;" d="M1170.407,2263.204c0,1.156-0.315,2.276-0.945,3.361c-3.011-5.531-13.41-9.628-25.769-9.628
					c-12.359,0-22.758,4.097-25.769,9.628c-0.63-1.085-0.945-2.206-0.945-3.361c0-7.177,11.939-13.024,26.714-13.024
					S1170.407,2256.027,1170.407,2263.204z"/>
			</g>
			<g>
				<path style="fill:#5091B9;" d="M1275.757,2266.46v6.687c0,0-8.753,1.856-9.068-2.241
					C1266.374,2266.81,1275.757,2266.46,1275.757,2266.46z"/>
			</g>
			<g>
				<path style="fill:#5091B9;" d="M1214.881,2338.007v6.687c0,0-3.913-1.681-3.808-4.201
					C1211.178,2337.972,1214.881,2338.007,1214.881,2338.007z"/>
			</g>
			<g>
				<path style="fill:#5091B9;" d="M1265.774,2305.516l-0.009,6.616c0,0-6.061-0.629-5.798-2.992
					C1260.23,2306.776,1265.774,2305.516,1265.774,2305.516z"/>
			</g>
			<g>
				<g>
					<g>
						<path style="fill:#79C5EE;" d="M1120.901,2269.961h-105.77c-1.926,0-3.501-1.576-3.501-3.501s1.576-3.501,3.501-3.501h101.884
							c-0.035,0.07-0.035,0.175-0.035,0.245c0,1.156,0.315,2.276,0.945,3.361c0.525,0.945,1.26,1.855,2.171,2.696
							C1120.341,2269.506,1120.621,2269.751,1120.901,2269.961z"/>
					</g>
					<g>
						<path style="fill:#79C5EE;" d="M1275.757,2266.46c0,1.925-1.576,3.501-3.501,3.501h-105.771
							c1.295-1.015,2.311-2.171,2.976-3.396c0.63-1.085,0.945-2.206,0.945-3.361c0-0.07,0-0.175-0.035-0.245h101.884
							C1274.182,2262.959,1275.757,2264.535,1275.757,2266.46z"/>
					</g>
				</g>
				<g>
					<g>
						<path style="fill:#79C5EE;" d="M1147.194,2201.163v49.156c-1.12-0.105-2.311-0.14-3.501-0.14c-1.19,0-2.381,0.035-3.501,0.14
							v-49.156c0-1.926,1.576-3.501,3.501-3.501C1145.619,2197.662,1147.194,2199.238,1147.194,2201.163z"/>
					</g>
					<g>
						<path style="fill:#79C5EE;" d="M1147.194,2276.123v72.929c0,1.926-1.575,3.501-3.501,3.501c-1.926,0-3.501-1.575-3.501-3.501
							v-72.929c0.84,0.035,1.681,0.07,2.556,0.105h1.891C1145.514,2276.194,1146.354,2276.158,1147.194,2276.123z"/>
					</g>
				</g>
				<g>
					<g>
						<g>
							<g>
								<path style="fill:#79C5EE;" d="M1142.748,2276.228l-64.246,64.247c-0.7,0.7-1.575,1.016-2.486,1.016
									c-0.91,0-1.786-0.315-2.486-1.016c-1.365-1.365-1.365-3.571,0-4.937l23.143-23.143l37.113-37.112
									c2.031,0.42,4.166,0.7,6.407,0.84C1141.033,2276.158,1141.873,2276.194,1142.748,2276.228z"/>
							</g>
							<g>
								<path style="fill:#79C5EE;" d="M1208.64,2210.336l-44.5,44.5c-1.961-1.156-4.341-2.136-7.002-2.871l46.565-46.566
									c1.365-1.4,3.571-1.4,4.937,0C1210.005,2206.765,1210.005,2208.971,1208.64,2210.336z"/>
							</g>
						</g>
						<g>
							<g>
								<path style="fill:#79C5EE;" d="M1132.349,2275.003l-69.953,22.372l-36.202,11.589c-0.35,0.14-0.735,0.175-1.085,0.175
									c-1.47,0-2.836-0.945-3.326-2.416c-0.595-1.856,0.42-3.816,2.276-4.412l31.791-10.188l66.382-21.217
									C1124.857,2272.657,1128.323,2274.058,1132.349,2275.003z"/>
							</g>
							<g>
								<path style="fill:#79C5EE;" d="M1261.402,2233.689l-33.716,10.783l-57.314,18.347c-0.105-2.241-1.435-4.376-3.641-6.162
									l53.603-17.156l38.933-12.464c1.856-0.595,3.816,0.42,4.411,2.276C1264.274,2231.134,1263.258,2233.129,1261.402,2233.689z"
									/>
							</g>
						</g>
					</g>
					<g>
						<g>
							<g>
								<path style="fill:#79C5EE;" d="M1130.249,2251.965c-2.661,0.735-5.042,1.716-7.002,2.871l-44.5-44.5
									c-1.365-1.365-1.365-3.571,0-4.937c1.365-1.4,3.571-1.4,4.937,0L1130.249,2251.965z"/>
							</g>
							<g>
								<path style="fill:#79C5EE;" d="M1213.857,2340.475c-0.7,0.7-1.576,1.016-2.486,1.016c-0.91,0-1.786-0.315-2.486-1.016
									l-26.189-26.188l-35.502-35.502l-2.556-2.556c0.875-0.035,1.716-0.07,2.556-0.105c2.241-0.14,4.376-0.42,6.407-0.84
									l37.113,37.112l23.143,23.143C1215.222,2336.904,1215.222,2339.109,1213.857,2340.475z"/>
							</g>
						</g>
						<g>
							<g>
								<path style="fill:#79C5EE;" d="M1120.656,2256.657c-2.206,1.786-3.536,3.921-3.641,6.162l-57.314-18.347l-33.716-10.783
									c-1.855-0.56-2.871-2.556-2.276-4.376c0.595-1.856,2.556-2.871,4.411-2.276l38.933,12.464L1120.656,2256.657z"/>
							</g>
							<g>
								<path style="fill:#79C5EE;" d="M1265.604,2306.724c-0.49,1.471-1.855,2.416-3.326,2.416c-0.35,0-0.735-0.035-1.085-0.175
									l-36.202-11.589l-69.953-22.372c4.026-0.946,7.492-2.346,10.118-4.097l66.382,21.217l31.791,10.188
									C1265.184,2302.907,1266.199,2304.868,1265.604,2306.724z"/>
							</g>
						</g>
					</g>
				</g>
			</g>
			<g>
				<path style="fill:#5091B9;" d="M1117.014,2262.819l0.42,0.14h-0.42C1116.979,2262.924,1116.979,2262.854,1117.014,2262.819z"/>
			</g>
			<g>
				<path style="fill:#5091B9;" d="M1170.372,2262.819c0.035,0.035,0.035,0.105,0,0.14h-0.42L1170.372,2262.819z"/>
			</g>
			<g>
				<path style="fill:#333333;" d="M1165.541,2222.94c-0.385,9.348-5.182,18.941-14.6,27.764c-2.311-0.35-4.726-0.525-7.247-0.525
					c-14.775,0-26.714,5.847-26.714,13.024c0,1.156,0.315,2.276,0.945,3.361c0.525,0.945,1.26,1.855,2.171,2.696
					c-0.56,0.245-1.155,0.49-1.751,0.7c-17.786,6.967-40.788,12.114-69.218,14.214c-1.996-3.115-3.326-6.372-3.956-9.733
					c0,0,0,0,0-0.035c-0.28-1.436-0.42-2.941-0.42-4.447h-29.62c-1.926,0-3.501-1.576-3.501-3.501s1.576-3.501,3.501-3.501h30.67
					c1.996-6.687,6.827-12.955,13.9-18.486l-33.716-10.783c-1.855-0.56-2.871-2.556-2.276-4.376
					c0.595-1.856,2.556-2.871,4.411-2.276l38.933,12.464c8.018-4.796,17.891-8.823,29.06-11.799l-17.366-17.366
					c-1.365-1.365-1.365-3.571,0-4.937c1.365-1.4,3.571-1.4,4.937,0l20.377,20.377c11.134-2.381,23.318-3.781,36.132-3.991v-20.622
					c0-1.926,1.576-3.501,3.501-3.501c1.926,0,3.501,1.575,3.501,3.501v20.622C1153.462,2221.89,1159.624,2222.275,1165.541,2222.94
					z"/>
			</g>
		</g>
		<g>
			<g>
				<path style="fill:#FFF6F0;" d="M1147.418,1408.712c90.653-43.619,165.077-112.625,239.052-72.528
					c73.976,40.097,10.624,162.282,79.584,216.77c68.96,54.488,216.232,148.283,140.11,310.176s-299.839,67.222-361.869,31.29
					s-115.792,169.869-287.862,105.495c-172.07-64.374-47.472-215.537-47.631-275.421c-0.159-59.884-111.773-158.178-35.315-224.06
					C949.947,1434.552,1018.353,1470.814,1147.418,1408.712z"/>
			</g>
			<g>
				<g>
					<path style="fill:#FFAB3B;" d="M1558.725,1746.936v4.741c0,102.437-1.874,202.26-6.198,210.147
						c-5.574,10.2-238.619,11.217-417.681,8.373c-1.573-0.023-3.146-0.046-4.742-0.093c-1.573-0.023-3.145-0.023-4.718-0.069
						c-105.629-1.758-190.257-4.903-194.142-8.211c-4.949-4.256-9.598-105.189-12.143-210.147c-0.069-3.146-0.139-6.314-0.231-9.46
						c-1.203-53.196-1.873-106.693-1.758-148.509c0.023-5.481,0.046-10.732,0.092-15.774c0.324-38.186,1.434-63.326,3.562-63.72
						c14.571-2.799,624.29,2.984,631.76,8.974c1.827,1.48,3.33,27.939,4.371,67.235c0.139,4.718,0.255,9.621,0.37,14.687
						c0.902,39.157,1.365,88.12,1.434,137.107C1558.702,1743.791,1558.725,1745.364,1558.725,1746.936z"/>
				</g>
				<g>
					<path style="fill:#FF643B;" d="M1556.898,1590.425l-45.656-0.879l-594.037-11.611c0.324-38.186,1.434-63.326,3.562-63.72
						c14.571-2.799,624.29,2.984,631.76,8.974C1554.354,1524.67,1555.857,1551.129,1556.898,1590.425z"/>
				</g>
				<g>
					<g>
						<path style="fill:#FF643B;" d="M985.535,1618.854c2.784-5.439,221.061-4.736,223.706,3.552s1.064,287.797-0.904,298.393
							c-3.299,17.761-219.876,23.109-223.516,0.058C981.445,1899.485,980.687,1628.326,985.535,1618.854z"/>
					</g>
					<g>
						<path style="fill:#FF863B;" d="M1268.63,1618.854c2.784-5.439,221.061-4.736,223.705,3.552
							c2.645,8.289,1.064,287.797-0.904,298.393c-3.299,17.761-219.876,23.109-223.516,0.058
							C1264.54,1899.485,1263.782,1628.326,1268.63,1618.854z"/>
					</g>
					<g>
						<g>
							<g>
								<g>
									<g>
										<rect x="1028.422" y="1815.994" style="fill:#FAD6B9;" width="135.885" height="10.356"/>
									</g>
								</g>
							</g>
							<g>
								<g>
									<g>
										<rect x="1028.422" y="1840.279" style="fill:#FAD6B9;" width="135.885" height="10.356"/>
									</g>
								</g>
							</g>
							<g>
								<g>
									<g>
										<rect x="1028.422" y="1864.564" style="fill:#FAD6B9;" width="135.885" height="10.356"/>
									</g>
								</g>
							</g>
							<g>
								<g>
									<g>
										<rect x="1028.422" y="1888.849" style="fill:#FAD6B9;" width="77.601" height="10.356"/>
									</g>
								</g>
							</g>
						</g>
						<g>
							<g>
								<g>
									<path style="fill:#FF863B;" d="M1161.38,1719.707c2.612-0.111,5.129,0.166,7.526,0.811
										c-1.534-10.801-5.536-20.749-11.402-29.282c-4.44,4.966-10.788,8.18-17.91,8.483
										c-14.198,0.605-26.214-10.563-26.827-24.935c-0.182-4.271,0.651-8.336,2.33-11.961c-5.326-1.131-10.892-1.596-16.585-1.353
										c-4.152,0.177-8.199,0.734-12.119,1.626c2.281,3.683,3.673,7.993,3.872,12.648c0.613,14.372-10.409,26.523-24.607,27.128
										c-8.639,0.368-16.458-3.622-21.406-10.044c-4.825,7.473-8.221,15.948-9.846,25.027c1.943-0.581,3.986-0.917,6.085-1.007
										c14.198-0.605,26.213,10.541,26.827,24.935c0.582,13.648-9.343,25.3-22.512,26.948c7.698,11.647,18.799,20.75,31.788,25.9
										c-0.911-2.474-1.472-5.144-1.591-7.946c-0.614-14.394,10.409-26.523,24.606-27.128
										c14.198-0.605,26.213,10.541,26.827,24.935c0.164,3.841-0.506,7.538-1.862,10.878
										c12.971-4.719,24.057-13.273,31.973-24.296c-10.936-2.612-19.267-12.331-19.775-24.239
										C1136.159,1732.441,1147.182,1720.312,1161.38,1719.707z M1102.234,1748.715c-9.979,0.426-18.432-7.431-18.863-17.532
										c-0.431-10.101,7.323-18.649,17.302-19.074c9.979-0.426,18.432,7.431,18.863,17.532
										C1119.966,1739.742,1112.212,1748.29,1102.234,1748.715z"/>
								</g>
								<g>
									<path style="fill:#FF863B;" d="M1107.12,1713.305c-1.949-0.596-4.019-0.892-6.162-0.801
										c-9.979,0.426-17.732,8.974-17.302,19.074c0.112,2.621,0.754,5.084,1.831,7.279c-7.074-2.256-12.362-8.8-12.701-16.731
										c-0.431-10.101,7.323-18.649,17.301-19.074C1097.478,1702.737,1104.054,1706.962,1107.12,1713.305z"/>
								</g>
								<g>
									<path style="fill:#FF863B;" d="M1145.964,1762.018l10.584,9.056c0,0-6.6,7.797-14.076,2.411
										C1134.996,1768.1,1145.964,1762.018,1145.964,1762.018z"/>
								</g>
								<g>
									<path style="fill:#FF863B;" d="M1113.99,1786.313l10.584,9.057c0,0,12.184-11.116,5.13-19.202
										C1122.651,1768.083,1113.99,1786.313,1113.99,1786.313z"/>
								</g>
								<g>
									<path style="fill:#FF863B;" d="M1104.514,1653.766l10.584,9.056c0,0-11.646,7.469-16.35,4.138
										C1094.043,1663.63,1104.514,1653.766,1104.514,1653.766z"/>
								</g>
								<g>
									<path style="fill:#FF863B;" d="M1146.92,1682.179l10.584,9.057c0,0,4.81,11.589-4.709,9.143
										C1143.276,1697.932,1146.92,1682.179,1146.92,1682.179z"/>
								</g>
								<g>
									<path style="fill:#FF863B;" d="M1023.823,1708.799l10.584,9.056c0,0,8.147-2.996,5.444-9.74
										C1037.148,1701.371,1023.823,1708.799,1023.823,1708.799z"/>
								</g>
								<g>
									<path style="fill:#FFAB3B;" d="M1150.796,1710.651c2.612-0.111,5.128,0.166,7.527,0.811
										c-1.534-10.801-5.537-20.749-11.402-29.282c-4.44,4.966-10.789,8.18-17.91,8.483c-4.71,0.201-9.163-0.9-13.053-2.975
										c-7.849-4.17-13.364-12.356-13.774-21.96c-0.182-4.271,0.651-8.336,2.33-11.961c-5.326-1.131-10.892-1.596-16.585-1.353
										c-4.152,0.177-8.199,0.735-12.119,1.626c2.282,3.683,3.673,7.993,3.872,12.648c0.613,14.371-10.409,26.523-24.607,27.128
										c-8.639,0.368-16.458-3.622-21.406-10.044c-4.825,7.473-8.221,15.948-9.846,25.027c1.943-0.581,3.986-0.917,6.085-1.007
										c12.903-0.55,24.006,8.62,26.395,21.105c0.232,1.235,0.376,2.519,0.432,3.83c0.582,13.648-9.343,25.3-22.512,26.948
										c7.698,11.647,18.798,20.749,31.788,25.9c-0.911-2.474-1.472-5.144-1.591-7.946c-0.614-14.394,10.409-26.523,24.606-27.128
										c14.198-0.605,26.213,10.541,26.827,24.935c0.164,3.841-0.506,7.537-1.862,10.878
										c12.971-4.718,24.057-13.273,31.973-24.296c-10.936-2.612-19.267-12.331-19.775-24.239
										C1125.575,1723.384,1136.598,1711.256,1150.796,1710.651z M1091.65,1739.659c-9.822,0.419-18.152-7.172-18.819-17.036
										c-0.029-0.157-0.037-0.338-0.044-0.496c-0.431-10.101,7.323-18.649,17.301-19.074c3.683-0.157,7.146,0.805,10.086,2.603
										c5.029,3.068,8.505,8.557,8.777,14.929C1109.382,1730.685,1101.628,1739.233,1091.65,1739.659z"/>
								</g>
							</g>
						</g>
					</g>
				</g>
				<g>
					<g>
						<g>
							<g>
								<rect x="956.721" y="1529.079" style="fill:#FE9031;" width="58.618" height="8.229"/>
							</g>
						</g>
						<g>
							<g>
								<rect x="956.721" y="1544.067" style="fill:#FE9031;" width="58.618" height="8.229"/>
							</g>
						</g>
						<g>
							<g>
								<rect x="956.721" y="1559.055" style="fill:#FE9031;" width="58.618" height="8.229"/>
							</g>
						</g>
					</g>
					<g>
						<g>
							<rect x="1046.952" y="1536.099" style="fill:#FFF4EB;" width="439.381" height="24.165"/>
						</g>
					</g>
				</g>
			</g>
			<g>
				<g>
					<path style="fill:#1D3442;" d="M1211.702,2016.122c0,0,1.69,5.634,4.225,6.761c2.535,1.127,201.412,3.099,203.384,1.69
						c1.972-1.408,3.662-6.197,3.662-6.197s-87.326-7.042-119.439-8.169C1271.421,2009.079,1211.702,2016.122,1211.702,2016.122z"/>
				</g>
				<g>
					<path style="fill:#28495C;" d="M1244.66,1992.741c-16.902,9.859-34.649,20.282-32.958,23.381s209.3,5.352,211.272,2.254
						c1.972-3.099-31.832-25.634-31.832-25.634l-67.806-1.408L1244.66,1992.741z"/>
				</g>
				<g>
					<path style="fill:#1D3442;" d="M1244.66,1992.741c0,0-11.55-84.227-7.887-87.607c3.662-3.38,159.44-1.972,163.102,2.817
						c3.662,4.789-8.733,84.79-8.733,84.79H1244.66z"/>
				</g>
				<g>
					<path style="fill:#79C5EE;" d="M1390.318,1920.723c-0.006,0.277-0.012,0.56-0.018,0.855c-0.006,0.141-0.012,0.277-0.012,0.424
						c-0.1,2.824-0.36,6.344-0.725,10.289c-0.035,0.36-0.065,0.719-0.106,1.091c-1.061,11.055-2.913,25.106-4.487,36.32
						c-0.053,0.371-0.106,0.731-0.153,1.091c-1.492,10.513-2.694,18.284-2.694,18.284h-127.716c0,0-1.061-7.73-2.388-18.284
						c-0.047-0.36-0.089-0.725-0.136-1.091c-0.041-0.318-0.083-0.643-0.124-0.967c-1.327-10.701-2.86-23.814-3.838-34.675
						c-0.035-0.366-0.065-0.731-0.1-1.091c-0.36-4.092-0.637-7.836-0.79-10.967c-0.006-0.141-0.012-0.283-0.018-0.424
						c-0.071-1.551-0.106-2.948-0.106-4.145c0.006-2.653,0.195-4.363,0.625-4.764c0.619-0.566,6.114-0.979,14.634-1.238
						c0.354-0.012,0.719-0.024,1.085-0.035c1.728-0.047,3.561-0.094,5.501-0.136c7.447-0.153,16.35-0.218,25.913-0.206
						c0.36-0.006,0.725-0.006,1.085,0c2.824,0.006,5.696,0.018,8.602,0.03c10.424,0.071,21.273,0.218,31.609,0.448
						c0.36,0.012,0.725,0.018,1.085,0.029c6.792,0.159,13.343,0.348,19.381,0.566c2.423,0.094,4.77,0.183,7.01,0.289
						c2.871,0.124,5.578,0.265,8.089,0.413c0.371,0.024,0.731,0.047,1.091,0.065c0.13,0.012,0.26,0.024,0.389,0.03
						c9.705,0.601,16.067,1.333,16.727,2.205c0.313,0.413,0.495,1.45,0.566,2.989
						C1390.329,1918.866,1390.335,1919.745,1390.318,1920.723z"/>
				</g>
				<g>
					<g>
						<polygon style="fill:#367394;" points="1250.998,1999.984 1262.019,1999.984 1259.49,2005.061 1245.599,2004.867 						"/>
					</g>
					<g>
						<polygon style="fill:#367394;" points="1266.116,1999.984 1279.461,1999.984 1278.387,2005.319 1264.748,2005.131 						"/>
					</g>
					<g>
						<polygon style="fill:#367394;" points="1283.059,1999.984 1295.987,1999.984 1295.647,2005.559 1282.859,2005.383 						"/>
					</g>
					<g>
						<polygon style="fill:#367394;" points="1299.684,1999.984 1312.408,1999.984 1312.408,2005.788 1300.066,2005.618 						"/>
					</g>
					<g>
						<polygon style="fill:#367394;" points="1329.838,1999.984 1331.61,2006.052 1316.017,2005.841 1315.06,1999.984 						"/>
					</g>
					<g>
						<polygon style="fill:#367394;" points="1348.506,1999.984 1351.358,2006.328 1336.205,2006.117 1333.899,1999.984 						"/>
					</g>
					<g>
						<polygon style="fill:#367394;" points="1367.896,1999.984 1372.068,2006.616 1355.513,2006.387 1351.781,1999.984 						"/>
					</g>
					<g>
						<polygon style="fill:#367394;" points="1391.764,2006.886 1376.265,2006.674 1376.259,2006.674 1370.818,1999.984 
							1384.944,1999.984 						"/>
					</g>
				</g>
				<g>
					<path style="fill:#367394;" d="M1370.818,1998.304v1.68c0,0,2.365,1.243,2.33,0.081S1370.818,1998.304,1370.818,1998.304z"/>
				</g>
				<g>
					<path style="fill:#367394;" d="M1391.764,2005.206v1.68c0,0-3.087-1.128-2.594-1.95
						C1389.663,2004.114,1391.764,2005.206,1391.764,2005.206z"/>
				</g>
				<g>
					<path style="fill:#367394;" d="M1351.781,1998.304v1.68c0,0,2.67,1.384,2.459,0.222S1351.781,1998.304,1351.781,1998.304z"/>
				</g>
				<g>
					<path style="fill:#367394;" d="M1372.068,2004.936v1.68c0,0-3.11-1.058-2.547-2.009
						C1370.085,2003.656,1372.068,2004.936,1372.068,2004.936z"/>
				</g>
				<g>
					<path style="fill:#367394;" d="M1333.899,1998.304v1.68c0,0,1.186,1.524,1.678,0.398
						C1336.07,1999.255,1333.899,1998.304,1333.899,1998.304z"/>
				</g>
				<g>
					<path style="fill:#367394;" d="M1351.358,2004.648v1.68c0,0-2.33-2.02-2.013-2.628
						C1349.662,2003.093,1351.358,2004.648,1351.358,2004.648z"/>
				</g>
				<g>
					<path style="fill:#367394;" d="M1315.06,1998.304v1.68c0,0,0.657,1.7,1.115,0.433
						C1316.633,1999.149,1315.06,1998.304,1315.06,1998.304z"/>
				</g>
				<g>
					<path style="fill:#367394;" d="M1331.61,2004.373v1.68c0,0-1.948-0.776-1.808-1.903
						C1329.943,2003.023,1331.61,2004.373,1331.61,2004.373z"/>
				</g>
				<g>
					<path style="fill:#367394;" d="M1299.684,1998.304v1.68c0,0,1.103,1.243,1.209,0.081S1299.684,1998.304,1299.684,1998.304z"/>
				</g>
				<g>
					<path style="fill:#367394;" d="M1295.987,1998.304v1.68c0,0-1.185,1.243-1.326,0.362
						C1294.52,1999.466,1295.987,1998.304,1295.987,1998.304z"/>
				</g>
				<g>
					<path style="fill:#367394;" d="M1282.859,2003.703v1.68c0,0,1.52-0.987,1.273-1.744
						C1283.886,2002.882,1282.859,2003.703,1282.859,2003.703z"/>
				</g>
				<g>
					<path style="fill:#367394;" d="M1264.748,2003.451v1.68c0,0,2.553-1.122,2.166-2.108
						C1266.526,2002.037,1264.748,2003.451,1264.748,2003.451z"/>
				</g>
				<g>
					<path style="fill:#367394;" d="M1279.461,1998.304v1.68c0,0-0.751,1.278-1.174,0.327S1279.461,1998.304,1279.461,1998.304z"/>
				</g>
				<g>
					<path style="fill:#367394;" d="M1245.599,2003.187v1.68c0,0,3.075-1.178,3.005-2.215S1245.599,2003.187,1245.599,2003.187z"/>
				</g>
				<g>
					<path style="fill:#367394;" d="M1262.019,1998.304v1.68c0,0-1.62,1.7-2.254,0.609
						C1259.132,1999.501,1262.019,1998.304,1262.019,1998.304z"/>
				</g>
				<g>
					<g>
						<polygon style="fill:#79C5EE;" points="1250.998,1998.304 1262.019,1998.304 1259.49,2003.381 1245.599,2003.187 						"/>
					</g>
					<g>
						<polygon style="fill:#79C5EE;" points="1266.116,1998.304 1279.461,1998.304 1278.387,2003.639 1264.748,2003.451 						"/>
					</g>
					<g>
						<polygon style="fill:#79C5EE;" points="1283.059,1998.304 1295.987,1998.304 1295.647,2003.88 1282.859,2003.703 						"/>
					</g>
					<g>
						<polygon style="fill:#79C5EE;" points="1299.684,1998.304 1312.408,1998.304 1312.408,2004.108 1300.066,2003.938 						"/>
					</g>
					<g>
						<polygon style="fill:#79C5EE;" points="1329.838,1998.304 1331.61,2004.373 1316.017,2004.161 1315.06,1998.304 						"/>
					</g>
					<g>
						<polygon style="fill:#79C5EE;" points="1348.506,1998.304 1351.358,2004.648 1336.205,2004.437 1333.899,1998.304 						"/>
					</g>
					<g>
						<polygon style="fill:#79C5EE;" points="1367.896,1998.304 1372.068,2004.936 1355.513,2004.707 1351.781,1998.304 						"/>
					</g>
					<g>
						<polygon style="fill:#79C5EE;" points="1391.764,2005.206 1376.265,2004.995 1376.259,2004.995 1370.818,1998.304 
							1384.944,1998.304 						"/>
					</g>
				</g>
				<g>
					<g>
						<polygon style="fill:#367394;" points="1242.107,2008.061 1257.818,2008.437 1255.047,2013.994 1236.056,2013.536 						"/>
					</g>
					<g>
						<polygon style="fill:#367394;" points="1263.845,2008.577 1277.671,2008.906 1276.538,2014.516 1262.354,2014.17 						"/>
					</g>
					<g>
						<polygon style="fill:#367394;" points="1282.724,2009.023 1295.412,2009.329 1295.066,2014.963 1282.513,2014.657 						"/>
					</g>
					<g>
						<polygon style="fill:#367394;" points="1300.324,2009.446 1312.408,2009.734 1312.408,2015.379 1300.712,2015.098 						"/>
					</g>
					<g>
						<polygon style="fill:#367394;" points="1332.813,2010.215 1334.474,2015.913 1317.584,2015.508 1316.662,2009.833 						"/>
					</g>
					<g>
						<polygon style="fill:#367394;" points="1353.318,2010.702 1355.894,2016.43 1339.926,2016.042 1339.92,2016.042 
							1337.778,2010.332 						"/>
					</g>
					<g>
						<polygon style="fill:#367394;" points="1374.944,2011.218 1378.571,2016.975 1361.423,2016.565 1358.072,2010.813 						"/>
					</g>
					<g>
						<polygon style="fill:#367394;" points="1402.269,2017.551 1384.739,2017.128 1380.032,2011.336 1396.517,2011.729 						"/>
					</g>
				</g>
				<g>
					<path style="fill:#367394;" d="M1380.032,2009.625v1.711c0,0,2.218,0.86,2.271,0.12
						C1382.356,2010.717,1380.032,2009.625,1380.032,2009.625z"/>
				</g>
				<g>
					<path style="fill:#367394;" d="M1402.269,2015.84v1.711c0,0-2.324-0.755-2.641-1.946S1402.269,2015.84,1402.269,2015.84z"/>
				</g>
				<g>
					<path style="fill:#367394;" d="M1358.072,2009.103v1.711c0,0,2.101,2.075,2.418,0.857S1358.072,2009.103,1358.072,2009.103z"/>
				</g>
				<g>
					<path style="fill:#367394;" d="M1378.571,2015.265v1.711c0,0-3.292-0.871-2.923-2.245S1378.571,2015.265,1378.571,2015.265z"/>
				</g>
				<g>
					<path style="fill:#367394;" d="M1337.778,2008.621v1.711c0,0,1.109,2.714,1.849,1.338
						C1340.366,2010.294,1337.778,2008.621,1337.778,2008.621z"/>
				</g>
				<g>
					<path style="fill:#367394;" d="M1355.894,2014.719v1.711c0,0-3.697-0.96-3.169-2.227S1355.894,2014.719,1355.894,2014.719z"/>
				</g>
				<g>
					<path style="fill:#367394;" d="M1316.662,2008.123v1.711c0,0,1.074,2.896,1.64,1.837
						C1318.869,2010.611,1316.662,2008.123,1316.662,2008.123z"/>
				</g>
				<g>
					<path style="fill:#367394;" d="M1334.474,2014.203v1.711c0,0-2.4-1.511-2.03-2.245
						C1332.813,2012.935,1334.474,2014.203,1334.474,2014.203z"/>
				</g>
				<g>
					<path style="fill:#367394;" d="M1262.354,2012.459v1.711c0,0,2.218-1.218,1.901-2.177
						C1263.938,2011.033,1262.354,2012.459,1262.354,2012.459z"/>
				</g>
				<g>
					<path style="fill:#367394;" d="M1277.671,2007.195v1.711c0,0-0.422,1.918-1.162,1.178
						C1275.77,2009.343,1277.671,2007.195,1277.671,2007.195z"/>
				</g>
				<g>
					<path style="fill:#367394;" d="M1257.818,2006.726v1.711c0,0-1.907,1.541-2.488,0.88
						C1254.748,2008.657,1257.818,2006.726,1257.818,2006.726z"/>
				</g>
				<g>
					<path style="fill:#367394;" d="M1236.056,2013.536v-1.711c0,0,2.067-1.68,2.772-0.798
						C1239.535,2011.91,1236.056,2013.536,1236.056,2013.536z"/>
				</g>
				<g>
					<g>
						<polygon style="fill:#79C5EE;" points="1242.107,2006.35 1257.818,2006.726 1255.047,2012.283 1236.056,2011.826 						"/>
					</g>
					<g>
						<polygon style="fill:#79C5EE;" points="1263.845,2006.867 1277.671,2007.195 1276.538,2012.806 1262.354,2012.459 						"/>
					</g>
					<g>
						<polygon style="fill:#79C5EE;" points="1282.724,2007.313 1295.412,2007.618 1295.066,2013.252 1282.513,2012.947 						"/>
					</g>
					<g>
						<polygon style="fill:#79C5EE;" points="1300.324,2007.735 1312.408,2008.023 1312.408,2013.668 1300.712,2013.387 						"/>
					</g>
					<g>
						<polygon style="fill:#79C5EE;" points="1332.813,2008.504 1334.474,2014.203 1317.584,2013.798 1316.662,2008.123 						"/>
					</g>
					<g>
						<polygon style="fill:#79C5EE;" points="1353.318,2008.991 1355.894,2014.719 1339.926,2014.332 1339.92,2014.332 
							1337.778,2008.621 						"/>
					</g>
					<g>
						<polygon style="fill:#79C5EE;" points="1374.944,2009.508 1378.571,2015.265 1361.423,2014.854 1358.072,2009.103 						"/>
					</g>
					<g>
						<polygon style="fill:#79C5EE;" points="1402.269,2015.84 1384.739,2015.417 1380.032,2009.625 1396.517,2010.018 						"/>
					</g>
				</g>
				<g>
					<g>
						<path style="fill:#5091B9;" d="M1270.136,1935.418c1.004-1.192,96-0.771,97.313,0c1.313,0.771,1.001,27.771,0,29.057
							c-1.001,1.286-95.241,1.324-97.313,0C1268.728,1963.574,1268.295,1937.604,1270.136,1935.418z"/>
					</g>
					<g>
						<g>
							<path style="fill:#FFF4EB;" d="M1286.427,1951.327c0.316,0.231,0.705,0.589,1.167,1.074c0.547,0.569,0.922,0.941,1.125,1.116
								c0.203,0.175,0.304,0.366,0.304,0.575c0,0.209-0.076,0.392-0.228,0.55c-0.152,0.158-0.33,0.237-0.533,0.237
								c-0.158,0-0.316-0.059-0.474-0.177c-0.225-0.164-0.707-0.631-1.446-1.404c-0.564-0.592-1.108-0.989-1.632-1.192
								c-0.428-0.158-0.643-0.392-0.643-0.702c0-0.282,0.194-0.516,0.583-0.702c0.524-0.254,1.099-0.71,1.725-1.37
								c0.874-0.913,1.394-1.439,1.56-1.577s0.334-0.207,0.503-0.207c0.203,0,0.382,0.077,0.537,0.232s0.233,0.337,0.233,0.545
								c0,0.192-0.085,0.372-0.254,0.541C1288.414,1949.442,1287.571,1950.262,1286.427,1951.327z"/>
						</g>
						<g>
							<path style="fill:#FFF4EB;" d="M1292.008,1957.28c-0.209,0-0.392-0.071-0.55-0.211c-0.158-0.141-0.237-0.316-0.237-0.524
								c0-0.09,0.02-0.186,0.059-0.287c0.44-1.212,1.268-2.958,2.486-5.238c1.218-2.28,2.049-4.029,2.494-5.247
								c0.738-2.018,1.297-3.019,1.674-3.002c0.209,0.006,0.392,0.08,0.55,0.224c0.158,0.144,0.237,0.317,0.237,0.52
								c0,0.13-0.031,0.285-0.093,0.465l-0.947,2.3c-0.378,1.043-0.916,2.246-1.615,3.61l-1.843,3.5l-1.53,3.391
								C1292.54,1957.114,1292.312,1957.28,1292.008,1957.28z"/>
						</g>
						<g>
							<path style="fill:#FFF4EB;" d="M1308.707,1947.032c-0.361,0-0.631-0.211-0.812-0.634c-0.158-0.361-0.304-0.581-0.44-0.66
								c-0.118-0.062-0.411-0.093-0.879-0.093c-0.817,0-1.725,0.626-2.723,1.877c-1.353,1.68-2.029,3.272-2.029,4.777
								c0,0.727,0.234,1.353,0.702,1.877c0.479,0.541,1.057,0.812,1.733,0.812c0.581,0,1.164-0.149,1.75-0.448
								c0.327-0.169,0.829-0.502,1.505-0.998c0.321-0.237,0.564-0.355,0.727-0.355c0.242,0,0.445,0.092,0.609,0.275
								c0.163,0.183,0.245,0.388,0.245,0.613c0,0.254-0.107,0.476-0.321,0.668c-1.488,1.319-2.993,1.979-4.515,1.979
								c-1.167,0-2.153-0.448-2.959-1.344c-0.778-0.868-1.167-1.894-1.167-3.078c0-1.911,0.8-3.87,2.401-5.876
								c1.336-1.674,2.683-2.511,4.042-2.511c0.276,0,0.524,0.013,0.744,0.038s0.414,0.066,0.583,0.123
								c0.197-0.287,0.454-0.431,0.769-0.431c0.389,0,0.634,0.257,0.736,0.769c0.09,0.457,0.135,1.018,0.135,1.683
								c0,0.231-0.062,0.434-0.186,0.609C1309.206,1946.922,1308.989,1947.032,1308.707,1947.032z"/>
						</g>
						<g>
							<path style="fill:#FFF4EB;" d="M1316.587,1957.035c-1.59,0-2.937-0.476-4.042-1.429c-1.172-1.015-1.759-2.322-1.759-3.923
								c0-1.95,0.578-3.723,1.733-5.318c1.291-1.77,2.9-2.655,4.828-2.655c1.854,0,3.233,0.417,4.135,1.251
								c0.941,0.868,1.412,2.238,1.412,4.109c0,1.95-0.53,3.709-1.59,5.276C1320.088,1956.138,1318.515,1957.035,1316.587,1957.035z
								 M1317.348,1945.442c-1.381,0-2.551,0.688-3.509,2.063c-0.885,1.263-1.328,2.655-1.328,4.177
								c0,1.088,0.403,1.973,1.209,2.655c0.772,0.643,1.728,0.964,2.866,0.964c1.37,0,2.5-0.69,3.391-2.071
								c0.795-1.235,1.192-2.621,1.192-4.16c0-1.347-0.302-2.294-0.905-2.841
								C1319.691,1945.704,1318.718,1945.442,1317.348,1945.442z"/>
						</g>
						<g>
							<path style="fill:#FFF4EB;" d="M1332.729,1956.46c-0.874,0.598-2.128,0.896-3.763,0.896c-0.411,0-0.882-0.065-1.412-0.194
								c-0.637-0.152-1.116-0.349-1.437-0.592h-0.084c-0.242,0-0.445-0.084-0.609-0.254c-0.164-0.169-0.245-0.375-0.245-0.617
								c0-0.592,0.027-1.478,0.08-2.659c0.053-1.181,0.08-2.067,0.08-2.659c0-0.659-0.013-1.645-0.038-2.955
								s-0.038-2.296-0.038-2.955c0-0.231,0.118-0.474,0.355-0.727c0.237-0.254,0.474-0.38,0.71-0.38
								c0.135,0,0.586,0.189,1.353,0.567c0.868,0.423,1.37,0.657,1.505,0.702c1.601,0.547,2.965,1.387,4.092,2.52
								c1.325,1.336,1.987,2.804,1.987,4.405c0,0.964-0.227,1.888-0.681,2.773
								C1334.131,1955.214,1333.512,1955.924,1332.729,1956.46z M1330.953,1947.514c-0.575-0.378-1.902-1.026-3.983-1.945
								l0.042,2.435l0.025,2.427l-0.135,4.617c0.039,0.017,0.099,0.053,0.177,0.11c0.496,0.333,1.122,0.499,1.877,0.499
								c1.285,0,2.221-0.197,2.807-0.592c0.547-0.372,0.982-0.872,1.306-1.501c0.324-0.629,0.486-1.284,0.486-1.966
								C1333.557,1950.008,1332.689,1948.647,1330.953,1947.514z"/>
						</g>
						<g>
							<path style="fill:#FFF4EB;" d="M1345.556,1945.138c-0.079,0-0.166-0.014-0.262-0.042c-0.953-0.271-1.872-0.406-2.757-0.406
								c-0.462,0-0.967,0.042-1.513,0.127c-0.547,0.085-1.136,0.214-1.767,0.389c0.051,0.366,0.076,0.66,0.076,0.879
								c0,0.784-0.048,1.86-0.144,3.23l3.703-0.355c1.088-0.113,1.756-0.169,2.004-0.169s0.457,0.079,0.626,0.237
								c0.169,0.158,0.254,0.369,0.254,0.634c0,0.513-0.259,0.8-0.778,0.862l-2.012,0.178l-3.906,0.355
								c-0.023,0.4-0.041,0.779-0.055,1.137c-0.014,0.358-0.021,0.692-0.021,1.002c0,1.246,0.09,1.979,0.271,2.198
								c0.135,0.158,0.578,0.237,1.328,0.237c0.349,0,0.875-0.01,1.577-0.03c0.702-0.02,1.23-0.03,1.585-0.03
								c0.113,0,0.279-0.018,0.499-0.055c0.22-0.036,0.383-0.055,0.49-0.055c0.598,0,0.896,0.293,0.896,0.879
								c0,0.474-0.24,0.758-0.719,0.854c-0.53,0.107-1.677,0.161-3.441,0.161c-1.747,0-2.869-0.231-3.365-0.693
								c-0.541-0.502-0.812-1.657-0.812-3.467c0-0.361,0.008-0.755,0.025-1.184c0.017-0.428,0.039-0.891,0.068-1.387
								c-0.062-0.13-0.093-0.268-0.093-0.414c0-0.192,0.054-0.364,0.161-0.516c0.113-1.629,0.169-2.833,0.169-3.61
								c0-0.209-0.028-0.514-0.085-0.917c-0.056-0.403-0.084-0.709-0.084-0.917c0-0.671,0.282-1.006,0.846-1.006
								c0.237,0,0.44,0.082,0.609,0.245c0.676-0.18,1.315-0.316,1.915-0.406c0.6-0.09,1.165-0.135,1.695-0.135
								c1.37,0,2.463,0.163,3.281,0.49c0.378,0.152,0.567,0.423,0.567,0.812c0,0.225-0.073,0.426-0.22,0.6
								C1346.001,1945.042,1345.798,1945.138,1345.556,1945.138z"/>
						</g>
						<g>
							<path style="fill:#FFF4EB;" d="M1353.165,1950.913c0,0.203-0.104,0.403-0.313,0.6c-1.342,1.246-2.748,2.339-4.219,3.281
								c-0.158,0.102-0.307,0.152-0.448,0.152c-0.203,0-0.379-0.08-0.528-0.241c-0.149-0.161-0.224-0.342-0.224-0.545
								c0-0.225,0.11-0.423,0.33-0.592l3.281-2.503c-0.502-0.333-1.122-0.843-1.86-1.53c-0.902-0.851-1.353-1.44-1.353-1.767
								c0-0.203,0.079-0.38,0.237-0.533c0.158-0.152,0.338-0.228,0.541-0.228c0.208,0,0.397,0.096,0.567,0.287
								c1.285,1.437,2.449,2.427,3.492,2.968C1352.999,1950.431,1353.165,1950.648,1353.165,1950.913z"/>
						</g>
					</g>
				</g>
				<g>
					<g>
						<path style="fill:#1A1A1A;" d="M1354.767,1912.129l-70.189,76.95h-31.838c0,0-1.197-8.756-2.641-20.347l52.589-57.648
							C1320.353,1911.196,1339.25,1911.554,1354.767,1912.129z"/>
					</g>
					<g>
						<path style="fill:#1A1A1A;" d="M1388.659,1920.721l-62.354,68.358h-34.461l69.931-76.662
							c14.942,0.675,25.435,1.585,26.297,2.711C1388.541,1915.738,1388.706,1917.739,1388.659,1920.721z"/>
					</g>
				</g>
			</g>
		</g>
		<g>
			<g>
				<g>
					<path style="fill:#FE653B;" d="M675.632,2238.76c1.313,3.636,3.757,6.682,7.294,8.813c12.016,7.172,71.53,7.285,83.263-4.833
						c1.299-1.367,2.012-2.882,1.996-4.545c-0.065-7.495-11.931-14.833-25.751-20.781c-0.912-0.389-1.826-0.779-2.748-1.144
						c-3.258-1.346-6.589-2.58-9.856-3.761c-1.029-0.379-2.044-0.725-3.034-1.061c-11.776-4.017-22.321-6.675-25.698-7.225
						c-8.849-1.481-11.508-2.141-12.745-1.002C676.384,2214.235,671.863,2228.704,675.632,2238.76z"/>
				</g>
				<g>
					<path style="fill:#F04936;" d="M675.632,2238.76c1.313,3.636,3.757,6.682,7.294,8.813c12.016,7.172,71.53,7.285,83.263-4.833
						c-0.015-0.034-0.015-0.034-0.015-0.034C712.47,2236.074,687.162,2236.164,675.632,2238.76z"/>
				</g>
				<g>
					<g>
						<g>
							<path style="fill:#FFFFFF;" d="M713.201,2220.751c-0.266,0.316-0.249,0.772,0.057,1.062c0.063,0.053,0.16,0.092,0.233,0.12
								c0.291,0.115,0.626,0.051,0.828-0.177c6.065-6.809,11.294-8.951,15.511-9.248c-1.029-0.379-2.044-0.725-3.034-1.061
								C722.874,2212.421,718.306,2215.021,713.201,2220.751z"/>
						</g>
					</g>
					<g>
						<g>
							<path style="fill:#FFFFFF;" d="M725.655,2225.681c-0.29,0.307-0.25,0.772,0.057,1.062c0.063,0.053,0.136,0.082,0.209,0.111
								c0.291,0.115,0.625,0.051,0.828-0.177c6.162-6.911,11.454-9,15.686-9.263c-0.912-0.389-1.826-0.779-2.748-1.144
								C735.661,2217.147,730.928,2219.738,725.655,2225.681z"/>
						</g>
					</g>
				</g>
			</g>
			<g>
				<g>
					<path style="fill:#FE653B;" d="M554.937,2238.76c-1.313,3.636-3.757,6.682-7.294,8.813c-12.016,7.172-71.53,7.285-83.263-4.833
						c-1.299-1.367-2.012-2.882-1.996-4.545c0.065-7.495,11.931-14.833,25.751-20.781c0.913-0.389,1.826-0.779,2.748-1.144
						c3.258-1.346,6.589-2.58,9.856-3.761c1.029-0.379,2.044-0.725,3.034-1.061c11.776-4.017,22.321-6.675,25.698-7.225
						c8.849-1.481,11.508-2.141,12.745-1.002C554.185,2214.235,558.706,2228.704,554.937,2238.76z"/>
				</g>
				<g>
					<path style="fill:#F04936;" d="M554.937,2238.76c-1.313,3.636-3.757,6.682-7.294,8.813c-12.016,7.172-71.53,7.285-83.263-4.833
						c0.015-0.034,0.015-0.034,0.015-0.034C518.099,2236.074,543.407,2236.164,554.937,2238.76z"/>
				</g>
				<g>
					<g>
						<g>
							<path style="fill:#FFFFFF;" d="M517.368,2220.751c0.266,0.316,0.249,0.772-0.057,1.062c-0.063,0.053-0.161,0.092-0.233,0.12
								c-0.291,0.115-0.626,0.051-0.828-0.177c-6.065-6.809-11.294-8.951-15.511-9.248c1.029-0.379,2.044-0.725,3.034-1.061
								C507.696,2212.421,512.263,2215.021,517.368,2220.751z"/>
						</g>
					</g>
					<g>
						<g>
							<path style="fill:#FFFFFF;" d="M504.914,2225.681c0.29,0.307,0.25,0.772-0.057,1.062c-0.063,0.053-0.136,0.082-0.209,0.111
								c-0.291,0.115-0.626,0.051-0.828-0.177c-6.162-6.911-11.454-9-15.686-9.263c0.913-0.389,1.826-0.779,2.748-1.144
								C494.908,2217.147,499.641,2219.738,504.914,2225.681z"/>
						</g>
					</g>
				</g>
			</g>
			<g>
				<g>
					<path style="fill:#40312A;" d="M635.546,1710.059c-24.138-4.11-22.513-18.438-22.513-18.438s-19.288-11.075-19.102-26.516
						c0.186-15.441,11.755-21.208,11.755-21.208s-0.781-28.093,17.961-34.539c17.416-5.989,28.087,7.226,28.087,7.226
						s11.095-21.32,36.379-11.179c26.663,10.695,17.038,37.512,17.038,37.512s8.957,14.148-3.898,22.953
						C688.398,1674.675,635.546,1710.059,635.546,1710.059z"/>
				</g>
				<g>
					<path style="fill:#FEC6AB;" d="M621.286,1674.241c-0.043,12.208,16.367,18.667,16.367,18.667s-16.002,65.275-13.24,68.189
						c2.761,2.913,45.768,8.608,37.938,1.981c-4.072-3.453-5.011-13.612-4.98-22.564c0.007-8.278,0.891-15.593,0.891-15.593
						s0.182,0.257,0.562,0.684c2.323,2.567,11.398,11.442,23.079,7.142c13.37-4.917,22.881-38.723,19.351-66.877
						c0,0-4.46,4.941-14.016,1.278c-9.556-3.663-12.62-14.365-12.62-14.365s-9.363,16.729-23.23,19.254
						C637.519,1674.562,621.329,1662.033,621.286,1674.241z"/>
				</g>
				<g>
					<path style="fill:#FD9B73;" d="M692.443,1678.418c4.892,10.402,5.554,25.207,3.899,26.554s-8.279-0.833-9.264-2.222
						C686.094,1701.36,692.443,1678.418,692.443,1678.418z"/>
				</g>
				<g>
					<path style="fill:#FD9B73;" d="M644.921,1706.814c0.031,1.679,0.741,27.001,12.449,33.7c0.007-8.278,0.891-15.593,0.891-15.593
						C650.274,1717.362,645.438,1707.762,644.921,1706.814z"/>
				</g>
			</g>
			<g>
				<path style="fill:#5091B9;" d="M568.014,1935.065c0,0-62.884,262.432-58.486,269.462c4.398,7.03,37.74,14.059,47.234,6.249
					c9.494-7.811,66.511-192.138,66.511-192.138s39.833,192.745,47.644,195.565s43.739,4.383,48.425-10.457
					c4.686-14.84-33.585-264.654-49.987-281.117C652.953,1906.166,568.014,1935.065,568.014,1935.065z"/>
			</g>
			<g>
				<path style="fill:#FFAB3B;" d="M625.785,1746.561c17.209,11.303,32.476,6.911,32.476,6.911s19.61,5.857,33.804,15.23
					s46.998,56.235,61.057,56.235c14.059,0-72.078,114.619-100.951,118.719c-28.872,4.1-64.827,3.14-84.158-8.592
					c-15.557-9.441-19.331-144.504,0-168.907C587.345,1741.755,625.785,1746.561,625.785,1746.561z"/>
			</g>
			<g>
				<g>
					<path style="fill:#79C5EE;" d="M936.379,1784.751c-60.481,37.177-105.248,12.94-105.248,12.94l-232.635,294.068
						c0,0,42.125,86.861-14.297,133.926c-39.234,32.759-79.998,35.572-101.16,34.259c-5.182-0.31-7.061-6.887-2.9-9.943
						c17.909-13.288,50.528-42.451,57.482-83.208c7.558-44.294-49.091-83.454-94.47-61.447
						c-29.303,14.216-43.532,52.711-49.251,73.505c-1.364,5.002-8.102,5.576-10.308,0.922
						c-10.704-22.575-25.54-70.689,15.057-111.068c55.128-54.818,121.856-29.833,121.856-29.833l81.902-100.237l159.636-195.503
						c0,0-34.706-28.202-14.228-87.974c9.69-28.353,29.824-47.58,50.659-60.433c15.432-9.624,31.223-15.74,43.425-19.531
						c5.459-1.686,9.354,5.044,5.396,9.156c-40.315,42.087-38.43,98.014,24.188,126.51c50.772,23.091,83.103-25.337,97.014-53.736
						c2.461-5.07,10.008-3.655,10.452,1.975C981.532,1692.607,980.319,1757.709,936.379,1784.751z"/>
				</g>
				<g>
					<g>
						<path style="fill:#5091B9;" d="M553.562,2072.906c-1.045-0.178-2.06-0.626-2.937-1.349c-2.684-2.21-3.064-6.177-0.855-8.855
							l247.389-300.08c2.212-2.677,6.174-3.061,8.858-0.851c2.684,2.21,3.064,6.177,0.855,8.855l-247.389,300.08
							C557.994,2072.509,555.713,2073.273,553.562,2072.906z"/>
					</g>
				</g>
				<g>
					
						<ellipse transform="matrix(0.9525 -0.3045 0.3045 0.9525 -490.2357 333.3568)" style="fill:#5091B9;" cx="823.788" cy="1738.615" rx="16.013" ry="16.013"/>
				</g>
				<g>
					
						<ellipse transform="matrix(0.9527 -0.304 0.304 0.9527 -609.6471 260.5722)" style="fill:#5091B9;" cx="531.895" cy="2087.913" rx="16.013" ry="16.013"/>
				</g>
			</g>
			<g>
				<path style="fill:#FEC6AB;" d="M642.702,1899.625c6.444-3.222,21.088-9.08,24.896-6.151c3.808,2.929-11.13,11.13-11.13,11.13
					s26.512-1.319,27.825,7.029c1.313,8.348-30.247,29.289-55.678,7.928C609.031,1903.112,642.702,1899.625,642.702,1899.625z"/>
			</g>
			<g>
				<path style="fill:#FF863B;" d="M625.785,1746.561c-84.132-9.492-121.036,97.121-115.764,122.31s108.956,57.993,120.672,53.307
					s14.397-19.917,14.228-25.189c-0.169-5.272-63.434-37.49-73.392-53.307C561.57,1827.866,625.785,1746.561,625.785,1746.561z"/>
			</g>
		</g>
		<g>
			<g>
				<path style="fill:#79C5EE;" d="M1621.549,1726.736c0.16,0.94-4.212,6.654-11.631,15.47c-0.209,0.255-0.419,0.511-0.639,0.768
					c-37.261,44.252-110.921,121.199-115.648,121.013c-10.095-0.395-196.408-102.771-195.949-106.28
					c0.407-3.104,77.829-86.057,120.089-118.953c0.039-0.029,0.087-0.07,0.126-0.099c5.644-4.38,10.015-7.124,12.656-7.695
					C1452.95,1626.097,1620.589,1721.093,1621.549,1726.736z"/>
			</g>
			<g>
				<path style="fill:#5091B9;" d="M1621.549,1726.736c0.16,0.94-4.212,6.654-11.631,15.47
					c-51.258-31.649-149.346-81.833-192.147-103.452c0.039-0.029,0.087-0.07,0.126-0.099c5.644-4.38,10.015-7.124,12.656-7.695
					C1452.95,1626.097,1620.589,1721.093,1621.549,1726.736z"/>
			</g>
			<g>
				<path style="fill:#5091B9;" d="M1559.122,1741.961c-28.96-24.099-124.224-73.734-131.049-71.898
					c-6.825,1.836-39.575,35.443-39.381,39.282c0.194,3.839,123.499,74.161,127.92,74.668S1562.988,1745.178,1559.122,1741.961z"/>
			</g>
			<g>
				<path style="fill:#FAD6B9;" d="M1507.602,1796.054c-0.301-4.881-32.628-19.673-34.913-19.125
					c-2.285,0.548-15.439,20.331-15.811,21.77c-0.372,1.439,30.862,19.746,32.242,19.732
					C1490.5,1818.417,1507.734,1798.205,1507.602,1796.054z"/>
			</g>
			<g>
				<g>
					<g>
						<path style="fill:#FFF4EB;" d="M1489.284,1819.504c0.079-0.012,0.158-0.033,0.236-0.064c0.556-0.22,0.829-0.85,0.609-1.406
							l-16.432-41.503c-0.221-0.557-0.85-0.83-1.407-0.609c-0.556,0.22-0.829,0.85-0.609,1.406l16.432,41.503
							C1488.303,1819.31,1488.796,1819.578,1489.284,1819.504z"/>
					</g>
				</g>
				<g>
					<g>
						<path style="fill:#FFF4EB;" d="M1507.767,1797.126c0.544-0.083,0.947-0.567,0.917-1.128c-0.031-0.597-0.541-1.057-1.139-1.026
							l-50.723,2.645c-0.608,0.043-1.058,0.542-1.026,1.139c0.031,0.597,0.541,1.057,1.139,1.026l50.723-2.645
							C1507.696,1797.135,1507.732,1797.131,1507.767,1797.126z"/>
					</g>
				</g>
			</g>
			<g>
				<path style="fill:#FAD6B9;" d="M1459.232,1767.7c-0.301-4.88-32.628-19.673-34.913-19.125s-15.439,20.332-15.81,21.77
					c-0.372,1.439,30.862,19.746,32.242,19.732C1442.131,1790.064,1459.365,1769.852,1459.232,1767.7z"/>
			</g>
			<g>
				<g>
					<g>
						<path style="fill:#FFF4EB;" d="M1440.915,1791.15c0.079-0.012,0.158-0.033,0.236-0.064c0.556-0.22,0.829-0.85,0.608-1.406
							l-16.432-41.503c-0.221-0.557-0.85-0.83-1.407-0.609c-0.556,0.22-0.829,0.85-0.609,1.406l16.432,41.503
							C1439.933,1790.956,1440.426,1791.225,1440.915,1791.15z"/>
					</g>
				</g>
				<g>
					<g>
						<path style="fill:#FFF4EB;" d="M1459.398,1768.772c0.544-0.083,0.946-0.567,0.917-1.128c-0.031-0.597-0.541-1.057-1.139-1.026
							l-50.723,2.645c-0.608,0.043-1.058,0.542-1.026,1.14c0.031,0.597,0.541,1.057,1.139,1.026l50.723-2.645
							C1459.326,1768.781,1459.362,1768.777,1459.398,1768.772z"/>
					</g>
				</g>
			</g>
			<g>
				<path style="fill:#FAD6B9;" d="M1412.191,1740.43c-0.3-4.881-32.628-19.673-34.913-19.125
					c-2.285,0.548-15.439,20.331-15.811,21.77c-0.372,1.439,30.862,19.746,32.242,19.732
					C1395.09,1762.793,1412.324,1742.582,1412.191,1740.43z"/>
			</g>
			<g>
				<g>
					<g>
						<path style="fill:#FFF4EB;" d="M1393.874,1763.88c0.079-0.012,0.158-0.033,0.236-0.064c0.556-0.22,0.829-0.85,0.609-1.406
							l-16.432-41.503c-0.221-0.557-0.85-0.83-1.407-0.609c-0.556,0.22-0.829,0.85-0.608,1.406l16.432,41.503
							C1392.892,1763.686,1393.385,1763.954,1393.874,1763.88z"/>
					</g>
				</g>
				<g>
					<g>
						<path style="fill:#FFF4EB;" d="M1412.357,1741.502c0.544-0.083,0.947-0.567,0.917-1.128c-0.031-0.597-0.541-1.057-1.139-1.026
							l-50.723,2.645c-0.608,0.043-1.058,0.542-1.026,1.14c0.031,0.597,0.541,1.057,1.139,1.026l50.723-2.645
							C1412.285,1741.51,1412.321,1741.507,1412.357,1741.502z"/>
					</g>
				</g>
			</g>
			<g>
				<g>
					<g>
						
							<rect x="1461.904" y="1808.875" transform="matrix(0.5622 -0.827 0.827 0.5622 -867.0793 2008.9116)" style="fill:#FFF4EB;" width="3.902" height="29.055"/>
					</g>
				</g>
				<g>
					<g>
						
							<rect x="1471.66" y="1812.759" transform="matrix(0.5622 -0.827 0.827 0.5622 -860.593 2015.8108)" style="fill:#FFF4EB;" width="3.902" height="15.93"/>
					</g>
				</g>
			</g>
			<g>
				<g>
					<g>
						
							<rect x="1415.912" y="1780.157" transform="matrix(0.5622 -0.827 0.827 0.5622 -863.4647 1958.3069)" style="fill:#FFF4EB;" width="3.902" height="29.055"/>
					</g>
				</g>
				<g>
					<g>
						
							<rect x="1425.667" y="1784.041" transform="matrix(0.5622 -0.827 0.827 0.5622 -856.9788 1965.2015)" style="fill:#FFF4EB;" width="3.902" height="15.93"/>
					</g>
				</g>
			</g>
			<g>
				<g>
					<g>
						
							<rect x="1367.57" y="1753.286" transform="matrix(0.5622 -0.827 0.827 0.5622 -862.4063 1906.5638)" style="fill:#FFF4EB;" width="3.902" height="29.055"/>
					</g>
				</g>
				<g>
					<g>
						
							<rect x="1377.326" y="1757.17" transform="matrix(0.5622 -0.827 0.827 0.5622 -855.9203 1913.4585)" style="fill:#FFF4EB;" width="3.902" height="15.93"/>
					</g>
				</g>
			</g>
		</g>
		<g>
			<g>
				<g>
					<path style="fill:#FE653B;" d="M1884.66,2205.669c0.826,4.057,0.287,8.205-1.761,12.125
						c-6.993,13.254-61.361,46.521-78.845,41.975c-1.95-0.526-3.446-1.515-4.358-3.044c-4.117-6.892,2.647-20.214,11.972-33.355
						c0.618-0.865,1.236-1.73,1.876-2.578c2.23-3.047,4.588-6.031,6.918-8.932c0.73-0.921,1.465-1.802,2.184-2.661
						c8.532-10.235,16.696-18.542,19.477-20.927c7.267-6.286,9.332-8.371,11.098-8.019
						C1870.306,2183.657,1882.503,2194.372,1884.66,2205.669z"/>
				</g>
				<g>
					<path style="fill:#F04936;" d="M1884.66,2205.669c0.826,4.057,0.287,8.205-1.761,12.125
						c-6.993,13.254-61.361,46.521-78.845,41.975c-0.005-0.039-0.005-0.039-0.005-0.039
						C1849.472,2223.74,1872.668,2209.72,1884.66,2205.669z"/>
				</g>
				<g>
					<g>
						<g>
							<path style="fill:#FFFFFF;" d="M1840.264,2210.133c0.419,0.141,0.658,0.567,0.539,1.003c-0.028,0.084-0.096,0.173-0.146,0.24
								c-0.202,0.268-0.544,0.395-0.857,0.299c-9.342-2.848-15.317-1.894-19.339,0.185c0.73-0.921,1.465-1.802,2.184-2.661
								C1826.777,2207.904,1832.403,2207.737,1840.264,2210.133z"/>
						</g>
					</g>
					<g>
						<g>
							<path style="fill:#FFFFFF;" d="M1831.621,2221.582c0.436,0.119,0.658,0.567,0.539,1.003
								c-0.028,0.084-0.078,0.151-0.129,0.218c-0.202,0.268-0.544,0.395-0.856,0.299c-9.487-2.887-15.491-1.849-19.507,0.269
								c0.618-0.865,1.236-1.73,1.876-2.578C1817.714,2219.351,1823.487,2219.084,1831.621,2221.582z"/>
						</g>
					</g>
				</g>
			</g>
			<g>
				<path style="fill:#40312A;" d="M1759.486,1728.668c27.698,29.828,14.381,52.732,30.361,75.635s93.213,25.567,83.093,60.721
					s-47.938,28.23-47.938,28.23s6.392,59.124-60.189,44.742c-66.581-14.381-45.985-217.852-45.985-217.852L1759.486,1728.668z"/>
			</g>
			<g>
				<path style="fill:#367394;" d="M1733.637,1888.732c73.273,29.838,57.323,101.429,75.066,125.574s40.243,43.791,49.544,91.185
					s9.618,76.991,5.099,84.657c-4.519,7.666-23.648,11.654-25.47,8.606s-28.999-67.888-53.904-106.782
					c-24.905-38.894-102.688-141.331-101.939-152.535C1682.783,1928.234,1733.637,1888.732,1733.637,1888.732z"/>
			</g>
			<g>
				<g>
					<path style="fill:#FE653B;" d="M1720.99,2245.089c-1.373,3.906-3.963,7.19-7.732,9.503
						c-12.803,7.789-76.537,8.447-89.212-4.426c-1.404-1.452-2.18-3.069-2.179-4.85c0.003-8.028,12.644-15.992,27.39-22.487
						c0.974-0.425,1.948-0.851,2.933-1.25c3.477-1.471,7.033-2.823,10.521-4.117c1.099-0.416,2.182-0.795,3.24-1.163
						c12.576-4.407,23.844-7.349,27.455-7.969c9.463-1.666,12.305-2.396,13.64-1.188
						C1719.964,2218.831,1724.936,2234.285,1720.99,2245.089z"/>
				</g>
				<g>
					<path style="fill:#F04936;" d="M1720.99,2245.089c-1.373,3.906-3.963,7.19-7.732,9.503
						c-12.803,7.789-76.537,8.447-89.212-4.426c0.015-0.037,0.015-0.037,0.015-0.037
						C1681.515,2242.545,1708.619,2242.413,1720.99,2245.089z"/>
				</g>
				<g>
					<g>
						<g>
							<path style="fill:#FFFFFF;" d="M1680.594,2226.141c0.287,0.336,0.274,0.824-0.051,1.137c-0.067,0.058-0.171,0.1-0.249,0.131
								c-0.311,0.126-0.67,0.06-0.889-0.183c-6.557-7.238-12.176-9.485-16.695-9.764c1.099-0.416,2.182-0.795,3.24-1.163
								C1670.161,2217.308,1675.076,2220.051,1680.594,2226.141z"/>
						</g>
					</g>
					<g>
						<g>
							<path style="fill:#FFFFFF;" d="M1667.302,2231.533c0.313,0.326,0.274,0.824-0.052,1.137
								c-0.067,0.058-0.145,0.089-0.223,0.121c-0.311,0.126-0.67,0.06-0.889-0.183c-6.662-7.346-12.348-9.535-16.882-9.778
								c0.974-0.425,1.948-0.851,2.933-1.25C1656.509,2222.483,1661.601,2225.216,1667.302,2231.533z"/>
						</g>
					</g>
				</g>
			</g>
			<g>
				<path style="fill:#40312A;" d="M1718.827,1720.145c0.71-1.065,56.105-20.24,51.489-66.758
					c-4.616-46.518-47.228-35.865-47.228-35.865s-13.849-25.212-39.061-9.943c-19.029,11.525-14.204,34.799-9.588,37.995
					C1679.057,1648.771,1718.827,1720.145,1718.827,1720.145z"/>
			</g>
			<g>
				<path style="fill:#FF643B;" d="M1720.432,1726.537c12.244,9.232,37.28,11.039,42.339,5.874s10.73-39.874-4.533-40.097
					s-46.512,25.7-44.026,32.802C1716.697,1732.219,1720.432,1726.537,1720.432,1726.537z"/>
			</g>
			<g>
				<path style="fill:#FD9B73;" d="M1668.081,1658.42c-8.554,7.218-14.768,16.983-14.591,18.759
					c0.177,1.776,10.83,4.261,10.83,4.261L1668.081,1658.42z"/>
			</g>
			<g>
				<path style="fill:#FEC6AB;" d="M1720.958,1694.224c0,0,8.167,52.554,0,61.076c-8.167,8.523-39.771,2.841-35.51,1.066
					c2.604-1.095,6.924-16.246,9.913-27.875c1.864-7.339,3.196-13.257,3.196-13.257s-0.03,0-0.059,0.059
					c-0.03,0.03-0.089,0.059-0.178,0.118c-0.266,0.207-0.799,0.592-1.509,0.977c-0.059,0.03-0.089,0.059-0.148,0.089
					c-3.521,2.042-11.807,5.385-23.644,1.183c-18.583-6.599-17.045-39.06,1.42-72.084c0,0,7.813-5.682,17.045-3.906
					c9.233,1.775,5.682,14.204,16.335,19.885c10.653,5.681,35.51,3.551,34.089,18.82S1720.958,1694.224,1720.958,1694.224z"/>
			</g>
			<g>
				<path style="fill:#FD9B73;" d="M1698.321,1715.411c-0.266,0.207-0.799,0.592-1.509,0.977
					C1697.492,1715.914,1698.025,1715.559,1698.321,1715.411z"/>
			</g>
			<g>
				<path style="fill:#FD9B73;" d="M1711.696,1704.225c-0.237,1.243-3.966,19.146-16.334,24.265
					c1.864-7.339,3.196-13.257,3.196-13.257C1706.843,1710.617,1711.252,1704.787,1711.696,1704.225z"/>
			</g>
			<g>
				<path style="fill:#5091B9;" d="M1753.982,2041.863c2.841,29.828,12.073,58.235-4.261,103.688
					c-16.334,45.452-31.248,71.019-39.061,75.28c-3.195,1.746-8.138,1.716-12.901,0.829c-1.006-0.207-1.983-0.415-2.93-0.651
					c-5.711-1.509-10.446-4.054-10.446-5.859c0-3.551,9.943-73.15,8.522-119.312c-1.42-46.163-15.624-173.997-9.232-183.23
					c2.811-4.083,16.837-7.871,31.633-10.86c0.977-0.177,1.953-0.355,2.9-0.562c17.844-3.433,35.776-5.622,35.776-5.622
					C1801.565,1958.77,1751.141,2012.035,1753.982,2041.863z"/>
			</g>
			<g>
				<g>
					<path style="fill:#FFFFFF;" d="M1697.759,2221.66c-1.006-0.207-1.983-0.415-2.93-0.651
						c16.778-62.142,27.372-234.63,20.477-319.261c-0.266-3.581-0.592-7.013-0.947-10.268l2.93-0.325
						c0.355,3.136,0.651,6.51,0.917,10.031C1724.716,1981.851,1715.632,2156.825,1697.759,2221.66z"/>
				</g>
			</g>
			<g>
				<path style="fill:#FF643B;" d="M1753.982,1895.563c0,0-26.277,14.204-70.309,17.045l-28.053-91.792
					c0,0-33.557,7.99-80.252-4.794c-44.387-12.162-69.244-65.338-69.244-65.338s-17.755-6.037-27.342-10.653
					c-9.588-4.616-22.016-22.726-13.286-27.905c8.759-5.178,38.853,13.346,38.853,13.346s0-13.139,6.037-12.073
					c6.037,1.065,11.363,27.342,11.363,27.342s48.293,28.408,91.615,31.367c43.321,2.959,75.28-39.179,110.406-24.206
					C1758.894,1762.846,1753.982,1895.563,1753.982,1895.563z"/>
			</g>
			<g>
				<path style="fill:#FEC6AB;" d="M1521.749,1740.741c0,0-5.504,8.522-15.624,9.943c0,0-17.755-6.037-27.342-10.653
					c-9.588-4.616-22.016-22.726-13.286-27.905c8.759-5.178,38.853,13.346,38.853,13.346s0-13.139,6.037-12.073
					C1516.422,1714.464,1521.749,1740.741,1521.749,1740.741z"/>
			</g>
		</g>
		<g>
			<g>
				<g>
					<path style="fill:#40312A;" d="M1084.583,690.957c23.122-15.351,32.047-64.967,17.731-76.151
						c-14.316-11.184-28.219,3.797-28.219,3.797s-5.943-39.941-32.005-34.122c-26.062,5.818-24.857,25.251-24.857,25.251
						s-23.022-11.66-35.16,15.524c-12.138,27.184,17.07,41.708,17.07,41.708s55.097,25.621,62.453,24.723
						C1068.953,690.789,1084.583,690.957,1084.583,690.957z"/>
				</g>
				<g>
					<path style="fill:#FD9B73;" d="M1001.643,679.258c-2.938,13.562,2.554,28.769,3.428,29.774c0.874,1.005,14.566-6,14.422-6.74
						C1019.348,701.551,1001.643,679.258,1001.643,679.258z"/>
				</g>
				<g>
					<path style="fill:#FEC6AB;" d="M1046.218,725.551c13.829-4.982,17.399-19.745,17.599-20.613c0.014-0.04,0.014-0.04,0.014-0.04
						s3.88,4.987,8.557,11.25c7.074,9.519,13.382,25.321,13.618,27.769c0.383,4.062,21.527-20.059,22.717-27.886
						c1.189-7.828-33.018-37.587-33.018-37.587s11.976-10.748,6.344-21.143c-5.632-10.395-19.516,8.516-36.876,10.267
						c-17.359,1.751-26.905-18.025-26.905-18.025s-0.541,11.16-8.165,16.238c-7.625,5.078-10.96,1.184-10.96,1.184
						C1004.04,704.666,1032.25,730.598,1046.218,725.551z"/>
				</g>
				<g>
					<path style="fill:#FD9B73;" d="M1063.832,704.897c0,0,3.88,4.987,8.557,11.25c1.794-9.557-3.436-25.358-3.436-25.358
						S1067.79,697.593,1063.832,704.897z"/>
				</g>
			</g>
			<g>
				<path style="fill:#FEC6AB;" d="M929.705,786.436c-16.464-6.22-47.936,0.626-51.994,14.886
					c-4.058,14.259,37.974,10.459,52.425,5.428C944.587,801.718,929.705,786.436,929.705,786.436z"/>
			</g>
			<g>
				<g>
					<path style="fill:#1A7EB4;" d="M1576.038,766.012c3.356-1.946,7.2-2.707,11.292-2.059
						c13.859,2.249,59.641,40.586,60.829,57.469c0.115,1.889-0.316,3.512-1.401,4.779c-4.89,5.715-18.74,3.689-33.195-0.665
						c-0.952-0.29-1.905-0.58-2.849-0.895c-3.372-1.07-6.726-2.272-9.998-3.474c-1.036-0.373-2.038-0.763-3.015-1.144
						c-11.638-4.518-21.453-9.285-24.402-11.042c-7.752-4.575-10.221-5.785-10.436-7.459
						C1560.781,785.334,1566.65,771.303,1576.038,766.012z"/>
				</g>
				<g>
					<path style="fill:#12405B;" d="M1576.038,766.012c3.356-1.946,7.2-2.707,11.292-2.059
						c13.859,2.249,59.641,40.586,60.829,57.469c-0.033,0.016-0.033,0.016-0.033,0.016
						C1602.597,791.859,1583.217,775.45,1576.038,766.012z"/>
				</g>
				<g>
					<g>
						<g>
							<path style="fill:#FFFFFF;" d="M1593.265,804.1c0-0.414,0.307-0.754,0.729-0.778c0.083,0,0.182,0.033,0.257,0.058
								c0.298,0.1,0.514,0.365,0.522,0.671c0.262,9.146,2.895,14.167,5.943,17.117c-1.036-0.373-2.038-0.763-3.015-1.144
								C1595.316,816.742,1593.487,811.796,1593.265,804.1z"/>
						</g>
					</g>
					<g>
						<g>
							<path style="fill:#FFFFFF;" d="M1606.013,808.353c-0.025-0.422,0.307-0.754,0.729-0.778c0.083,0,0.157,0.025,0.232,0.05
								c0.298,0.099,0.513,0.365,0.521,0.671c0.271,9.287,2.986,14.308,6.067,17.241c-0.952-0.29-1.905-0.58-2.849-0.895
								C1608.188,821.369,1606.226,816.323,1606.013,808.353z"/>
						</g>
					</g>
				</g>
			</g>
			<g>
				<path style="fill:#367394;" d="M1404.087,817.236c31.172,4.709,159.588-6.195,164.909-12.304
					c5.321-6.109,7.084-25.771-0.66-31.058s-78.31-16.871-107.467-3.714S1404.087,817.236,1404.087,817.236z"/>
			</g>
			<g>
				<g>
					<path style="fill:#1A7EB4;" d="M1527.704,669.511c3.413-1.844,7.278-2.49,11.349-1.72
						c13.785,2.664,58.398,42.355,59.079,59.267c0.059,1.891-0.421,3.501-1.544,4.735c-5.059,5.565-18.842,3.125-33.16-1.659
						c-0.943-0.319-1.887-0.637-2.821-0.98c-3.338-1.171-6.655-2.473-9.889-3.772c-1.024-0.404-2.014-0.824-2.979-1.234
						c-11.497-4.865-21.165-9.924-24.06-11.768c-7.612-4.805-10.043-6.089-10.208-7.768
						C1511.874,688.368,1518.162,674.518,1527.704,669.511z"/>
				</g>
				<g>
					<path style="fill:#12405B;" d="M1527.704,669.511c3.413-1.844,7.278-2.49,11.349-1.72
						c13.785,2.664,58.398,42.355,59.079,59.267c-0.034,0.016-0.034,0.016-0.034,0.016
						C1553.476,696.143,1534.597,679.161,1527.704,669.511z"/>
				</g>
				<g>
					<g>
						<g>
							<path style="fill:#FFFFFF;" d="M1543.782,708.098c0.012-0.414,0.329-0.744,0.752-0.756c0.083,0.003,0.181,0.039,0.255,0.066
								c0.295,0.108,0.502,0.38,0.501,0.687c-0.012,9.149,2.469,14.247,5.427,17.287c-1.024-0.404-2.014-0.824-2.979-1.234
								C1545.452,720.797,1543.772,715.798,1543.782,708.098z"/>
						</g>
					</g>
					<g>
						<g>
							<path style="fill:#FFFFFF;" d="M1556.396,712.732c-0.012-0.423,0.329-0.744,0.752-0.756c0.083,0.003,0.156,0.03,0.23,0.057
								c0.295,0.108,0.502,0.38,0.501,0.686c-0.008,9.291,2.556,14.391,5.547,17.415c-0.943-0.319-1.887-0.637-2.821-0.98
								C1558.18,725.807,1556.37,720.704,1556.396,712.732z"/>
						</g>
					</g>
				</g>
			</g>
			<g>
				<path style="fill:#5091B9;" d="M1532.308,720.128c-5.161,7.923-96.747,98.904-127.2,105.244
					c-30.393,6.278-132.113,5.107-191.553-21.613c0,0-9.583-12.031,7.676-37.837c0.469-0.737,0.938-1.473,1.467-2.211
					c4.703-6.702,11.145-14.228,19.931-22.652c44.754-43.046,140.779,17.967,140.779,17.967s101.418-64.358,131.99-65.068
					c3.511-0.075,6.739,0.765,9.497,2.281c1.472,0.877,2.826,1.878,4.002,3.065C1534.588,704.816,1536.59,713.556,1532.308,720.128z
					"/>
			</g>
			<g>
				<g>
					<path style="fill:#FFFFFF;" d="M1528.898,699.304c-20.734,10.495-42.787,30.163-64.186,49.273
						c-26.513,23.579-51.538,45.915-72.182,49.261c-2.957,0.487-6.102,0.735-9.492,0.807c-21.976,0.467-52.24-7.128-84.087-15.113
						c-27.341-6.869-55.595-13.961-77.854-15.366l0.134-2.244l0.132-2.304c0.425,0.052,0.91,0.041,1.335,0.093
						c22.445,1.643,50.394,8.621,77.371,15.437c34.649,8.713,70.515,17.703,91.761,14.223c19.315-3.136,43.865-25.038,69.842-48.182
						c20.984-18.676,42.502-37.91,63.224-48.949C1526.368,697.117,1527.722,698.117,1528.898,699.304z"/>
				</g>
			</g>
			<g>
				<path style="fill:#79C5EE;" d="M1100.7,702.83c-31.977,25.248-68.81,67.913-79.718,69.586
					c-63.442,9.728-83.558,8.667-89.152,10.434c-6.869,2.17-8.877,18.359,0.501,23.611c9.379,5.252,72.159,15.395,108.65,8.079
					c36.491-7.316,50.642-19.663,50.642-19.663s114.338,10.679,121.931,8.882c7.594-1.797,35.066-59.959,29.074-62.702
					C1148.071,697.761,1100.7,702.83,1100.7,702.83z"/>
			</g>
			<g>
				<g>
					<path style="fill:#1D3442;" d="M1000.68,820.237H839.231l-63.432-128.499c-1.481-3.001-0.251-6.632,2.747-8.111
						c3.001-1.487,6.632-0.248,8.11,2.747l60.103,121.751h153.921c3.344,0,6.056,2.711,6.056,6.055
						C1006.735,817.526,1004.024,820.237,1000.68,820.237z"/>
				</g>
			</g>
		</g>
		<g>
			<g>
				
					<ellipse transform="matrix(0.4594 -0.8882 0.8882 0.4594 -277.7662 2786.3789)" style="fill:#FFB03A;" cx="2150.132" cy="1621.375" rx="122.139" ry="130.942"/>
			</g>
			<g>
				<path style="fill:#FFB03A;" d="M2039.633,1679.427c2.012,33.366-41.994,74.715-43.706,90.461
					c-2.426,22.319,32.816,47.617,51.975,33.363c19.159-14.254,40.583-50.595,70.682-63.475
					C2148.681,1726.897,2039.633,1679.427,2039.633,1679.427z"/>
			</g>
			<g>
				<g>
					<path style="fill:#FD7816;" d="M2067.585,1745.756l-13.701-7.086l73.866-142.824c0.554-1.071,1.869-1.489,2.939-0.935
						c1.071,0.554,1.489,1.868,0.936,2.939l-71.862,138.95l7.087,3.665l114.612-107.639c0.876-0.823,2.256-0.778,3.084,0.096
						c0.823,0.879,0.781,2.26-0.096,3.084L2067.585,1745.756z"/>
				</g>
			</g>
			<g>
				<g>
					<path style="fill:#FE653B;" d="M2001.399,1779.649c-1.992-1.03-2.895-3.43-2.024-5.541c0.921-2.226,3.472-3.283,5.7-2.364
						c19.071,7.887,38.069,13.524,45.276,13.639c-3.373-3.044-11.038-7.692-16.473-10.987c-15.453-9.371-27.656-16.771-23.082-25.04
						c4.308-7.788,18.241-2.698,37.529,4.349c8.437,3.083,22.285,8.142,26.375,7.643c0-0.125-0.021-0.275-0.071-0.466
						c-2.123-8.299-33.519-25.666-46.922-33.082c-2.109-1.165-2.873-3.821-1.706-5.928c1.165-2.11,3.82-2.935,5.928-1.706
						c35.511,19.644,48.897,29.732,51.153,38.553c0.712,2.778,0.303,5.488-1.179,7.831c-4.28,6.76-15.483,3.054-36.572-4.651
						c-7.85-2.868-20.266-7.404-25.621-7.788c3.273,3.474,12.699,9.191,18.692,12.825c14.829,8.991,25.542,15.485,21.394,22.983
						c-4.152,7.505-23.685,4.103-58.054-10.111C2001.622,1779.76,2001.508,1779.706,2001.399,1779.649z"/>
				</g>
			</g>
			<g>
				<g>
					<path style="fill:#FE653B;" d="M2180.089,1667.362c-4.883-2.525-5.586-6.8-5.791-11.834c-0.17-4.114-0.327-8.001-4.473-11.378
						c-4.267-3.471-9.566-3.904-15.183-4.366c-8.712-0.71-18.592-1.529-23.687-15.116c-4.337-11.557-9.09-17.862-14.984-19.843
						c-5.445-1.828-12.291-0.062-20.929,5.401c-1.021,0.642-2.371,0.333-3.01-0.677c-0.643-1.019-0.34-2.365,0.677-3.01
						c9.818-6.21,17.882-8.123,24.651-5.85c7.223,2.419,12.845,9.559,17.679,22.445c4.127,11.002,11.461,11.604,19.961,12.302
						c6.034,0.5,12.271,1.02,17.582,5.333c5.668,4.615,5.894,10.141,6.075,14.58c0.237,5.839,0.38,9.364,12.625,10.011
						c1.202,0.058,2.127,1.09,2.064,2.293c-0.063,1.202-1.09,2.127-2.293,2.064
						C2186.038,1669.455,2182.537,1668.628,2180.089,1667.362z"/>
				</g>
			</g>
			<g>
				
					<ellipse transform="matrix(0.0832 -0.9965 0.9965 0.0832 434.0349 3566.436)" style="fill:#333333;" cx="2155.298" cy="1547.329" rx="27.482" ry="70.669"/>
			</g>
		</g>
		<g>
			<g>
				<path style="fill:#FE653B;" d="M238.97,1937.827c55.562-16.351,87.349-74.647,70.999-130.209
					c-16.351-55.562-74.647-87.349-130.209-70.999c-55.563,16.351-87.35,74.647-70.999,130.209S183.407,1954.177,238.97,1937.827z
					 M233.058,1917.739c-44.483,13.09-91.12-12.34-104.21-56.822c-13.09-44.483,12.34-91.12,56.823-104.21
					s91.12,12.34,104.21,56.822C302.971,1858.011,277.541,1904.648,233.058,1917.739z"/>
			</g>
			<g>
				
					<ellipse transform="matrix(0.7071 -0.7071 0.7071 0.7071 -1237.791 686.1531)" style="fill:#FFB03A;" cx="209.365" cy="1837.222" rx="83.93" ry="83.93"/>
			</g>
			<g>
				<path style="fill:#FE653B;" d="M287.297,1901.778c0,0,148.193,115.698,152.387,115.737c9.887,0.091,22.602-20.798,17.192-29.066
					c-3.184-4.867-155.494-106.856-155.494-106.856L287.297,1901.778z"/>
			</g>
			<g>
				
					<ellipse transform="matrix(0.4787 -0.878 0.878 0.4787 -1506.0533 1096.028)" style="fill:#333333;" cx="169.974" cy="1816.31" rx="54.949" ry="24.231"/>
			</g>
		</g>
		<g>
			<g>
				<g>
					<polygon style="fill:#FFB03A;" points="1942.948,754.679 1940.238,740.699 2097.602,710.173 1967.443,616.609 
						1975.753,605.045 2132.704,717.869 					"/>
				</g>
			</g>
			<g>
				
					<ellipse transform="matrix(0.8421 -0.5393 0.5393 0.8421 -51.133 1253.373)" style="fill:#FE653B;" cx="2115.154" cy="714.02" rx="37.591" ry="37.591"/>
			</g>
			<g>
				<g>
					
						<ellipse transform="matrix(0.9742 -0.2257 0.2257 0.9742 -86.9903 460.7503)" style="fill:#FE653B;" cx="1971.597" cy="610.827" rx="37.591" ry="37.591"/>
				</g>
				<g>
					
						<ellipse transform="matrix(0.9742 -0.2257 0.2257 0.9742 -118.6542 457.5096)" style="fill:#FE653B;" cx="1941.592" cy="747.689" rx="37.591" ry="37.591"/>
				</g>
			</g>
		</g>
		<g>
			<g>
				<path style="fill:#FF643B;" d="M416.719,716.827c5.389,3.128,12.153,8.142,20.292,15.041
					c9.62,8.095,16.185,13.356,19.694,15.781c3.509,2.426,5.439,5.29,5.791,8.593c0.352,3.303-0.545,6.333-2.689,9.09
					c-2.144,2.757-4.824,4.306-8.038,4.648c-2.5,0.266-5.1-0.405-7.799-2.014c-3.847-2.209-12.269-8.807-25.267-19.793
					c-9.926-8.424-19.212-13.801-27.857-16.131c-7.052-1.778-10.839-5.121-11.361-10.032c-0.475-4.464,2.211-8.497,8.057-12.099
					c7.875-4.902,16.212-13.103,25.01-24.604c12.299-15.937,19.649-25.139,22.049-27.607c2.401-2.468,4.941-3.844,7.619-4.129
					c3.214-0.342,6.179,0.584,8.896,2.777c2.717,2.194,4.251,4.942,4.602,8.246c0.323,3.036-0.712,6.035-3.105,8.999
					C445.011,683.612,433.046,698.024,416.719,716.827z"/>
			</g>
			<g>
				<path style="fill:#FF643B;" d="M515.144,801.698c-3.303,0.352-6.324-0.455-9.061-2.421c-2.737-1.966-4.282-4.601-4.634-7.904
					c-0.152-1.428-0.001-2.979,0.453-4.653c4.92-19.937,15.101-48.989,30.541-87.156c15.44-38.167,25.66-67.269,30.66-87.304
					c8.293-33.208,15.445-49.996,21.455-50.365c3.313-0.262,6.341,0.612,9.083,2.622c2.742,2.011,4.284,4.623,4.627,7.837
					c0.219,2.053-0.011,4.561-0.689,7.523L586.456,617.9c-4.223,17.154-10.72,37.123-19.491,59.908l-23.292,58.552l-18.523,56.283
					C523.301,798.166,519.965,801.185,515.144,801.698z"/>
			</g>
			<g>
				<path style="fill:#FF643B;" d="M719.62,677.944c0.342,3.214-0.972,6.559-3.943,10.036
					c-19.148,21.993-39.58,41.685-61.295,59.076c-2.329,1.873-4.609,2.929-6.841,3.166c-3.214,0.342-6.14-0.633-8.776-2.926
					c-2.637-2.293-4.126-5.046-4.469-8.26c-0.38-3.571,1.028-6.881,4.225-9.93l47.741-45.173
					c-8.507-4.422-19.188-11.456-32.043-21.103c-15.72-11.961-23.856-20.53-24.407-25.708c-0.342-3.214,0.608-6.159,2.852-8.836
					c2.243-2.677,4.972-4.186,8.186-4.528c3.303-0.352,6.456,0.848,9.457,3.598c22.78,20.599,42.884,34.305,60.314,41.118
					C716.173,670.591,719.173,673.748,719.62,677.944z"/>
			</g>
		</g>
		<g>
			<g>
				<g>
					<path style="fill:#FF643B;" d="M1318.303,623.235c-65.916,0-119.542-53.627-119.542-119.543
						c0-65.916,53.627-119.543,119.542-119.543c65.916,0,119.543,53.627,119.543,119.543
						C1437.845,569.608,1384.219,623.235,1318.303,623.235z M1318.303,420.802c-45.706,0-82.891,37.185-82.891,82.891
						c0,45.706,37.185,82.891,82.891,82.891c45.706,0,82.891-37.185,82.891-82.891
						C1401.193,457.987,1364.009,420.802,1318.303,420.802z"/>
				</g>
			</g>
			<g>
				<g>
					<path style="fill:#FF643B;" d="M1207.98,485.086c0,0-28.709-8.796-35.887-4.398c-7.177,4.398-4.486,36.652,0,43.982
						c4.486,7.33,35.887,0,35.887,0V485.086z"/>
				</g>
				<g>
					<path style="fill:#FF643B;" d="M1428.625,485.086c0,0,28.709-8.796,35.887-4.398c7.177,4.398,4.486,36.652,0,43.982
						s-35.887,0-35.887,0V485.086z"/>
				</g>
			</g>
			<g>
				<g>
					<path style="fill:#FF643B;" d="M1299.697,614.015c0,0-8.797,28.709-4.398,35.887c4.398,7.177,36.652,4.486,43.982,0
						c7.33-4.486,0-35.887,0-35.887H1299.697z"/>
				</g>
				<g>
					<path style="fill:#FF643B;" d="M1299.697,393.37c0,0-8.797-28.709-4.398-35.887c4.398-7.177,36.652-4.486,43.982,0
						c7.33,4.486,0,35.887,0,35.887H1299.697z"/>
				</g>
			</g>
			<g>
				<g>
					<path style="fill:#FF643B;" d="M1227.137,568.546c0,0-26.521,14.081-28.486,22.266c-1.965,8.185,22.745,29.089,31.1,31.1
						s25.376-25.376,25.376-25.376L1227.137,568.546z"/>
				</g>
				<g>
					<path style="fill:#FF643B;" d="M1383.156,412.526c0,0,14.08-26.521,22.266-28.486c8.185-1.965,29.089,22.745,31.1,31.1
						c2.011,8.355-25.376,25.376-25.376,25.376L1383.156,412.526z"/>
				</g>
			</g>
			<g>
				<g>
					<path style="fill:#FF643B;" d="M1252.012,412.526c0,0-14.081-26.521-22.266-28.486c-8.185-1.965-29.089,22.745-31.1,31.1
						c-2.011,8.355,25.376,25.376,25.376,25.376L1252.012,412.526z"/>
				</g>
				<g>
					<path style="fill:#FF643B;" d="M1408.031,568.546c0,0,26.521,14.081,28.486,22.266c1.965,8.185-22.745,29.089-31.1,31.1
						c-8.355,2.011-25.376-25.376-25.376-25.376L1408.031,568.546z"/>
				</g>
			</g>
		</g>
	</g>
</g>
</svg>
